G75*
%MOIN*%
%OFA0B0*%
%FSLAX24Y24*%
%IPPOS*%
%LPD*%
%AMOC8*
5,1,8,0,0,1.08239X$1,22.5*
%
%ADD10C,0.0600*%
%ADD11OC8,0.0396*%
%ADD12C,0.0160*%
D10*
X001930Y003048D02*
X001930Y003648D01*
X002930Y003648D02*
X002930Y003048D01*
X003930Y003048D02*
X003930Y003648D01*
X004930Y003648D02*
X004930Y003048D01*
X005630Y005793D02*
X006230Y005793D01*
X006230Y006793D02*
X005630Y006793D01*
X005630Y007793D02*
X006230Y007793D01*
X006230Y008793D02*
X005630Y008793D01*
X001230Y008793D02*
X000630Y008793D01*
X000630Y007793D02*
X001230Y007793D01*
X001230Y006793D02*
X000630Y006793D01*
X000630Y005793D02*
X001230Y005793D01*
D11*
X002180Y008418D03*
X002055Y010418D03*
X003083Y010316D03*
X003430Y009168D03*
X003780Y010721D03*
X005305Y009543D03*
X005555Y010668D03*
X005670Y011461D03*
X006180Y011543D03*
X003468Y005103D03*
X002490Y005298D03*
X005715Y004486D03*
D12*
X001215Y003414D02*
X001215Y003348D01*
X001490Y003348D01*
X001490Y003736D01*
X001557Y003898D01*
X001681Y004021D01*
X001710Y004033D01*
X001710Y005830D01*
X001710Y005830D01*
X001710Y005813D01*
X000950Y005813D01*
X000950Y005773D01*
X000950Y005313D01*
X001268Y005313D01*
X001342Y005325D01*
X001414Y005348D01*
X001482Y005383D01*
X001543Y005427D01*
X001596Y005481D01*
X001641Y005542D01*
X001675Y005609D01*
X001698Y005681D01*
X001710Y005756D01*
X001710Y005773D01*
X000950Y005773D01*
X000910Y005773D01*
X000910Y005313D01*
X000592Y005313D01*
X000518Y005325D01*
X000446Y005348D01*
X000378Y005383D01*
X000340Y005411D01*
X000340Y003508D01*
X000989Y003508D01*
X000989Y003509D01*
X001055Y003508D01*
X001121Y003508D01*
X001122Y003508D01*
X001122Y003508D01*
X001168Y003461D01*
X001215Y003415D01*
X001215Y003414D01*
X001215Y003414D01*
X001138Y003492D02*
X001490Y003492D01*
X001490Y003650D02*
X000340Y003650D01*
X000340Y003809D02*
X001520Y003809D01*
X001627Y003967D02*
X000340Y003967D01*
X000340Y004126D02*
X001710Y004126D01*
X001710Y004284D02*
X000340Y004284D01*
X000340Y004443D02*
X001710Y004443D01*
X001710Y004601D02*
X000340Y004601D01*
X000340Y004760D02*
X001710Y004760D01*
X001710Y004918D02*
X000340Y004918D01*
X000340Y005077D02*
X001710Y005077D01*
X001710Y005235D02*
X000340Y005235D01*
X000340Y005394D02*
X000363Y005394D01*
X000340Y006176D02*
X000340Y006461D01*
X000381Y006420D01*
X000542Y006353D01*
X001318Y006353D01*
X001479Y006420D01*
X001603Y006544D01*
X001670Y006706D01*
X001670Y006881D01*
X001603Y007043D01*
X001479Y007166D01*
X001318Y007233D01*
X000542Y007233D01*
X000381Y007166D01*
X000340Y007126D01*
X000340Y007461D01*
X000381Y007420D01*
X000542Y007353D01*
X001318Y007353D01*
X001479Y007420D01*
X001603Y007544D01*
X001670Y007706D01*
X001670Y007881D01*
X001603Y008043D01*
X001479Y008166D01*
X001318Y008233D01*
X000542Y008233D01*
X000381Y008166D01*
X000340Y008126D01*
X000340Y008461D01*
X000381Y008420D01*
X000542Y008353D01*
X001318Y008353D01*
X001479Y008420D01*
X001603Y008544D01*
X001670Y008706D01*
X001670Y008881D01*
X001603Y009043D01*
X001479Y009166D01*
X001318Y009233D01*
X000542Y009233D01*
X000381Y009166D01*
X000340Y009126D01*
X000340Y014879D01*
X006515Y014879D01*
X006515Y009130D01*
X006479Y009166D01*
X006318Y009233D01*
X006150Y009233D01*
X006150Y011292D01*
X006008Y011434D01*
X006008Y011601D01*
X005810Y011799D01*
X005530Y011799D01*
X005332Y011601D01*
X005332Y011321D01*
X005530Y011123D01*
X005697Y011123D01*
X005710Y011110D01*
X005710Y009233D01*
X005542Y009233D01*
X005381Y009166D01*
X005257Y009043D01*
X005245Y009013D01*
X004961Y009013D01*
X005159Y009211D01*
X005165Y009205D01*
X005445Y009205D01*
X005643Y009403D01*
X005643Y009683D01*
X005445Y009881D01*
X005165Y009881D01*
X004967Y009683D01*
X004967Y009638D01*
X004964Y009638D01*
X004925Y009599D01*
X004875Y009574D01*
X004863Y009537D01*
X003589Y008263D01*
X002503Y008263D01*
X002518Y008278D01*
X002518Y008558D01*
X002320Y008756D01*
X002040Y008756D01*
X001842Y008558D01*
X001842Y008278D01*
X001968Y008152D01*
X001968Y007952D01*
X002097Y007823D01*
X003600Y007823D01*
X001842Y006138D01*
X001839Y006138D01*
X001776Y006076D01*
X001712Y006014D01*
X001712Y006011D01*
X001710Y006009D01*
X001710Y005921D01*
X001708Y005842D01*
X001698Y005906D01*
X001675Y005978D01*
X001641Y006045D01*
X001596Y006106D01*
X001543Y006159D01*
X001482Y006204D01*
X001414Y006238D01*
X001342Y006261D01*
X001268Y006273D01*
X000950Y006273D01*
X000950Y005813D01*
X000910Y005813D01*
X000910Y006273D01*
X000592Y006273D01*
X000518Y006261D01*
X000446Y006238D01*
X000378Y006204D01*
X000340Y006176D01*
X000340Y006186D02*
X000354Y006186D01*
X000340Y006345D02*
X002057Y006345D01*
X001892Y006186D02*
X001506Y006186D01*
X001562Y006503D02*
X002222Y006503D01*
X002388Y006662D02*
X001652Y006662D01*
X001670Y006820D02*
X002553Y006820D01*
X002719Y006979D02*
X001629Y006979D01*
X001508Y007137D02*
X002884Y007137D01*
X003049Y007296D02*
X000340Y007296D01*
X000340Y007454D02*
X000347Y007454D01*
X000340Y007137D02*
X000352Y007137D01*
X000910Y006186D02*
X000950Y006186D01*
X000950Y006028D02*
X000910Y006028D01*
X000910Y005869D02*
X000950Y005869D01*
X000950Y005711D02*
X000910Y005711D01*
X000910Y005552D02*
X000950Y005552D01*
X000950Y005394D02*
X000910Y005394D01*
X001497Y005394D02*
X001710Y005394D01*
X001710Y005552D02*
X001646Y005552D01*
X001703Y005711D02*
X001710Y005711D01*
X001704Y005869D02*
X001709Y005869D01*
X001726Y006028D02*
X001649Y006028D01*
X001930Y005918D02*
X004930Y008793D01*
X005930Y008793D01*
X005930Y011201D01*
X005670Y011461D01*
X005710Y011100D02*
X000340Y011100D01*
X000340Y011258D02*
X005394Y011258D01*
X005332Y011417D02*
X000340Y011417D01*
X000340Y011575D02*
X005332Y011575D01*
X005465Y011734D02*
X000340Y011734D01*
X000340Y011892D02*
X006515Y011892D01*
X006515Y011734D02*
X005875Y011734D01*
X006008Y011575D02*
X006515Y011575D01*
X006515Y011417D02*
X006025Y011417D01*
X006150Y011258D02*
X006515Y011258D01*
X006515Y011100D02*
X006150Y011100D01*
X006150Y010941D02*
X006515Y010941D01*
X006515Y010783D02*
X006150Y010783D01*
X006150Y010624D02*
X006515Y010624D01*
X006515Y010466D02*
X006150Y010466D01*
X006150Y010307D02*
X006515Y010307D01*
X006515Y010149D02*
X006150Y010149D01*
X006150Y009990D02*
X006515Y009990D01*
X006515Y009832D02*
X006150Y009832D01*
X006150Y009673D02*
X006515Y009673D01*
X006515Y009515D02*
X006150Y009515D01*
X006150Y009356D02*
X006515Y009356D01*
X006515Y009198D02*
X006403Y009198D01*
X006515Y008456D02*
X006515Y008130D01*
X006479Y008166D01*
X006318Y008233D01*
X005542Y008233D01*
X005381Y008166D01*
X005257Y008043D01*
X005190Y007881D01*
X005190Y007763D01*
X004339Y007763D01*
X004210Y007634D01*
X002710Y006134D01*
X002710Y004033D01*
X002681Y004021D01*
X002557Y003898D01*
X002490Y003736D01*
X002490Y003348D01*
X002370Y003348D01*
X002370Y003736D01*
X002303Y003898D01*
X002179Y004021D01*
X002150Y004033D01*
X002150Y005824D01*
X005018Y008573D01*
X005245Y008573D01*
X005257Y008544D01*
X005381Y008420D01*
X005542Y008353D01*
X006318Y008353D01*
X006479Y008420D01*
X006515Y008456D01*
X006515Y008405D02*
X006443Y008405D01*
X006515Y008247D02*
X004678Y008247D01*
X004843Y008405D02*
X005417Y008405D01*
X005249Y008564D02*
X005008Y008564D01*
X004987Y009039D02*
X005256Y009039D01*
X005146Y009198D02*
X005457Y009198D01*
X005596Y009356D02*
X005710Y009356D01*
X005710Y009515D02*
X005643Y009515D01*
X005643Y009673D02*
X005710Y009673D01*
X005710Y009832D02*
X005495Y009832D01*
X005710Y009990D02*
X003235Y009990D01*
X003223Y009978D02*
X003421Y010176D01*
X003421Y010343D01*
X003550Y010472D01*
X003640Y010383D01*
X003920Y010383D01*
X004118Y010581D01*
X004118Y010861D01*
X003920Y011059D01*
X003640Y011059D01*
X003522Y010941D01*
X003396Y010941D01*
X003109Y010654D01*
X002942Y010654D01*
X002744Y010456D01*
X002744Y010176D01*
X002942Y009978D01*
X003223Y009978D01*
X003083Y010316D02*
X003488Y010721D01*
X003780Y010721D01*
X004003Y010466D02*
X005710Y010466D01*
X005710Y010624D02*
X004118Y010624D01*
X004118Y010783D02*
X005710Y010783D01*
X005710Y010941D02*
X004038Y010941D01*
X003522Y010941D02*
X000340Y010941D01*
X000340Y010783D02*
X003238Y010783D01*
X003421Y010307D02*
X005710Y010307D01*
X005710Y010149D02*
X003394Y010149D01*
X003544Y010466D02*
X003557Y010466D01*
X002913Y010624D02*
X000340Y010624D01*
X000340Y010466D02*
X002754Y010466D01*
X002744Y010307D02*
X000340Y010307D01*
X000340Y010149D02*
X002771Y010149D01*
X002930Y009990D02*
X000340Y009990D01*
X000340Y009832D02*
X005115Y009832D01*
X004967Y009673D02*
X000340Y009673D01*
X000340Y009515D02*
X004840Y009515D01*
X004682Y009356D02*
X000340Y009356D01*
X000340Y009198D02*
X000457Y009198D01*
X000417Y008405D02*
X000340Y008405D01*
X000340Y008247D02*
X001873Y008247D01*
X001842Y008405D02*
X001443Y008405D01*
X001611Y008564D02*
X001847Y008564D01*
X002006Y008722D02*
X001670Y008722D01*
X001670Y008881D02*
X004206Y008881D01*
X004048Y008722D02*
X002354Y008722D01*
X002513Y008564D02*
X003889Y008564D01*
X003731Y008405D02*
X002518Y008405D01*
X002188Y008410D02*
X002188Y008043D01*
X003680Y008043D01*
X005055Y009418D01*
X005305Y009543D01*
X005303Y008088D02*
X004512Y008088D01*
X004347Y007930D02*
X005210Y007930D01*
X005190Y007771D02*
X004182Y007771D01*
X004188Y007613D02*
X004016Y007613D01*
X004030Y007454D02*
X003851Y007454D01*
X003871Y007296D02*
X003685Y007296D01*
X003713Y007137D02*
X003520Y007137D01*
X003554Y006979D02*
X003355Y006979D01*
X003396Y006820D02*
X003189Y006820D01*
X003237Y006662D02*
X003024Y006662D01*
X003079Y006503D02*
X002858Y006503D01*
X002920Y006345D02*
X002693Y006345D01*
X002762Y006186D02*
X002528Y006186D01*
X002362Y006028D02*
X002710Y006028D01*
X002710Y005869D02*
X002197Y005869D01*
X002150Y005711D02*
X002710Y005711D01*
X002710Y005552D02*
X002150Y005552D01*
X002150Y005394D02*
X002710Y005394D01*
X002710Y005235D02*
X002150Y005235D01*
X002150Y005077D02*
X002710Y005077D01*
X002710Y004918D02*
X002150Y004918D01*
X002150Y004760D02*
X002710Y004760D01*
X002710Y004601D02*
X002150Y004601D01*
X002150Y004443D02*
X002710Y004443D01*
X002710Y004284D02*
X002150Y004284D01*
X002150Y004126D02*
X002710Y004126D01*
X002627Y003967D02*
X002233Y003967D01*
X002340Y003809D02*
X002520Y003809D01*
X002490Y003650D02*
X002370Y003650D01*
X002370Y003492D02*
X002490Y003492D01*
X002930Y003348D02*
X002930Y006043D01*
X004430Y007543D01*
X005680Y007543D01*
X005930Y007793D01*
X005801Y007353D02*
X006318Y007353D01*
X006479Y007420D01*
X006515Y007456D01*
X006515Y007130D01*
X006479Y007166D01*
X006318Y007233D01*
X005542Y007233D01*
X005381Y007166D01*
X005257Y007043D01*
X005190Y006881D01*
X005190Y006706D01*
X005257Y006544D01*
X005381Y006420D01*
X005542Y006353D01*
X006318Y006353D01*
X006479Y006420D01*
X006515Y006456D01*
X006515Y006130D01*
X006479Y006166D01*
X006318Y006233D01*
X005542Y006233D01*
X005381Y006166D01*
X005257Y006043D01*
X005190Y005881D01*
X005190Y005706D01*
X005257Y005544D01*
X005381Y005420D01*
X005542Y005353D01*
X006318Y005353D01*
X006479Y005420D01*
X006515Y005456D01*
X006515Y003508D01*
X005869Y003508D01*
X005867Y003510D01*
X005803Y003508D01*
X005739Y003508D01*
X005737Y003507D01*
X005735Y003507D01*
X005690Y003460D01*
X005645Y003415D01*
X005645Y003412D01*
X005643Y003410D01*
X005645Y003348D01*
X004950Y003348D01*
X004950Y003368D01*
X005410Y003368D01*
X005410Y003686D01*
X005398Y003761D01*
X005375Y003833D01*
X005341Y003900D01*
X005296Y003961D01*
X005243Y004014D01*
X005182Y004059D01*
X005114Y004093D01*
X005042Y004116D01*
X004968Y004128D01*
X004950Y004128D01*
X004950Y003368D01*
X004910Y003368D01*
X004910Y003348D01*
X004370Y003348D01*
X004370Y003736D01*
X004303Y003898D01*
X004179Y004021D01*
X004018Y004088D01*
X003842Y004088D01*
X003681Y004021D01*
X003557Y003898D01*
X003490Y003736D01*
X003490Y003508D01*
X003370Y003508D01*
X003370Y003736D01*
X003303Y003898D01*
X003179Y004021D01*
X003150Y004033D01*
X003150Y005952D01*
X004521Y007323D01*
X005771Y007323D01*
X005801Y007353D01*
X005352Y007137D02*
X004335Y007137D01*
X004494Y007296D02*
X006515Y007296D01*
X006513Y007454D02*
X006515Y007454D01*
X006508Y007137D02*
X006515Y007137D01*
X006515Y006345D02*
X003543Y006345D01*
X003701Y006503D02*
X005298Y006503D01*
X005208Y006662D02*
X003860Y006662D01*
X004018Y006820D02*
X005190Y006820D01*
X005231Y006979D02*
X004177Y006979D01*
X003546Y007771D02*
X001670Y007771D01*
X001650Y007930D02*
X001991Y007930D01*
X001968Y008088D02*
X001557Y008088D01*
X001631Y007613D02*
X003380Y007613D01*
X003215Y007454D02*
X001513Y007454D01*
X002188Y008410D02*
X002180Y008418D01*
X001604Y009039D02*
X004365Y009039D01*
X004523Y009198D02*
X001403Y009198D01*
X000340Y012051D02*
X006515Y012051D01*
X006515Y012209D02*
X000340Y012209D01*
X000340Y012368D02*
X006515Y012368D01*
X006515Y012526D02*
X000340Y012526D01*
X000340Y012685D02*
X006515Y012685D01*
X006515Y012843D02*
X000340Y012843D01*
X000340Y013002D02*
X002292Y013002D01*
X002266Y013027D02*
X002367Y012927D01*
X002498Y012873D01*
X002640Y012873D01*
X002771Y012927D01*
X002871Y013027D01*
X002926Y013159D01*
X002926Y013301D01*
X002871Y013432D01*
X002771Y013532D01*
X002640Y013586D01*
X002498Y013586D01*
X002367Y013532D01*
X002266Y013432D01*
X002212Y013301D01*
X002212Y013159D01*
X002266Y013027D01*
X002212Y013160D02*
X000340Y013160D01*
X000340Y013319D02*
X002220Y013319D01*
X002312Y013477D02*
X000340Y013477D01*
X000340Y013636D02*
X006515Y013636D01*
X006515Y013794D02*
X000340Y013794D01*
X000340Y013953D02*
X006515Y013953D01*
X006515Y014111D02*
X000340Y014111D01*
X000340Y014270D02*
X006515Y014270D01*
X006515Y014428D02*
X000340Y014428D01*
X000340Y014587D02*
X006515Y014587D01*
X006515Y014745D02*
X000340Y014745D01*
X002826Y013477D02*
X004044Y013477D01*
X003999Y013432D02*
X003944Y013301D01*
X003944Y013159D01*
X003999Y013027D01*
X004099Y012927D01*
X004230Y012873D01*
X004372Y012873D01*
X004503Y012927D01*
X004604Y013027D01*
X004658Y013159D01*
X004658Y013301D01*
X004604Y013432D01*
X004503Y013532D01*
X004372Y013586D01*
X004230Y013586D01*
X004099Y013532D01*
X003999Y013432D01*
X003952Y013319D02*
X002918Y013319D01*
X002926Y013160D02*
X003944Y013160D01*
X004024Y013002D02*
X002846Y013002D01*
X004578Y013002D02*
X006515Y013002D01*
X006515Y013160D02*
X004658Y013160D01*
X004650Y013319D02*
X006515Y013319D01*
X006515Y013477D02*
X004558Y013477D01*
X005429Y006186D02*
X003384Y006186D01*
X003226Y006028D02*
X005251Y006028D01*
X005190Y005869D02*
X003150Y005869D01*
X003150Y005711D02*
X005190Y005711D01*
X005254Y005552D02*
X003150Y005552D01*
X003150Y005394D02*
X005445Y005394D01*
X004984Y004126D02*
X006515Y004126D01*
X006515Y004284D02*
X003150Y004284D01*
X003150Y004126D02*
X004876Y004126D01*
X004892Y004128D02*
X004818Y004116D01*
X004746Y004093D01*
X004678Y004059D01*
X004617Y004014D01*
X004564Y003961D01*
X004519Y003900D01*
X004485Y003833D01*
X004462Y003761D01*
X004450Y003686D01*
X004450Y003368D01*
X004910Y003368D01*
X004910Y004128D01*
X004892Y004128D01*
X004910Y004126D02*
X004950Y004126D01*
X004950Y003967D02*
X004910Y003967D01*
X004910Y003809D02*
X004950Y003809D01*
X004950Y003650D02*
X004910Y003650D01*
X004910Y003492D02*
X004950Y003492D01*
X005290Y003967D02*
X006515Y003967D01*
X006515Y003809D02*
X005383Y003809D01*
X005410Y003650D02*
X006515Y003650D01*
X006515Y004443D02*
X003150Y004443D01*
X003150Y004601D02*
X006515Y004601D01*
X006515Y004760D02*
X003150Y004760D01*
X003150Y004918D02*
X006515Y004918D01*
X006515Y005077D02*
X003150Y005077D01*
X003150Y005235D02*
X006515Y005235D01*
X006515Y005394D02*
X006415Y005394D01*
X006431Y006186D02*
X006515Y006186D01*
X005721Y003492D02*
X005410Y003492D01*
X004570Y003967D02*
X004233Y003967D01*
X004340Y003809D02*
X004477Y003809D01*
X004450Y003650D02*
X004370Y003650D01*
X004370Y003492D02*
X004450Y003492D01*
X003627Y003967D02*
X003233Y003967D01*
X003340Y003809D02*
X003520Y003809D01*
X003490Y003650D02*
X003370Y003650D01*
X001930Y003348D02*
X001930Y005918D01*
M02*
