G75*
%MOIN*%
%OFA0B0*%
%FSLAX24Y24*%
%IPPOS*%
%LPD*%
%AMOC8*
5,1,8,0,0,1.08239X$1,22.5*
%
%ADD10C,0.0000*%
%ADD11R,0.0008X0.0203*%
%ADD12C,0.0030*%
%ADD13C,0.0060*%
%ADD14C,0.0020*%
%ADD15R,0.0098X0.0098*%
%ADD16C,0.0050*%
D10*
X000743Y001523D02*
X001318Y002198D01*
X001055Y003348D02*
X000180Y003348D01*
X000180Y015039D01*
X006675Y015039D01*
X006675Y003348D01*
X006680Y003348D02*
X005805Y003348D01*
X005555Y002223D02*
X006118Y001523D01*
X005218Y000636D02*
X004568Y001198D01*
X004143Y001023D02*
X004055Y000161D01*
X002805Y000161D02*
X002743Y001011D01*
X002293Y001198D02*
X001655Y000623D01*
X005555Y002224D02*
X005594Y002304D01*
X005629Y002387D01*
X005661Y002470D01*
X005691Y002555D01*
X005717Y002641D01*
X005739Y002727D01*
X005759Y002815D01*
X005775Y002903D01*
X005788Y002991D01*
X005797Y003080D01*
X005803Y003170D01*
X005806Y003259D01*
X005805Y003349D01*
X001318Y002198D02*
X001276Y002288D01*
X001238Y002380D01*
X001203Y002472D01*
X001172Y002567D01*
X001144Y002662D01*
X001120Y002758D01*
X001100Y002855D01*
X001083Y002953D01*
X001071Y003051D01*
X001062Y003150D01*
X001056Y003249D01*
X001055Y003348D01*
X003430Y003348D02*
X003430Y003336D01*
X002805Y000161D02*
X002908Y000142D01*
X003012Y000127D01*
X003116Y000115D01*
X003221Y000107D01*
X003325Y000102D01*
X003430Y000100D01*
X003535Y000102D01*
X003639Y000107D01*
X003744Y000115D01*
X003848Y000127D01*
X003952Y000142D01*
X004055Y000161D01*
X004143Y001023D02*
X004231Y001052D01*
X004317Y001083D01*
X004402Y001118D01*
X004486Y001157D01*
X004568Y001198D01*
X001655Y000623D02*
X001566Y000683D01*
X001480Y000747D01*
X001395Y000813D01*
X001312Y000882D01*
X001232Y000953D01*
X001154Y001028D01*
X001079Y001104D01*
X001006Y001183D01*
X000936Y001265D01*
X000869Y001349D01*
X000804Y001435D01*
X000743Y001523D01*
X005217Y000636D02*
X005305Y000695D01*
X005390Y000758D01*
X005474Y000823D01*
X005555Y000891D01*
X005634Y000962D01*
X005711Y001035D01*
X005785Y001111D01*
X005857Y001189D01*
X005926Y001269D01*
X005992Y001352D01*
X006056Y001436D01*
X006117Y001523D01*
X002742Y001011D02*
X002649Y001041D01*
X002558Y001075D01*
X002468Y001112D01*
X002379Y001153D01*
X002292Y001198D01*
X002372Y013230D02*
X002374Y013257D01*
X002380Y013284D01*
X002389Y013310D01*
X002402Y013334D01*
X002418Y013357D01*
X002437Y013376D01*
X002459Y013393D01*
X002483Y013407D01*
X002508Y013417D01*
X002535Y013424D01*
X002562Y013427D01*
X002590Y013426D01*
X002617Y013421D01*
X002643Y013413D01*
X002667Y013401D01*
X002690Y013385D01*
X002711Y013367D01*
X002728Y013346D01*
X002743Y013322D01*
X002754Y013297D01*
X002762Y013271D01*
X002766Y013244D01*
X002766Y013216D01*
X002762Y013189D01*
X002754Y013163D01*
X002743Y013138D01*
X002728Y013114D01*
X002711Y013093D01*
X002690Y013075D01*
X002668Y013059D01*
X002643Y013047D01*
X002617Y013039D01*
X002590Y013034D01*
X002562Y013033D01*
X002535Y013036D01*
X002508Y013043D01*
X002483Y013053D01*
X002459Y013067D01*
X002437Y013084D01*
X002418Y013103D01*
X002402Y013126D01*
X002389Y013150D01*
X002380Y013176D01*
X002374Y013203D01*
X002372Y013230D01*
X004104Y013230D02*
X004106Y013257D01*
X004112Y013284D01*
X004121Y013310D01*
X004134Y013334D01*
X004150Y013357D01*
X004169Y013376D01*
X004191Y013393D01*
X004215Y013407D01*
X004240Y013417D01*
X004267Y013424D01*
X004294Y013427D01*
X004322Y013426D01*
X004349Y013421D01*
X004375Y013413D01*
X004399Y013401D01*
X004422Y013385D01*
X004443Y013367D01*
X004460Y013346D01*
X004475Y013322D01*
X004486Y013297D01*
X004494Y013271D01*
X004498Y013244D01*
X004498Y013216D01*
X004494Y013189D01*
X004486Y013163D01*
X004475Y013138D01*
X004460Y013114D01*
X004443Y013093D01*
X004422Y013075D01*
X004400Y013059D01*
X004375Y013047D01*
X004349Y013039D01*
X004322Y013034D01*
X004294Y013033D01*
X004267Y013036D01*
X004240Y013043D01*
X004215Y013053D01*
X004191Y013067D01*
X004169Y013084D01*
X004150Y013103D01*
X004134Y013126D01*
X004121Y013150D01*
X004112Y013176D01*
X004106Y013203D01*
X004104Y013230D01*
D11*
X003548Y008381D03*
D12*
X003581Y008321D02*
X003775Y008321D01*
X003678Y008321D02*
X003678Y008611D01*
X003581Y008514D01*
X003480Y008563D02*
X003432Y008611D01*
X003335Y008611D01*
X003286Y008563D01*
X003286Y008369D01*
X003335Y008321D01*
X003432Y008321D01*
X003480Y008369D01*
X003187Y008321D02*
X003090Y008321D01*
X003138Y008321D02*
X003138Y008611D01*
X003090Y008611D02*
X003187Y008611D01*
X002594Y008480D02*
X002545Y008529D01*
X002449Y008529D01*
X002400Y008480D01*
X002299Y008480D02*
X002299Y008383D01*
X002251Y008335D01*
X002106Y008335D01*
X002106Y008238D02*
X002106Y008529D01*
X002251Y008529D01*
X002299Y008480D01*
X002202Y008335D02*
X002299Y008238D01*
X002400Y008238D02*
X002594Y008432D01*
X002594Y008480D01*
X002594Y008238D02*
X002400Y008238D01*
X002322Y010150D02*
X002467Y010150D01*
X002515Y010198D01*
X002515Y010391D01*
X002467Y010440D01*
X002322Y010440D01*
X002322Y010150D01*
X002617Y010150D02*
X002810Y010343D01*
X002810Y010391D01*
X002762Y010440D01*
X002665Y010440D01*
X002617Y010391D01*
X002617Y010150D02*
X002810Y010150D01*
X002606Y011408D02*
X002412Y011408D01*
X002606Y011602D01*
X002606Y011650D01*
X002557Y011699D01*
X002461Y011699D01*
X002412Y011650D01*
X002311Y011650D02*
X002263Y011699D01*
X002166Y011699D01*
X002118Y011650D01*
X002118Y011457D01*
X002166Y011408D01*
X002263Y011408D01*
X002311Y011457D01*
X001757Y012892D02*
X001563Y012892D01*
X001462Y012892D02*
X001462Y013182D01*
X001563Y013086D02*
X001660Y013182D01*
X001660Y012892D01*
X001462Y012892D02*
X001269Y013182D01*
X001269Y012892D01*
X001168Y012940D02*
X001119Y012892D01*
X001023Y012892D01*
X000974Y012940D01*
X000974Y013134D01*
X001023Y013182D01*
X001119Y013182D01*
X001168Y013134D01*
X000703Y010989D02*
X000703Y010795D01*
X000703Y010892D02*
X000412Y010892D01*
X000509Y010795D01*
X000461Y010694D02*
X000557Y010694D01*
X000606Y010646D01*
X000606Y010501D01*
X000606Y010598D02*
X000703Y010694D01*
X000703Y010501D02*
X000412Y010501D01*
X000412Y010646D01*
X000461Y010694D01*
X000650Y009987D02*
X000650Y009794D01*
X000650Y009890D02*
X000360Y009890D01*
X000457Y009794D01*
X000505Y009693D02*
X000408Y009693D01*
X000360Y009644D01*
X000360Y009499D01*
X000650Y009499D01*
X000553Y009499D02*
X000553Y009644D01*
X000505Y009693D01*
X000360Y009398D02*
X000360Y009301D01*
X000360Y009349D02*
X000602Y009349D01*
X000650Y009301D01*
X000650Y009253D01*
X000602Y009204D01*
X001621Y005544D02*
X001621Y005253D01*
X001815Y005253D01*
X001916Y005253D02*
X002110Y005253D01*
X002013Y005398D02*
X001916Y005398D01*
X001916Y005253D02*
X001916Y005544D01*
X002110Y005544D01*
X002211Y005544D02*
X002211Y005253D01*
X002356Y005253D01*
X002404Y005302D01*
X002404Y005495D01*
X002356Y005544D01*
X002211Y005544D01*
X002505Y005495D02*
X002554Y005544D01*
X002650Y005544D01*
X002699Y005495D01*
X002699Y005447D01*
X002505Y005253D01*
X002699Y005253D01*
X003768Y005331D02*
X003768Y005041D01*
X003768Y005138D02*
X003913Y005138D01*
X003962Y005186D01*
X003962Y005283D01*
X003913Y005331D01*
X003768Y005331D01*
X003865Y005138D02*
X003962Y005041D01*
X004063Y005089D02*
X004111Y005041D01*
X004208Y005041D01*
X004256Y005089D01*
X004256Y005138D01*
X004208Y005186D01*
X004063Y005186D01*
X004063Y005089D01*
X004063Y005186D02*
X004160Y005283D01*
X004256Y005331D01*
X004516Y004566D02*
X004661Y004566D01*
X004709Y004518D01*
X004709Y004421D01*
X004661Y004373D01*
X004516Y004373D01*
X004516Y004276D02*
X004516Y004566D01*
X004612Y004373D02*
X004709Y004276D01*
X004810Y004276D02*
X004810Y004324D01*
X005004Y004518D01*
X005004Y004566D01*
X004810Y004566D01*
X005212Y005327D02*
X005260Y005375D01*
X005260Y005424D01*
X005212Y005472D01*
X004970Y005472D01*
X004970Y005424D02*
X004970Y005520D01*
X004970Y005622D02*
X004970Y005767D01*
X005018Y005815D01*
X005115Y005815D01*
X005163Y005767D01*
X005163Y005622D01*
X005260Y005622D02*
X004970Y005622D01*
X005018Y005916D02*
X004970Y005965D01*
X004970Y006061D01*
X005018Y006110D01*
X005067Y006110D01*
X005260Y005916D01*
X005260Y006110D01*
X004267Y009408D02*
X004171Y009408D01*
X004122Y009457D01*
X004219Y009553D02*
X004267Y009553D01*
X004316Y009505D01*
X004316Y009457D01*
X004267Y009408D01*
X004267Y009553D02*
X004316Y009602D01*
X004316Y009650D01*
X004267Y009699D01*
X004171Y009699D01*
X004122Y009650D01*
X004021Y009650D02*
X004021Y009553D01*
X003973Y009505D01*
X003828Y009505D01*
X003828Y009408D02*
X003828Y009699D01*
X003973Y009699D01*
X004021Y009650D01*
X003924Y009505D02*
X004021Y009408D01*
X004564Y009535D02*
X004710Y009535D01*
X004758Y009583D01*
X004758Y009776D01*
X004710Y009825D01*
X004564Y009825D01*
X004564Y009535D01*
X004859Y009535D02*
X005053Y009535D01*
X004956Y009535D02*
X004956Y009825D01*
X004859Y009728D01*
X005487Y009856D02*
X005487Y010001D01*
X005536Y010049D01*
X005632Y010049D01*
X005681Y010001D01*
X005681Y009856D01*
X005681Y009953D02*
X005778Y010049D01*
X005778Y009856D02*
X005487Y009856D01*
X005632Y010150D02*
X005487Y010296D01*
X005778Y010296D01*
X005632Y010344D02*
X005632Y010150D01*
X005635Y011672D02*
X005925Y011672D01*
X005925Y011866D01*
X005925Y011967D02*
X005925Y012160D01*
X005925Y012262D02*
X005925Y012407D01*
X005877Y012455D01*
X005683Y012455D01*
X005635Y012407D01*
X005635Y012262D01*
X005925Y012262D01*
X005780Y012064D02*
X005780Y011967D01*
X005635Y011967D02*
X005925Y011967D01*
X005635Y011967D02*
X005635Y012160D01*
X005732Y012556D02*
X005635Y012653D01*
X005925Y012653D01*
X005925Y012556D02*
X005925Y012750D01*
X005763Y013174D02*
X005472Y013174D01*
X005472Y013319D01*
X005521Y013368D01*
X005617Y013368D01*
X005666Y013319D01*
X005666Y013174D01*
X005666Y013271D02*
X005763Y013368D01*
X005714Y013469D02*
X005763Y013517D01*
X005763Y013614D01*
X005714Y013662D01*
X005617Y013662D01*
X005569Y013614D01*
X005569Y013565D01*
X005617Y013469D01*
X005472Y013469D01*
X005472Y013662D01*
X004639Y011699D02*
X004639Y011408D01*
X004542Y011408D02*
X004736Y011408D01*
X004542Y011602D02*
X004639Y011699D01*
X004441Y011650D02*
X004393Y011699D01*
X004296Y011699D01*
X004248Y011650D01*
X004248Y011457D01*
X004296Y011408D01*
X004393Y011408D01*
X004441Y011457D01*
X001258Y004551D02*
X001306Y004503D01*
X001306Y004454D01*
X001258Y004406D01*
X001161Y004406D01*
X001113Y004454D01*
X001113Y004503D01*
X001161Y004551D01*
X001258Y004551D01*
X001258Y004406D02*
X001306Y004358D01*
X001306Y004309D01*
X001258Y004261D01*
X001161Y004261D01*
X001113Y004309D01*
X001113Y004358D01*
X001161Y004406D01*
X001012Y004406D02*
X000963Y004358D01*
X000818Y004358D01*
X000818Y004261D02*
X000818Y004551D01*
X000963Y004551D01*
X001012Y004503D01*
X001012Y004406D01*
X000915Y004358D02*
X001012Y004261D01*
X001060Y003886D02*
X000915Y003886D01*
X000915Y003596D01*
X000915Y003693D02*
X001060Y003693D01*
X001108Y003741D01*
X001108Y003838D01*
X001060Y003886D01*
X001209Y003838D02*
X001258Y003886D01*
X001354Y003886D01*
X001403Y003838D01*
X001403Y003789D01*
X001354Y003741D01*
X001403Y003693D01*
X001403Y003644D01*
X001354Y003596D01*
X001258Y003596D01*
X001209Y003644D01*
X001306Y003741D02*
X001354Y003741D01*
X000813Y003886D02*
X000717Y003886D01*
X000765Y003886D02*
X000765Y003644D01*
X000717Y003596D01*
X000668Y003596D01*
X000620Y003644D01*
X003165Y001406D02*
X003165Y001164D01*
X003213Y001116D01*
X003310Y001116D01*
X003358Y001164D01*
X003358Y001406D01*
X003460Y001358D02*
X003508Y001406D01*
X003605Y001406D01*
X003653Y001358D01*
X003653Y001309D01*
X003460Y001116D01*
X003653Y001116D01*
D13*
X004282Y001613D02*
X004299Y001614D01*
X004315Y001617D01*
X004330Y001625D01*
X004343Y001635D01*
X004354Y001648D01*
X004361Y001663D01*
X004365Y001680D01*
X004365Y001696D01*
X004361Y001713D01*
X004354Y001728D01*
X004343Y001741D01*
X004330Y001751D01*
X004315Y001759D01*
X004299Y001762D01*
X004282Y001763D01*
X004180Y002848D02*
X003680Y002848D01*
X003430Y003098D01*
X003180Y002848D01*
X002680Y002848D01*
X002430Y003098D01*
X002180Y002848D01*
X001680Y002848D01*
X001430Y003098D01*
X001430Y003598D01*
X001680Y003848D01*
X002180Y003848D01*
X002430Y003598D01*
X002680Y003848D01*
X003180Y003848D01*
X003430Y003598D01*
X003430Y003098D01*
X003430Y003598D02*
X003680Y003848D01*
X004180Y003848D01*
X004430Y003598D01*
X004680Y003848D01*
X005180Y003848D01*
X005430Y003598D01*
X005430Y003098D01*
X005180Y002848D01*
X004680Y002848D01*
X004430Y003098D01*
X004180Y002848D01*
X004430Y003098D02*
X004430Y003598D01*
X005680Y005293D02*
X005430Y005543D01*
X005430Y006043D01*
X005680Y006293D01*
X005430Y006543D01*
X005430Y007043D01*
X005680Y007293D01*
X005430Y007543D01*
X005430Y008043D01*
X005680Y008293D01*
X005430Y008543D01*
X005430Y009043D01*
X005680Y009293D01*
X006180Y009293D01*
X006430Y009043D01*
X006430Y008543D01*
X006180Y008293D01*
X006430Y008043D01*
X006430Y007543D01*
X006180Y007293D01*
X005680Y007293D01*
X005680Y006293D02*
X006180Y006293D01*
X006430Y006043D01*
X006430Y005543D01*
X006180Y005293D01*
X005680Y005293D01*
X006180Y006293D02*
X006430Y006543D01*
X006430Y007043D01*
X006180Y007293D01*
X006180Y008293D02*
X005680Y008293D01*
X004414Y008215D02*
X004414Y008163D01*
X004414Y008219D02*
X004413Y008236D01*
X004408Y008253D01*
X004401Y008268D01*
X004391Y008282D01*
X004379Y008294D01*
X004365Y008304D01*
X004350Y008311D01*
X004333Y008316D01*
X004316Y008317D01*
X002548Y008317D01*
X002544Y008317D02*
X002527Y008316D01*
X002510Y008311D01*
X002495Y008304D01*
X002481Y008294D01*
X002469Y008282D01*
X002459Y008268D01*
X002452Y008253D01*
X002447Y008236D01*
X002446Y008219D01*
X002446Y008215D02*
X002446Y008163D01*
X002446Y007919D02*
X002446Y007667D01*
X002446Y007423D02*
X002446Y007167D01*
X002446Y006923D02*
X002446Y006667D01*
X002446Y006427D02*
X002446Y006376D01*
X002446Y006368D02*
X002447Y006351D01*
X002452Y006334D01*
X002459Y006319D01*
X002469Y006305D01*
X002481Y006293D01*
X002495Y006283D01*
X002510Y006276D01*
X002527Y006271D01*
X002544Y006270D01*
X004316Y006270D01*
X004333Y006271D01*
X004350Y006276D01*
X004365Y006283D01*
X004379Y006293D01*
X004391Y006305D01*
X004401Y006319D01*
X004408Y006334D01*
X004413Y006351D01*
X004414Y006368D01*
X004414Y006364D02*
X004414Y006423D01*
X004414Y006667D02*
X004414Y006919D01*
X004414Y007167D02*
X004414Y007419D01*
X004414Y007667D02*
X004414Y007919D01*
X002430Y003598D02*
X002430Y003098D01*
X001180Y005293D02*
X001430Y005543D01*
X001430Y006043D01*
X001180Y006293D01*
X000680Y006293D01*
X000430Y006043D01*
X000430Y005543D01*
X000680Y005293D01*
X001180Y005293D01*
X001180Y006293D02*
X001430Y006543D01*
X001430Y007043D01*
X001180Y007293D01*
X000680Y007293D01*
X000430Y007543D01*
X000430Y008043D01*
X000680Y008293D01*
X000430Y008543D01*
X000430Y009043D01*
X000680Y009293D01*
X001180Y009293D01*
X001430Y009043D01*
X001430Y008543D01*
X001180Y008293D01*
X001430Y008043D01*
X001430Y007543D01*
X001180Y007293D01*
X001180Y008293D02*
X000680Y008293D01*
X000680Y007293D02*
X000430Y007043D01*
X000430Y006543D01*
X000680Y006293D01*
D14*
X002794Y007852D02*
X002796Y007879D01*
X002802Y007906D01*
X002811Y007932D01*
X002824Y007956D01*
X002840Y007979D01*
X002859Y007998D01*
X002881Y008015D01*
X002905Y008029D01*
X002930Y008039D01*
X002957Y008046D01*
X002984Y008049D01*
X003012Y008048D01*
X003039Y008043D01*
X003065Y008035D01*
X003089Y008023D01*
X003112Y008007D01*
X003133Y007989D01*
X003150Y007968D01*
X003165Y007944D01*
X003176Y007919D01*
X003184Y007893D01*
X003188Y007866D01*
X003188Y007838D01*
X003184Y007811D01*
X003176Y007785D01*
X003165Y007760D01*
X003150Y007736D01*
X003133Y007715D01*
X003112Y007697D01*
X003090Y007681D01*
X003065Y007669D01*
X003039Y007661D01*
X003012Y007656D01*
X002984Y007655D01*
X002957Y007658D01*
X002930Y007665D01*
X002905Y007675D01*
X002881Y007689D01*
X002859Y007706D01*
X002840Y007725D01*
X002824Y007748D01*
X002811Y007772D01*
X002802Y007798D01*
X002796Y007825D01*
X002794Y007852D01*
D15*
X002131Y005793D03*
X006180Y012369D03*
D16*
X004970Y012797D02*
X004970Y013860D01*
X004970Y015434D02*
X001900Y015434D01*
X001900Y013860D02*
X001900Y012797D01*
X001900Y011812D02*
X004970Y011812D01*
X004695Y011812D02*
X004262Y011812D01*
X002608Y011812D02*
X002175Y011812D01*
M02*
