%
M48
M72
T01C0.0236
T02C0.0394
T03C0.0400
%
T01
X2490Y5298
X3468Y5103
X2180Y8418
X2055Y10418
X3083Y10316
X3430Y9168
X3780Y10721
X5305Y9543
X5555Y10668
X5670Y11461
X6180Y11543
X5715Y4486
T02
X4301Y13230
X2569Y13230
T03
X1930Y3348
X2930Y3348
X3930Y3348
X4930Y3348
X5930Y5793
X5930Y6793
X5930Y7793
X5930Y8793
X930Y8793
X930Y7793
X930Y6793
X930Y5793
M30
