G75*
%MOIN*%
%OFA0B0*%
%FSLAX24Y24*%
%IPPOS*%
%LPD*%
%AMOC8*
5,1,8,0,0,1.08239X$1,22.5*
%
%ADD10C,0.0000*%
%ADD11C,0.0030*%
%ADD12C,0.0060*%
%ADD13C,0.0020*%
%ADD14R,0.0098X0.0098*%
%ADD15C,0.0050*%
D10*
X000743Y001523D02*
X001318Y002198D01*
X001055Y003348D02*
X000180Y003348D01*
X000180Y014094D01*
X006675Y014094D01*
X006675Y003348D01*
X006680Y003348D02*
X005805Y003348D01*
X005555Y002223D02*
X006118Y001523D01*
X005218Y000636D02*
X004568Y001198D01*
X004143Y001023D02*
X004055Y000161D01*
X002805Y000161D02*
X002743Y001011D01*
X002293Y001198D02*
X001655Y000623D01*
X005555Y002224D02*
X005594Y002304D01*
X005629Y002387D01*
X005661Y002470D01*
X005691Y002555D01*
X005717Y002641D01*
X005739Y002727D01*
X005759Y002815D01*
X005775Y002903D01*
X005788Y002991D01*
X005797Y003080D01*
X005803Y003170D01*
X005806Y003259D01*
X005805Y003349D01*
X001318Y002198D02*
X001276Y002288D01*
X001238Y002380D01*
X001203Y002472D01*
X001172Y002567D01*
X001144Y002662D01*
X001120Y002758D01*
X001100Y002855D01*
X001083Y002953D01*
X001071Y003051D01*
X001062Y003150D01*
X001056Y003249D01*
X001055Y003348D01*
X003430Y003348D02*
X003430Y003336D01*
X002805Y000161D02*
X002908Y000142D01*
X003012Y000127D01*
X003116Y000115D01*
X003221Y000107D01*
X003325Y000102D01*
X003430Y000100D01*
X003535Y000102D01*
X003639Y000107D01*
X003744Y000115D01*
X003848Y000127D01*
X003952Y000142D01*
X004055Y000161D01*
X004143Y001023D02*
X004231Y001052D01*
X004317Y001083D01*
X004402Y001118D01*
X004486Y001157D01*
X004568Y001198D01*
X001655Y000623D02*
X001566Y000683D01*
X001480Y000747D01*
X001395Y000813D01*
X001312Y000882D01*
X001232Y000953D01*
X001154Y001028D01*
X001079Y001104D01*
X001006Y001183D01*
X000936Y001265D01*
X000869Y001349D01*
X000804Y001435D01*
X000743Y001523D01*
X005217Y000636D02*
X005305Y000695D01*
X005390Y000758D01*
X005474Y000823D01*
X005555Y000891D01*
X005634Y000962D01*
X005711Y001035D01*
X005785Y001111D01*
X005857Y001189D01*
X005926Y001269D01*
X005992Y001352D01*
X006056Y001436D01*
X006117Y001523D01*
X002742Y001011D02*
X002649Y001041D01*
X002558Y001075D01*
X002468Y001112D01*
X002379Y001153D01*
X002292Y001198D01*
X002372Y012285D02*
X002374Y012312D01*
X002380Y012339D01*
X002389Y012365D01*
X002402Y012389D01*
X002418Y012412D01*
X002437Y012431D01*
X002459Y012448D01*
X002483Y012462D01*
X002508Y012472D01*
X002535Y012479D01*
X002562Y012482D01*
X002590Y012481D01*
X002617Y012476D01*
X002643Y012468D01*
X002667Y012456D01*
X002690Y012440D01*
X002711Y012422D01*
X002728Y012401D01*
X002743Y012377D01*
X002754Y012352D01*
X002762Y012326D01*
X002766Y012299D01*
X002766Y012271D01*
X002762Y012244D01*
X002754Y012218D01*
X002743Y012193D01*
X002728Y012169D01*
X002711Y012148D01*
X002690Y012130D01*
X002668Y012114D01*
X002643Y012102D01*
X002617Y012094D01*
X002590Y012089D01*
X002562Y012088D01*
X002535Y012091D01*
X002508Y012098D01*
X002483Y012108D01*
X002459Y012122D01*
X002437Y012139D01*
X002418Y012158D01*
X002402Y012181D01*
X002389Y012205D01*
X002380Y012231D01*
X002374Y012258D01*
X002372Y012285D01*
X004104Y012285D02*
X004106Y012312D01*
X004112Y012339D01*
X004121Y012365D01*
X004134Y012389D01*
X004150Y012412D01*
X004169Y012431D01*
X004191Y012448D01*
X004215Y012462D01*
X004240Y012472D01*
X004267Y012479D01*
X004294Y012482D01*
X004322Y012481D01*
X004349Y012476D01*
X004375Y012468D01*
X004399Y012456D01*
X004422Y012440D01*
X004443Y012422D01*
X004460Y012401D01*
X004475Y012377D01*
X004486Y012352D01*
X004494Y012326D01*
X004498Y012299D01*
X004498Y012271D01*
X004494Y012244D01*
X004486Y012218D01*
X004475Y012193D01*
X004460Y012169D01*
X004443Y012148D01*
X004422Y012130D01*
X004400Y012114D01*
X004375Y012102D01*
X004349Y012094D01*
X004322Y012089D01*
X004294Y012088D01*
X004267Y012091D01*
X004240Y012098D01*
X004215Y012108D01*
X004191Y012122D01*
X004169Y012139D01*
X004150Y012158D01*
X004134Y012181D01*
X004121Y012205D01*
X004112Y012231D01*
X004106Y012258D01*
X004104Y012285D01*
D11*
X004296Y010754D02*
X004248Y010705D01*
X004248Y010512D01*
X004296Y010463D01*
X004393Y010463D01*
X004441Y010512D01*
X004542Y010463D02*
X004736Y010463D01*
X004639Y010463D02*
X004639Y010754D01*
X004542Y010657D01*
X004441Y010705D02*
X004393Y010754D01*
X004296Y010754D01*
X004564Y008880D02*
X004710Y008880D01*
X004758Y008831D01*
X004758Y008638D01*
X004710Y008590D01*
X004564Y008590D01*
X004564Y008880D01*
X004316Y008705D02*
X004316Y008657D01*
X004267Y008608D01*
X004316Y008560D01*
X004316Y008512D01*
X004267Y008463D01*
X004171Y008463D01*
X004122Y008512D01*
X004219Y008608D02*
X004267Y008608D01*
X004316Y008705D02*
X004267Y008754D01*
X004171Y008754D01*
X004122Y008705D01*
X004021Y008705D02*
X004021Y008608D01*
X003973Y008560D01*
X003828Y008560D01*
X003828Y008463D02*
X003828Y008754D01*
X003973Y008754D01*
X004021Y008705D01*
X003924Y008560D02*
X004021Y008463D01*
X003678Y007666D02*
X003678Y007376D01*
X003581Y007376D02*
X003775Y007376D01*
X003581Y007569D02*
X003678Y007666D01*
X003480Y007618D02*
X003432Y007666D01*
X003335Y007666D01*
X003286Y007618D01*
X003286Y007424D01*
X003335Y007376D01*
X003432Y007376D01*
X003480Y007424D01*
X003187Y007376D02*
X003090Y007376D01*
X003138Y007376D02*
X003138Y007666D01*
X003090Y007666D02*
X003187Y007666D01*
X002594Y007535D02*
X002545Y007584D01*
X002449Y007584D01*
X002400Y007535D01*
X002299Y007535D02*
X002299Y007438D01*
X002251Y007390D01*
X002106Y007390D01*
X002106Y007293D02*
X002106Y007584D01*
X002251Y007584D01*
X002299Y007535D01*
X002202Y007390D02*
X002299Y007293D01*
X002400Y007293D02*
X002594Y007487D01*
X002594Y007535D01*
X002594Y007293D02*
X002400Y007293D01*
X002322Y009205D02*
X002467Y009205D01*
X002515Y009253D01*
X002515Y009446D01*
X002467Y009495D01*
X002322Y009495D01*
X002322Y009205D01*
X002617Y009205D02*
X002810Y009398D01*
X002810Y009446D01*
X002762Y009495D01*
X002665Y009495D01*
X002617Y009446D01*
X002617Y009205D02*
X002810Y009205D01*
X002606Y010463D02*
X002412Y010463D01*
X002606Y010657D01*
X002606Y010705D01*
X002557Y010754D01*
X002461Y010754D01*
X002412Y010705D01*
X002311Y010705D02*
X002263Y010754D01*
X002166Y010754D01*
X002118Y010705D01*
X002118Y010512D01*
X002166Y010463D01*
X002263Y010463D01*
X002311Y010512D01*
X001757Y011947D02*
X001563Y011947D01*
X001462Y011947D02*
X001462Y012237D01*
X001563Y012141D02*
X001660Y012237D01*
X001660Y011947D01*
X001462Y011947D02*
X001269Y012237D01*
X001269Y011947D01*
X001168Y011995D02*
X001119Y011947D01*
X001023Y011947D01*
X000974Y011995D01*
X000974Y012189D01*
X001023Y012237D01*
X001119Y012237D01*
X001168Y012189D01*
X000703Y010044D02*
X000703Y009850D01*
X000703Y009947D02*
X000412Y009947D01*
X000509Y009850D01*
X000461Y009749D02*
X000557Y009749D01*
X000606Y009701D01*
X000606Y009556D01*
X000606Y009653D02*
X000703Y009749D01*
X000703Y009556D02*
X000412Y009556D01*
X000412Y009701D01*
X000461Y009749D01*
X000650Y009042D02*
X000650Y008849D01*
X000650Y008945D02*
X000360Y008945D01*
X000457Y008849D01*
X000505Y008748D02*
X000408Y008748D01*
X000360Y008699D01*
X000360Y008554D01*
X000650Y008554D01*
X000553Y008554D02*
X000553Y008699D01*
X000505Y008748D01*
X000360Y008453D02*
X000360Y008356D01*
X000360Y008404D02*
X000602Y008404D01*
X000650Y008356D01*
X000650Y008308D01*
X000602Y008259D01*
X001621Y004599D02*
X001621Y004308D01*
X001815Y004308D01*
X001916Y004308D02*
X002110Y004308D01*
X002013Y004453D02*
X001916Y004453D01*
X001916Y004308D02*
X001916Y004599D01*
X002110Y004599D01*
X002211Y004599D02*
X002211Y004308D01*
X002356Y004308D01*
X002404Y004357D01*
X002404Y004550D01*
X002356Y004599D01*
X002211Y004599D01*
X002505Y004550D02*
X002554Y004599D01*
X002650Y004599D01*
X002699Y004550D01*
X002699Y004502D01*
X002505Y004308D01*
X002699Y004308D01*
X003768Y004386D02*
X003768Y004096D01*
X003768Y004193D02*
X003913Y004193D01*
X003962Y004241D01*
X003962Y004338D01*
X003913Y004386D01*
X003768Y004386D01*
X003865Y004193D02*
X003962Y004096D01*
X004063Y004144D02*
X004111Y004096D01*
X004208Y004096D01*
X004256Y004144D01*
X004256Y004193D01*
X004208Y004241D01*
X004063Y004241D01*
X004063Y004144D01*
X004063Y004241D02*
X004160Y004338D01*
X004256Y004386D01*
X004970Y004479D02*
X004970Y004575D01*
X004970Y004527D02*
X005212Y004527D01*
X005260Y004479D01*
X005260Y004430D01*
X005212Y004382D01*
X005260Y004677D02*
X004970Y004677D01*
X004970Y004822D01*
X005018Y004870D01*
X005115Y004870D01*
X005163Y004822D01*
X005163Y004677D01*
X005260Y004971D02*
X005067Y005165D01*
X005018Y005165D01*
X004970Y005116D01*
X004970Y005020D01*
X005018Y004971D01*
X005260Y004971D02*
X005260Y005165D01*
X005053Y008590D02*
X004859Y008590D01*
X004956Y008590D02*
X004956Y008880D01*
X004859Y008783D01*
X005487Y008911D02*
X005487Y009056D01*
X005536Y009104D01*
X005632Y009104D01*
X005681Y009056D01*
X005681Y008911D01*
X005681Y009008D02*
X005778Y009104D01*
X005778Y009351D02*
X005487Y009351D01*
X005632Y009205D01*
X005632Y009399D01*
X005778Y008911D02*
X005487Y008911D01*
X005635Y010727D02*
X005925Y010727D01*
X005925Y010921D01*
X005925Y011022D02*
X005925Y011215D01*
X005925Y011317D02*
X005925Y011462D01*
X005877Y011510D01*
X005683Y011510D01*
X005635Y011462D01*
X005635Y011317D01*
X005925Y011317D01*
X005780Y011119D02*
X005780Y011022D01*
X005635Y011022D02*
X005925Y011022D01*
X005635Y011022D02*
X005635Y011215D01*
X005732Y011611D02*
X005635Y011708D01*
X005925Y011708D01*
X005925Y011611D02*
X005925Y011805D01*
X005763Y012229D02*
X005472Y012229D01*
X005472Y012374D01*
X005521Y012423D01*
X005617Y012423D01*
X005666Y012374D01*
X005666Y012229D01*
X005666Y012326D02*
X005763Y012423D01*
X005714Y012524D02*
X005763Y012572D01*
X005763Y012669D01*
X005714Y012717D01*
X005617Y012717D01*
X005569Y012669D01*
X005569Y012620D01*
X005617Y012524D01*
X005472Y012524D01*
X005472Y012717D01*
X001354Y003886D02*
X001258Y003886D01*
X001209Y003838D01*
X001108Y003838D02*
X001108Y003741D01*
X001060Y003693D01*
X000915Y003693D01*
X000915Y003596D02*
X000915Y003886D01*
X001060Y003886D01*
X001108Y003838D01*
X001209Y003644D02*
X001258Y003596D01*
X001354Y003596D01*
X001403Y003644D01*
X001403Y003693D01*
X001354Y003741D01*
X001306Y003741D01*
X001354Y003741D02*
X001403Y003789D01*
X001403Y003838D01*
X001354Y003886D01*
X000813Y003886D02*
X000717Y003886D01*
X000765Y003886D02*
X000765Y003644D01*
X000717Y003596D01*
X000668Y003596D01*
X000620Y003644D01*
X003188Y001301D02*
X003188Y001059D01*
X003236Y001011D01*
X003333Y001011D01*
X003381Y001059D01*
X003381Y001301D01*
X003482Y001253D02*
X003531Y001301D01*
X003627Y001301D01*
X003676Y001253D01*
X003676Y001204D01*
X003482Y001011D01*
X003676Y001011D01*
D12*
X003680Y002848D02*
X003430Y003098D01*
X003180Y002848D01*
X002680Y002848D01*
X002430Y003098D01*
X002180Y002848D01*
X001680Y002848D01*
X001430Y003098D01*
X001430Y003598D01*
X001680Y003848D01*
X002180Y003848D01*
X002430Y003598D01*
X002680Y003848D01*
X003180Y003848D01*
X003430Y003598D01*
X003430Y003098D01*
X003680Y002848D02*
X004180Y002848D01*
X004430Y003098D01*
X004680Y002848D01*
X005180Y002848D01*
X005430Y003098D01*
X005430Y003598D01*
X005180Y003848D01*
X004680Y003848D01*
X004430Y003598D01*
X004430Y003098D01*
X004430Y003598D02*
X004180Y003848D01*
X003680Y003848D01*
X003430Y003598D01*
X002544Y005325D02*
X004316Y005325D01*
X004333Y005326D01*
X004350Y005331D01*
X004365Y005338D01*
X004379Y005348D01*
X004391Y005360D01*
X004401Y005374D01*
X004408Y005389D01*
X004413Y005406D01*
X004414Y005423D01*
X004414Y005419D02*
X004414Y005478D01*
X004414Y005722D02*
X004414Y005974D01*
X004414Y006222D02*
X004414Y006474D01*
X004414Y006722D02*
X004414Y006974D01*
X004414Y007218D02*
X004414Y007270D01*
X004414Y007274D02*
X004413Y007291D01*
X004408Y007308D01*
X004401Y007323D01*
X004391Y007337D01*
X004379Y007349D01*
X004365Y007359D01*
X004350Y007366D01*
X004333Y007371D01*
X004316Y007372D01*
X002548Y007372D01*
X002544Y007372D02*
X002527Y007371D01*
X002510Y007366D01*
X002495Y007359D01*
X002481Y007349D01*
X002469Y007337D01*
X002459Y007323D01*
X002452Y007308D01*
X002447Y007291D01*
X002446Y007274D01*
X002446Y007270D02*
X002446Y007218D01*
X002446Y006974D02*
X002446Y006722D01*
X002446Y006478D02*
X002446Y006222D01*
X002446Y005978D02*
X002446Y005722D01*
X002446Y005482D02*
X002446Y005431D01*
X002446Y005423D02*
X002447Y005406D01*
X002452Y005389D01*
X002459Y005374D01*
X002469Y005360D01*
X002481Y005348D01*
X002495Y005338D01*
X002510Y005331D01*
X002527Y005326D01*
X002544Y005325D01*
X002430Y003598D02*
X002430Y003098D01*
X002595Y002316D02*
X002578Y002315D01*
X002562Y002312D01*
X002547Y002304D01*
X002534Y002294D01*
X002523Y002281D01*
X002516Y002266D01*
X002512Y002249D01*
X002512Y002233D01*
X002516Y002216D01*
X002523Y002201D01*
X002534Y002188D01*
X002547Y002178D01*
X002562Y002170D01*
X002578Y002167D01*
X002595Y002166D01*
X001180Y004348D02*
X001430Y004598D01*
X001430Y005098D01*
X001180Y005348D01*
X000680Y005348D01*
X000430Y005098D01*
X000430Y004598D01*
X000680Y004348D01*
X001180Y004348D01*
X001180Y005348D02*
X001430Y005598D01*
X001430Y006098D01*
X001180Y006348D01*
X000680Y006348D01*
X000430Y006598D01*
X000430Y007098D01*
X000680Y007348D01*
X000430Y007598D01*
X000430Y008098D01*
X000680Y008348D01*
X001180Y008348D01*
X001430Y008098D01*
X001430Y007598D01*
X001180Y007348D01*
X001430Y007098D01*
X001430Y006598D01*
X001180Y006348D01*
X001180Y007348D02*
X000680Y007348D01*
X000680Y006348D02*
X000430Y006098D01*
X000430Y005598D01*
X000680Y005348D01*
X005430Y005098D02*
X005430Y004598D01*
X005680Y004348D01*
X006180Y004348D01*
X006430Y004598D01*
X006430Y005098D01*
X006180Y005348D01*
X005680Y005348D01*
X005430Y005098D01*
X005680Y005348D02*
X005430Y005598D01*
X005430Y006098D01*
X005680Y006348D01*
X005430Y006598D01*
X005430Y007098D01*
X005680Y007348D01*
X005430Y007598D01*
X005430Y008098D01*
X005680Y008348D01*
X006180Y008348D01*
X006430Y008098D01*
X006430Y007598D01*
X006180Y007348D01*
X006430Y007098D01*
X006430Y006598D01*
X006180Y006348D01*
X005680Y006348D01*
X005680Y007348D02*
X006180Y007348D01*
X006180Y006348D02*
X006430Y006098D01*
X006430Y005598D01*
X006180Y005348D01*
D13*
X002794Y006907D02*
X002796Y006934D01*
X002802Y006961D01*
X002811Y006987D01*
X002824Y007011D01*
X002840Y007034D01*
X002859Y007053D01*
X002881Y007070D01*
X002905Y007084D01*
X002930Y007094D01*
X002957Y007101D01*
X002984Y007104D01*
X003012Y007103D01*
X003039Y007098D01*
X003065Y007090D01*
X003089Y007078D01*
X003112Y007062D01*
X003133Y007044D01*
X003150Y007023D01*
X003165Y006999D01*
X003176Y006974D01*
X003184Y006948D01*
X003188Y006921D01*
X003188Y006893D01*
X003184Y006866D01*
X003176Y006840D01*
X003165Y006815D01*
X003150Y006791D01*
X003133Y006770D01*
X003112Y006752D01*
X003090Y006736D01*
X003065Y006724D01*
X003039Y006716D01*
X003012Y006711D01*
X002984Y006710D01*
X002957Y006713D01*
X002930Y006720D01*
X002905Y006730D01*
X002881Y006744D01*
X002859Y006761D01*
X002840Y006780D01*
X002824Y006803D01*
X002811Y006827D01*
X002802Y006853D01*
X002796Y006880D01*
X002794Y006907D01*
D14*
X002131Y004848D03*
X006180Y011424D03*
D15*
X004970Y011852D02*
X004970Y012915D01*
X004970Y014489D02*
X001900Y014489D01*
X001900Y012915D02*
X001900Y011852D01*
X001900Y010867D02*
X004970Y010867D01*
X004695Y010867D02*
X004262Y010867D01*
X002608Y010867D02*
X002175Y010867D01*
M02*
