G75*
%MOIN*%
%OFA0B0*%
%FSLAX24Y24*%
%IPPOS*%
%LPD*%
%AMOC8*
5,1,8,0,0,1.08239X$1,22.5*
%
%ADD10C,0.0000*%
%ADD11C,0.0060*%
%ADD12R,0.0008X0.0045*%
%ADD13R,0.0008X0.0037*%
%ADD14R,0.0008X0.0060*%
%ADD15R,0.0008X0.0067*%
%ADD16R,0.0008X0.0090*%
%ADD17R,0.0008X0.0083*%
%ADD18R,0.0008X0.0098*%
%ADD19R,0.0008X0.0517*%
%ADD20R,0.0008X0.0105*%
%ADD21R,0.0008X0.0113*%
%ADD22R,0.0008X0.0120*%
%ADD23R,0.0008X0.0165*%
%ADD24R,0.0008X0.0270*%
%ADD25R,0.0008X0.0345*%
%ADD26R,0.0008X0.0398*%
%ADD27R,0.0008X0.0233*%
%ADD28R,0.0008X0.0210*%
%ADD29R,0.0008X0.0915*%
%ADD30R,0.0008X0.0022*%
%ADD31R,0.0008X0.0450*%
%ADD32R,0.0008X0.0248*%
%ADD33R,0.0008X0.0240*%
%ADD34R,0.0008X0.0922*%
%ADD35R,0.0008X0.0488*%
%ADD36R,0.0008X0.0300*%
%ADD37R,0.0008X0.0525*%
%ADD38R,0.0008X0.0382*%
%ADD39R,0.0008X0.0563*%
%ADD40R,0.0008X0.0435*%
%ADD41R,0.0008X0.0592*%
%ADD42R,0.0008X0.0495*%
%ADD43R,0.0008X0.0623*%
%ADD44R,0.0008X0.0638*%
%ADD45R,0.0008X0.0668*%
%ADD46R,0.0008X0.0690*%
%ADD47R,0.0008X0.0705*%
%ADD48R,0.0008X0.0510*%
%ADD49R,0.0008X0.0712*%
%ADD50R,0.0008X0.0720*%
%ADD51R,0.0008X0.0727*%
%ADD52R,0.0008X0.0735*%
%ADD53R,0.0008X0.0742*%
%ADD54R,0.0008X0.0750*%
%ADD55R,0.0008X0.0480*%
%ADD56R,0.0008X0.0757*%
%ADD57R,0.0008X0.0765*%
%ADD58R,0.0008X0.0225*%
%ADD59R,0.0008X0.0352*%
%ADD60R,0.0008X0.0278*%
%ADD61R,0.0008X0.0473*%
%ADD62R,0.0008X0.0323*%
%ADD63R,0.0008X0.0465*%
%ADD64R,0.0008X0.0308*%
%ADD65R,0.0008X0.0293*%
%ADD66R,0.0008X0.0180*%
%ADD67R,0.0008X0.0158*%
%ADD68R,0.0008X0.0127*%
%ADD69R,0.0008X0.0262*%
%ADD70R,0.0008X0.0255*%
%ADD71R,0.0008X0.0075*%
%ADD72R,0.0008X0.0030*%
%ADD73R,0.0008X0.0015*%
%ADD74R,0.0008X0.0217*%
%ADD75R,0.0008X0.0428*%
%ADD76R,0.0008X0.0150*%
%ADD77R,0.0008X0.0143*%
%ADD78R,0.0008X0.0420*%
%ADD79R,0.0008X0.1020*%
%ADD80R,0.0008X0.0135*%
%ADD81R,0.0008X0.0285*%
%ADD82R,0.0008X0.1013*%
%ADD83R,0.0008X0.1005*%
%ADD84R,0.0008X0.0998*%
%ADD85R,0.0008X0.0990*%
%ADD86R,0.0008X0.0983*%
%ADD87R,0.0008X0.0975*%
%ADD88R,0.0008X0.0315*%
%ADD89R,0.0008X0.0960*%
%ADD90R,0.0008X0.0953*%
%ADD91R,0.0008X0.0053*%
%ADD92R,0.0008X0.0945*%
%ADD93R,0.0008X0.0930*%
%ADD94R,0.0008X0.0330*%
%ADD95R,0.0008X0.0008*%
%ADD96R,0.0008X0.0338*%
%ADD97R,0.0008X0.0907*%
%ADD98R,0.0008X0.0360*%
%ADD99R,0.0008X0.0532*%
%ADD100R,0.0008X0.0578*%
%ADD101R,0.0008X0.0600*%
%ADD102R,0.0008X0.0607*%
%ADD103R,0.0008X0.0203*%
%ADD104R,0.0008X0.0653*%
%ADD105R,0.0008X0.0683*%
%ADD106R,0.0008X0.0660*%
%ADD107R,0.0008X0.0375*%
%ADD108R,0.0008X0.0548*%
%ADD109R,0.0008X0.0390*%
%ADD110R,0.0008X0.0645*%
%ADD111R,0.0008X0.0413*%
%ADD112R,0.0008X0.0457*%
%ADD113R,0.0008X0.0442*%
%ADD114R,0.0008X0.0772*%
%ADD115R,0.0008X0.0780*%
%ADD116R,0.0008X0.0195*%
%ADD117R,0.0008X0.0788*%
%ADD118R,0.0008X0.0795*%
%ADD119R,0.0008X0.0187*%
%ADD120R,0.0008X0.0810*%
%ADD121R,0.0008X0.0173*%
%ADD122R,0.0008X0.0818*%
%ADD123R,0.0008X0.0825*%
%ADD124R,0.0008X0.0833*%
%ADD125R,0.0008X0.0840*%
%ADD126R,0.0008X0.0848*%
%ADD127R,0.0008X0.0405*%
%ADD128R,0.0008X0.0367*%
%ADD129R,0.0008X0.0885*%
%ADD130R,0.0008X0.0877*%
%ADD131R,0.0008X0.0870*%
%ADD132R,0.0008X0.0698*%
%ADD133R,0.0008X0.0862*%
%ADD134R,0.0008X0.0855*%
%ADD135R,0.0008X0.0675*%
%ADD136R,0.0008X0.0630*%
%ADD137R,0.0008X0.0615*%
%ADD138R,0.0008X0.0570*%
%ADD139R,0.0008X0.0540*%
D10*
X000743Y001523D02*
X001318Y002198D01*
X001055Y003348D02*
X000180Y003348D01*
X000180Y015039D01*
X006675Y015039D01*
X006675Y003348D01*
X006680Y003348D02*
X005805Y003348D01*
X005555Y002223D02*
X006118Y001523D01*
X005218Y000636D02*
X004568Y001198D01*
X004143Y001023D02*
X004055Y000161D01*
X002805Y000161D02*
X002743Y001011D01*
X002293Y001198D02*
X001655Y000623D01*
X005555Y002224D02*
X005594Y002304D01*
X005629Y002387D01*
X005661Y002470D01*
X005691Y002555D01*
X005717Y002641D01*
X005739Y002727D01*
X005759Y002815D01*
X005775Y002903D01*
X005788Y002991D01*
X005797Y003080D01*
X005803Y003170D01*
X005806Y003259D01*
X005805Y003349D01*
X001318Y002198D02*
X001276Y002288D01*
X001238Y002380D01*
X001203Y002472D01*
X001172Y002567D01*
X001144Y002662D01*
X001120Y002758D01*
X001100Y002855D01*
X001083Y002953D01*
X001071Y003051D01*
X001062Y003150D01*
X001056Y003249D01*
X001055Y003348D01*
X003430Y003348D02*
X003430Y003336D01*
X002805Y000161D02*
X002908Y000142D01*
X003012Y000127D01*
X003116Y000115D01*
X003221Y000107D01*
X003325Y000102D01*
X003430Y000100D01*
X003535Y000102D01*
X003639Y000107D01*
X003744Y000115D01*
X003848Y000127D01*
X003952Y000142D01*
X004055Y000161D01*
X004143Y001023D02*
X004231Y001052D01*
X004317Y001083D01*
X004402Y001118D01*
X004486Y001157D01*
X004568Y001198D01*
X001655Y000623D02*
X001566Y000683D01*
X001480Y000747D01*
X001395Y000813D01*
X001312Y000882D01*
X001232Y000953D01*
X001154Y001028D01*
X001079Y001104D01*
X001006Y001183D01*
X000936Y001265D01*
X000869Y001349D01*
X000804Y001435D01*
X000743Y001523D01*
X005217Y000636D02*
X005305Y000695D01*
X005390Y000758D01*
X005474Y000823D01*
X005555Y000891D01*
X005634Y000962D01*
X005711Y001035D01*
X005785Y001111D01*
X005857Y001189D01*
X005926Y001269D01*
X005992Y001352D01*
X006056Y001436D01*
X006117Y001523D01*
X002742Y001011D02*
X002649Y001041D01*
X002558Y001075D01*
X002468Y001112D01*
X002379Y001153D01*
X002292Y001198D01*
X002372Y013230D02*
X002374Y013257D01*
X002380Y013284D01*
X002389Y013310D01*
X002402Y013334D01*
X002418Y013357D01*
X002437Y013376D01*
X002459Y013393D01*
X002483Y013407D01*
X002508Y013417D01*
X002535Y013424D01*
X002562Y013427D01*
X002590Y013426D01*
X002617Y013421D01*
X002643Y013413D01*
X002667Y013401D01*
X002690Y013385D01*
X002711Y013367D01*
X002728Y013346D01*
X002743Y013322D01*
X002754Y013297D01*
X002762Y013271D01*
X002766Y013244D01*
X002766Y013216D01*
X002762Y013189D01*
X002754Y013163D01*
X002743Y013138D01*
X002728Y013114D01*
X002711Y013093D01*
X002690Y013075D01*
X002668Y013059D01*
X002643Y013047D01*
X002617Y013039D01*
X002590Y013034D01*
X002562Y013033D01*
X002535Y013036D01*
X002508Y013043D01*
X002483Y013053D01*
X002459Y013067D01*
X002437Y013084D01*
X002418Y013103D01*
X002402Y013126D01*
X002389Y013150D01*
X002380Y013176D01*
X002374Y013203D01*
X002372Y013230D01*
X004104Y013230D02*
X004106Y013257D01*
X004112Y013284D01*
X004121Y013310D01*
X004134Y013334D01*
X004150Y013357D01*
X004169Y013376D01*
X004191Y013393D01*
X004215Y013407D01*
X004240Y013417D01*
X004267Y013424D01*
X004294Y013427D01*
X004322Y013426D01*
X004349Y013421D01*
X004375Y013413D01*
X004399Y013401D01*
X004422Y013385D01*
X004443Y013367D01*
X004460Y013346D01*
X004475Y013322D01*
X004486Y013297D01*
X004494Y013271D01*
X004498Y013244D01*
X004498Y013216D01*
X004494Y013189D01*
X004486Y013163D01*
X004475Y013138D01*
X004460Y013114D01*
X004443Y013093D01*
X004422Y013075D01*
X004400Y013059D01*
X004375Y013047D01*
X004349Y013039D01*
X004322Y013034D01*
X004294Y013033D01*
X004267Y013036D01*
X004240Y013043D01*
X004215Y013053D01*
X004191Y013067D01*
X004169Y013084D01*
X004150Y013103D01*
X004134Y013126D01*
X004121Y013150D01*
X004112Y013176D01*
X004106Y013203D01*
X004104Y013230D01*
D11*
X000812Y014611D02*
X000768Y014567D01*
X000552Y014567D01*
X000552Y014697D01*
X000595Y014741D01*
X000682Y014741D01*
X000725Y014697D01*
X000725Y014567D01*
X000812Y014611D02*
X000812Y014654D01*
X000725Y014446D02*
X000725Y014273D01*
X000725Y014152D02*
X000552Y014152D01*
X000465Y014065D01*
X000552Y013978D01*
X000725Y013978D01*
X000725Y013857D02*
X000465Y013857D01*
X000465Y013727D01*
X000508Y013683D01*
X000595Y013683D01*
X000638Y013727D01*
X000638Y013857D01*
X000638Y013770D02*
X000725Y013683D01*
X000682Y013562D02*
X000725Y013519D01*
X000725Y013432D01*
X000682Y013389D01*
X000638Y013389D01*
X000595Y013432D01*
X000595Y013519D01*
X000552Y013562D01*
X000508Y013562D01*
X000465Y013519D01*
X000465Y013432D01*
X000508Y013389D01*
X000552Y012973D02*
X000725Y012886D01*
X000552Y012799D01*
X000552Y012678D02*
X000465Y012592D01*
X000725Y012592D01*
X000725Y012678D02*
X000725Y012505D01*
X000725Y012384D02*
X000682Y012384D01*
X000682Y012340D01*
X000725Y012340D01*
X000725Y012384D01*
X000682Y012236D02*
X000508Y012063D01*
X000682Y012063D01*
X000725Y012106D01*
X000725Y012193D01*
X000682Y012236D01*
X000508Y012236D01*
X000465Y012193D01*
X000465Y012106D01*
X000508Y012063D01*
X000595Y013978D02*
X000595Y014152D01*
X000465Y014273D02*
X000465Y014446D01*
X000725Y014446D01*
X000595Y014446D02*
X000595Y014359D01*
D12*
X002378Y009607D03*
X002115Y008085D03*
X002100Y008077D03*
X002093Y008070D03*
X002085Y008062D03*
X002078Y008062D03*
X002070Y008055D03*
X002063Y008047D03*
X002048Y008040D03*
X002040Y008032D03*
X002033Y008025D03*
X002018Y008017D03*
X002010Y008010D03*
X001995Y008002D03*
X001988Y007995D03*
X001980Y007987D03*
X001965Y007980D03*
X001958Y007972D03*
X002055Y007800D03*
X002063Y007800D03*
X002070Y007807D03*
X002078Y007815D03*
X002085Y007815D03*
X002093Y007822D03*
X002100Y007830D03*
X002108Y007830D03*
X002115Y007837D03*
X002123Y007845D03*
X002130Y007845D03*
X002138Y007852D03*
X002153Y007860D03*
X002160Y007867D03*
X002168Y007867D03*
X002175Y007875D03*
X002183Y007882D03*
X002190Y007882D03*
X002258Y007635D03*
X002265Y007642D03*
X002273Y007642D03*
X002280Y007650D03*
X002288Y007650D03*
X002295Y007657D03*
X002340Y007680D03*
X002348Y007687D03*
X002355Y007687D03*
X002363Y007695D03*
X002408Y007755D03*
X002415Y007762D03*
X002430Y007762D03*
X002453Y007755D03*
X002468Y007747D03*
X002475Y007740D03*
X002528Y007687D03*
X002535Y007687D03*
X002565Y007695D03*
X002640Y007710D03*
X002550Y007470D03*
X002505Y007470D03*
X002498Y007477D03*
X002453Y007447D03*
X002445Y007447D03*
X002438Y007440D03*
X002430Y007432D03*
X002423Y007432D03*
X002415Y007425D03*
X002408Y007417D03*
X002400Y007417D03*
X002393Y007410D03*
X002385Y007410D03*
X002378Y007402D03*
X002370Y007395D03*
X002363Y007395D03*
X002355Y007387D03*
X002348Y007380D03*
X002340Y007380D03*
X002333Y007372D03*
X002318Y007365D03*
X002310Y007357D03*
X002303Y007357D03*
X002295Y007350D03*
X002288Y007342D03*
X002280Y007342D03*
X002228Y007320D03*
X002213Y007327D03*
X002198Y007335D03*
X002190Y007342D03*
X002138Y007567D03*
X002130Y007567D03*
X002145Y007575D03*
X002160Y007582D03*
X002175Y007590D03*
X002183Y007597D03*
X002190Y007597D03*
X002198Y007605D03*
X002205Y007605D03*
X002213Y007612D03*
X002228Y007620D03*
X002243Y007627D03*
X002048Y007792D03*
X002040Y007785D03*
X002385Y007125D03*
X002393Y007125D03*
X002400Y007132D03*
X002415Y007140D03*
X002423Y007147D03*
X002430Y007147D03*
X002438Y007155D03*
X002445Y007162D03*
X002453Y007162D03*
X002460Y007170D03*
X002468Y007177D03*
X002475Y007177D03*
X002483Y007185D03*
X002490Y007185D03*
X002498Y007192D03*
X002505Y007200D03*
X002513Y007200D03*
X002520Y007207D03*
X002528Y007215D03*
X002535Y007215D03*
X002543Y007222D03*
X002640Y007042D03*
X002633Y007035D03*
X002625Y007027D03*
X002618Y007027D03*
X002610Y007020D03*
X002603Y007020D03*
X002595Y007012D03*
X002588Y007005D03*
X002580Y007005D03*
X002573Y006997D03*
X002565Y006997D03*
X002558Y006990D03*
X002550Y006982D03*
X002543Y006982D03*
X002535Y006975D03*
X002528Y006975D03*
X002520Y006967D03*
X002513Y006960D03*
X002505Y006960D03*
X002498Y006952D03*
X002490Y006952D03*
X002483Y006945D03*
X002475Y006937D03*
X002468Y006937D03*
X002460Y006930D03*
X002453Y006930D03*
X002070Y006255D03*
X002063Y006255D03*
X002055Y006262D03*
X002048Y006270D03*
X002040Y006270D03*
X002033Y006277D03*
X002025Y006285D03*
X002018Y006285D03*
X002010Y006292D03*
X002003Y006300D03*
X001995Y006300D03*
X001988Y006307D03*
X001980Y006315D03*
X001973Y006315D03*
X001965Y006322D03*
X001950Y006330D03*
X001943Y006337D03*
X002078Y006247D03*
X002085Y006240D03*
X002093Y006240D03*
X002100Y006232D03*
X002108Y006225D03*
X002115Y006225D03*
X002123Y006217D03*
X002130Y006210D03*
X002138Y006210D03*
X002145Y006202D03*
X002153Y006195D03*
X002160Y006195D03*
X002168Y006187D03*
X002175Y006180D03*
X002183Y006180D03*
X002190Y006172D03*
X002198Y006165D03*
X002205Y006165D03*
X002213Y006157D03*
X002280Y006112D03*
X002288Y006112D03*
X002205Y006060D03*
X002198Y006052D03*
X002183Y006045D03*
X002175Y006037D03*
X002160Y006030D03*
X002153Y006022D03*
X002138Y006015D03*
X002130Y006007D03*
X002115Y006000D03*
X002108Y005992D03*
X002093Y005985D03*
X002085Y005977D03*
X002070Y005970D03*
X002063Y005962D03*
X002048Y005955D03*
X002040Y005947D03*
X002025Y005940D03*
X002018Y005932D03*
X002003Y005925D03*
X001995Y005917D03*
X001980Y005910D03*
X001973Y005902D03*
X001958Y005895D03*
X001950Y005887D03*
X001935Y005880D03*
X003158Y011167D03*
X003165Y011167D03*
X003173Y011167D03*
X003180Y011167D03*
X003188Y011167D03*
X003195Y011167D03*
X003203Y011167D03*
X003210Y011167D03*
X003248Y011160D03*
X003563Y011430D03*
X003615Y011550D03*
X003623Y011550D03*
X003630Y011550D03*
X003638Y012112D03*
X003623Y012120D03*
X003578Y012232D03*
X003570Y012232D03*
X003563Y012232D03*
X003480Y012360D03*
X003293Y012480D03*
X003218Y012465D03*
X003210Y012465D03*
X003203Y012465D03*
X003195Y012465D03*
X003135Y012420D03*
X003128Y012420D03*
X003120Y012412D03*
X003105Y012405D03*
X003090Y012397D03*
X004680Y009892D03*
X004785Y009892D03*
X004785Y008880D03*
X004680Y008880D03*
X004680Y006645D03*
X004785Y006645D03*
X004680Y006157D03*
X004680Y005820D03*
X004785Y005820D03*
X004785Y005475D03*
X004680Y005475D03*
D13*
X004785Y006161D03*
X004290Y006161D03*
X004680Y007451D03*
X004785Y007451D03*
X003240Y011163D03*
X003233Y011163D03*
X003225Y011163D03*
X003218Y011163D03*
X003098Y011148D03*
X003068Y011208D03*
X003060Y011208D03*
X003053Y011216D03*
X003045Y011223D03*
X003038Y011231D03*
X003030Y011238D03*
X003023Y011246D03*
X003015Y011253D03*
X003008Y011261D03*
X003420Y011276D03*
X003428Y011276D03*
X003435Y011276D03*
X003443Y011276D03*
X003450Y011276D03*
X003458Y011276D03*
X003540Y011426D03*
X003548Y011426D03*
X003555Y011426D03*
X003570Y011538D03*
X003578Y011538D03*
X003593Y011546D03*
X003600Y011546D03*
X003608Y011546D03*
X003630Y012116D03*
X003615Y012123D03*
X003608Y012123D03*
X003600Y012123D03*
X003555Y012236D03*
X003548Y012236D03*
X003540Y012236D03*
X003533Y012236D03*
X003525Y012236D03*
X003473Y012356D03*
X003465Y012356D03*
X003458Y012356D03*
X003285Y012476D03*
X003270Y012468D03*
X003263Y012468D03*
X003255Y012468D03*
X003248Y012468D03*
X003240Y012468D03*
X003233Y012468D03*
X003225Y012468D03*
X003135Y012468D03*
X003113Y012408D03*
X003098Y012401D03*
X003083Y012393D03*
X003075Y012386D03*
X003068Y012386D03*
X003060Y012378D03*
X003053Y012371D03*
X003038Y012363D03*
X003953Y011621D03*
X004095Y012011D03*
X002483Y009603D03*
X002475Y009603D03*
X002468Y009603D03*
X002460Y009603D03*
X002453Y009603D03*
X002445Y009603D03*
X002438Y009603D03*
X002430Y009603D03*
X002423Y009603D03*
X002370Y009603D03*
X002363Y009603D03*
X002355Y009603D03*
X002348Y009603D03*
X002340Y009603D03*
X002333Y009603D03*
X002325Y009603D03*
X002318Y009603D03*
X002310Y009603D03*
X002303Y009603D03*
X002303Y008981D03*
X002310Y008981D03*
X002318Y008981D03*
X002325Y008981D03*
X002333Y008981D03*
X002340Y008981D03*
X002348Y008981D03*
X002355Y008981D03*
X002363Y008981D03*
X002370Y008981D03*
X002378Y008981D03*
X002423Y008981D03*
X002430Y008981D03*
X002438Y008981D03*
X002445Y008981D03*
X002453Y008981D03*
X002460Y008981D03*
X002468Y008981D03*
X002475Y008981D03*
X002483Y008981D03*
X002423Y007766D03*
X002438Y007758D03*
X002445Y007758D03*
X002460Y007751D03*
X002483Y007676D03*
X002543Y007691D03*
X002550Y007691D03*
X002558Y007691D03*
X002573Y007698D03*
X002648Y007713D03*
X002520Y007593D03*
X002520Y007466D03*
X002513Y007466D03*
X002528Y007466D03*
X002535Y007466D03*
X002543Y007466D03*
X002408Y007136D03*
X002325Y007368D03*
X002235Y007316D03*
X002220Y007323D03*
X002205Y007331D03*
X002153Y007578D03*
X002168Y007586D03*
X002220Y007616D03*
X002235Y007623D03*
X002250Y007631D03*
X002303Y007661D03*
X002678Y007061D03*
X002663Y006108D03*
X002655Y006108D03*
X002648Y006108D03*
X002640Y006108D03*
X002633Y006108D03*
X002625Y006108D03*
X002618Y006108D03*
X002610Y006108D03*
X002603Y006108D03*
X002595Y006108D03*
X002588Y006108D03*
X002580Y006108D03*
X002573Y006108D03*
X002565Y006108D03*
X002558Y006108D03*
X002550Y006108D03*
X002543Y006108D03*
X002535Y006108D03*
X002528Y006108D03*
X002520Y006108D03*
X002513Y006108D03*
X002505Y006108D03*
X002498Y006108D03*
X002490Y006108D03*
X002483Y006108D03*
X002475Y006108D03*
X002468Y006108D03*
X002460Y006108D03*
X002453Y006108D03*
X002445Y006108D03*
X002438Y006108D03*
X002430Y006108D03*
X002423Y006108D03*
X002415Y006108D03*
X002408Y006108D03*
X002400Y006108D03*
X002393Y006108D03*
X002385Y006108D03*
X002378Y006108D03*
X002370Y006108D03*
X002363Y006108D03*
X002355Y006108D03*
X002348Y006108D03*
X002340Y006108D03*
X002333Y006108D03*
X002325Y006108D03*
X002318Y006108D03*
X002310Y006108D03*
X002303Y006108D03*
X002295Y006108D03*
X002213Y006108D03*
X002205Y006108D03*
X002198Y006108D03*
X002190Y006108D03*
X002183Y006108D03*
X002175Y006108D03*
X002168Y006108D03*
X002160Y006108D03*
X002153Y006108D03*
X002145Y006108D03*
X002138Y006108D03*
X002130Y006108D03*
X002123Y006108D03*
X002115Y006108D03*
X002108Y006108D03*
X002100Y006108D03*
X002093Y006108D03*
X002085Y006108D03*
X002078Y006108D03*
X002070Y006108D03*
X002063Y006108D03*
X002055Y006108D03*
X002048Y006108D03*
X002040Y006108D03*
X002033Y006108D03*
X002025Y006108D03*
X002018Y006108D03*
X002010Y006108D03*
X002003Y006108D03*
X001995Y006108D03*
X001988Y006108D03*
X001980Y006108D03*
X001973Y006108D03*
X001965Y006108D03*
X001958Y006108D03*
X001950Y006108D03*
X001943Y006108D03*
X001935Y006108D03*
X001928Y006108D03*
X001920Y006108D03*
X001988Y005913D03*
X002010Y005928D03*
X002033Y005943D03*
X002055Y005958D03*
X002078Y005973D03*
X002100Y005988D03*
X002123Y006003D03*
X002145Y006018D03*
X002168Y006033D03*
X002190Y006048D03*
X002213Y006063D03*
X001965Y005898D03*
X001943Y005883D03*
X001958Y006326D03*
X001935Y006341D03*
D14*
X002273Y006112D03*
X002670Y007065D03*
X002445Y007530D03*
X002333Y007687D03*
X002483Y007732D03*
X002550Y007612D03*
X002625Y007702D03*
X002948Y008535D03*
X002955Y008535D03*
X002138Y007395D03*
X002145Y007387D03*
X003128Y011167D03*
X003135Y011167D03*
X003143Y011167D03*
X003150Y011167D03*
X003293Y011152D03*
X003300Y011152D03*
X003308Y011152D03*
X003315Y011152D03*
X003330Y011160D03*
X003338Y011160D03*
X003353Y011167D03*
X003360Y011167D03*
X003375Y011175D03*
X003390Y011182D03*
X003398Y011182D03*
X003405Y011190D03*
X003413Y011190D03*
X003420Y011197D03*
X003428Y011197D03*
X003435Y011205D03*
X003450Y011212D03*
X003458Y011220D03*
X003443Y012457D03*
X003435Y012457D03*
X003428Y012465D03*
X003413Y012472D03*
X003405Y012472D03*
X003390Y012480D03*
X003383Y012480D03*
X003375Y012487D03*
X003368Y012487D03*
X003360Y012487D03*
X003173Y012457D03*
X004118Y012007D03*
X004298Y006157D03*
X004688Y005475D03*
X004778Y005475D03*
D15*
X004778Y005823D03*
X004688Y005823D03*
X004688Y006161D03*
X004778Y006161D03*
X004778Y006641D03*
X004688Y006641D03*
X004688Y007451D03*
X004778Y007451D03*
X004778Y008876D03*
X004688Y008876D03*
X004688Y009888D03*
X004778Y009888D03*
X004133Y012003D03*
X004125Y012003D03*
X003458Y012446D03*
X003450Y012453D03*
X003353Y012491D03*
X003345Y012491D03*
X003165Y012453D03*
X003158Y012453D03*
X003443Y011208D03*
X003285Y011148D03*
X003278Y011148D03*
X003270Y011148D03*
X003263Y011148D03*
X003255Y011148D03*
X003120Y011163D03*
X002963Y008531D03*
X002618Y007691D03*
X002513Y007698D03*
X002438Y007541D03*
X002250Y007308D03*
X002445Y006933D03*
X002265Y006108D03*
X003180Y005538D03*
D16*
X002430Y006952D03*
X002423Y006967D03*
X002415Y006982D03*
X002408Y006997D03*
X002303Y007215D03*
X002295Y007230D03*
X002288Y007245D03*
X002280Y007260D03*
X002258Y007305D03*
X002123Y007425D03*
X002018Y007755D03*
X001965Y007852D03*
X001958Y007867D03*
X001928Y007927D03*
X002153Y008040D03*
X002160Y008025D03*
X002168Y008010D03*
X002175Y007995D03*
X002183Y007980D03*
X002190Y007965D03*
X002213Y007920D03*
X002273Y007792D03*
X002280Y007777D03*
X002288Y007762D03*
X002295Y007747D03*
X002303Y007732D03*
X002415Y007582D03*
X002498Y007702D03*
X002588Y007672D03*
X002595Y007680D03*
X002985Y008535D03*
X002993Y008535D03*
X002250Y006112D03*
X003495Y011257D03*
X003518Y011280D03*
X003525Y011287D03*
X004148Y012000D03*
X004695Y009892D03*
X004703Y009892D03*
X004763Y009892D03*
X004770Y009892D03*
X004763Y006645D03*
X004703Y006645D03*
X004695Y006645D03*
X004695Y005475D03*
X004703Y005475D03*
X004763Y005475D03*
X004770Y005475D03*
D17*
X004770Y005823D03*
X004695Y005823D03*
X004695Y006161D03*
X004770Y006161D03*
X004770Y006641D03*
X004770Y007451D03*
X004695Y007451D03*
X004695Y008876D03*
X004770Y008876D03*
X004140Y012003D03*
X003480Y012431D03*
X003315Y012498D03*
X003308Y012498D03*
X003300Y012498D03*
X003143Y012446D03*
X002978Y008531D03*
X002603Y007683D03*
X002505Y007698D03*
X002423Y007563D03*
X002498Y007391D03*
X002505Y007376D03*
X002513Y007361D03*
X002520Y007346D03*
X002528Y007331D03*
X002535Y007316D03*
X002543Y007301D03*
X002565Y007256D03*
X002573Y007241D03*
X002580Y007226D03*
X002588Y007218D03*
X002595Y007203D03*
X002603Y007188D03*
X002610Y007173D03*
X002618Y007158D03*
X002625Y007143D03*
X002633Y007128D03*
X002640Y007113D03*
X002438Y006941D03*
X002400Y007016D03*
X002393Y007031D03*
X002385Y007046D03*
X002363Y007091D03*
X002355Y007106D03*
X002348Y007121D03*
X002340Y007136D03*
X002333Y007151D03*
X002325Y007166D03*
X002318Y007181D03*
X002310Y007196D03*
X002085Y007616D03*
X002078Y007631D03*
X002070Y007646D03*
X002063Y007661D03*
X002055Y007676D03*
X002048Y007691D03*
X002040Y007706D03*
X002010Y007766D03*
X002003Y007781D03*
X001995Y007796D03*
X001988Y007811D03*
X001980Y007826D03*
X001973Y007841D03*
X001950Y007878D03*
X002145Y008058D03*
X002138Y008073D03*
X002220Y007901D03*
X002228Y007886D03*
X002235Y007871D03*
X002243Y007856D03*
X002250Y007841D03*
X002258Y007826D03*
X002265Y007811D03*
X002325Y007691D03*
X003173Y005546D03*
D18*
X002655Y007076D03*
X002408Y007601D03*
X002370Y007691D03*
X002318Y007698D03*
X002490Y007706D03*
X002580Y007668D03*
X002370Y007083D03*
X002085Y007511D03*
X002243Y006108D03*
X003000Y008531D03*
X003473Y011246D03*
X003488Y011253D03*
X003503Y011261D03*
X003510Y011268D03*
X003533Y011298D03*
X003803Y011516D03*
X004155Y011996D03*
X004163Y011996D03*
X003563Y012333D03*
X004703Y008876D03*
X004763Y008876D03*
X004763Y007451D03*
X004703Y007451D03*
X004703Y006161D03*
X004763Y006161D03*
X004763Y005823D03*
X004703Y005823D03*
X004313Y006146D03*
D19*
X004695Y007038D03*
X004703Y007038D03*
X004710Y007038D03*
X004718Y007038D03*
X004725Y007038D03*
X004733Y007038D03*
X004740Y007038D03*
X004748Y007038D03*
X004755Y007038D03*
X004763Y007038D03*
X004763Y008441D03*
X004755Y008441D03*
X004748Y008441D03*
X004740Y008441D03*
X004733Y008441D03*
X004725Y008441D03*
X004718Y008441D03*
X004710Y008441D03*
X004703Y008441D03*
X004695Y008441D03*
X003150Y006956D03*
D20*
X002558Y007260D03*
X002588Y007537D03*
X002265Y007297D03*
X002025Y007747D03*
X002205Y007927D03*
X003008Y008535D03*
X003015Y008535D03*
X002235Y006112D03*
X003465Y011242D03*
X003480Y011250D03*
X003540Y011310D03*
X003578Y012315D03*
X003570Y012322D03*
X003555Y012345D03*
X004170Y011992D03*
X004710Y009892D03*
X004718Y009892D03*
X004725Y009892D03*
X004740Y009892D03*
X004748Y009892D03*
X004755Y009892D03*
X004755Y008880D03*
X004748Y008880D03*
X004718Y008880D03*
X004710Y008880D03*
X004710Y007455D03*
X004755Y007455D03*
X004755Y006645D03*
X004748Y006645D03*
X004718Y006645D03*
X004710Y006645D03*
X004710Y006157D03*
X004755Y006157D03*
X004755Y005820D03*
X004748Y005820D03*
X004718Y005820D03*
X004710Y005820D03*
X004710Y005475D03*
X004718Y005475D03*
X004725Y005475D03*
X004740Y005475D03*
X004748Y005475D03*
X004755Y005475D03*
D21*
X004740Y005823D03*
X004733Y005823D03*
X004725Y005823D03*
X004725Y006161D03*
X004718Y006161D03*
X004733Y006161D03*
X004740Y006161D03*
X004748Y006161D03*
X004740Y006641D03*
X004733Y006641D03*
X004725Y006641D03*
X004725Y007451D03*
X004718Y007451D03*
X004733Y007451D03*
X004740Y007451D03*
X004748Y007451D03*
X004320Y006138D03*
X003165Y005553D03*
X002558Y007593D03*
X001935Y007923D03*
X003548Y011321D03*
X003548Y012348D03*
X003540Y012356D03*
X004178Y011988D03*
X004185Y011988D03*
X004725Y008876D03*
X004733Y008876D03*
X004740Y008876D03*
D22*
X004733Y009892D03*
X003638Y011452D03*
X003645Y011460D03*
X003630Y011437D03*
X003563Y011340D03*
X003555Y011332D03*
X003533Y012367D03*
X003525Y012375D03*
X003518Y012382D03*
X003030Y008535D03*
X003023Y008535D03*
X002460Y007477D03*
X002310Y007702D03*
X002378Y007080D03*
X002648Y007080D03*
X002228Y006112D03*
X004733Y005475D03*
D23*
X004560Y005895D03*
X003090Y008535D03*
X003083Y008535D03*
X002385Y007680D03*
X003570Y011370D03*
X003720Y011602D03*
X003818Y011542D03*
X003698Y012097D03*
X003683Y012120D03*
X003675Y012127D03*
X003668Y012142D03*
X003825Y012120D03*
D24*
X004215Y011767D03*
X004223Y011760D03*
X003225Y008535D03*
X003540Y006090D03*
X003923Y005550D03*
X004553Y005895D03*
D25*
X004545Y005895D03*
X003855Y005625D03*
X003668Y006900D03*
X003990Y011835D03*
X003998Y011835D03*
X004005Y011835D03*
X004013Y011835D03*
X004020Y011835D03*
X004028Y011835D03*
X004035Y011835D03*
X004043Y011835D03*
X004050Y011835D03*
D26*
X003803Y011831D03*
X003645Y005958D03*
X003810Y005688D03*
X004538Y005898D03*
D27*
X004268Y005516D03*
X004260Y005508D03*
X004253Y005508D03*
X003998Y005508D03*
X003990Y005508D03*
X003975Y005516D03*
X003480Y006123D03*
X003473Y006123D03*
X003465Y006131D03*
X003218Y006123D03*
X003210Y006116D03*
X003203Y006116D03*
X003338Y006753D03*
X003345Y006753D03*
X003308Y006761D03*
X003300Y006761D03*
X003525Y006768D03*
X003548Y006776D03*
X003563Y006783D03*
X003570Y006783D03*
X003578Y006791D03*
X003878Y007023D03*
X003915Y007001D03*
X004395Y008081D03*
X004403Y008081D03*
X004410Y008081D03*
X004418Y008073D03*
X004425Y008073D03*
X004433Y008073D03*
X004440Y008066D03*
X004448Y008066D03*
X004463Y008058D03*
X004470Y008058D03*
X004485Y008051D03*
X004493Y008051D03*
X004508Y008043D03*
X004515Y008043D03*
X004530Y008036D03*
X004538Y008036D03*
X004388Y008088D03*
X004380Y008088D03*
X004365Y008096D03*
X004358Y008096D03*
X004343Y008103D03*
X004335Y008103D03*
X004298Y008988D03*
X004320Y008996D03*
X004335Y009003D03*
X004343Y009003D03*
X004358Y009011D03*
X004365Y009011D03*
X004373Y009018D03*
X004380Y009018D03*
X004388Y009018D03*
X004395Y009026D03*
X004403Y009026D03*
X004410Y009033D03*
X004418Y009033D03*
X004425Y009033D03*
X004433Y009041D03*
X004440Y009041D03*
X004455Y009048D03*
X004463Y009048D03*
X004478Y009056D03*
X004500Y009063D03*
X004538Y009078D03*
X004538Y006611D03*
X003173Y008538D03*
X002955Y007218D03*
D28*
X003165Y007485D03*
X003173Y007485D03*
X003180Y007485D03*
X003188Y007485D03*
X003195Y007485D03*
X003203Y007485D03*
X003210Y007485D03*
X003218Y007485D03*
X003225Y007485D03*
X003233Y007485D03*
X003240Y007485D03*
X003248Y007485D03*
X003255Y007485D03*
X003263Y007485D03*
X003270Y007485D03*
X003278Y007485D03*
X003285Y007485D03*
X003293Y007485D03*
X003300Y007485D03*
X003308Y007485D03*
X003315Y007485D03*
X003323Y007485D03*
X003330Y007485D03*
X003338Y007485D03*
X003345Y007485D03*
X003353Y007485D03*
X003360Y007485D03*
X003368Y007485D03*
X003375Y007485D03*
X003383Y007485D03*
X003390Y007485D03*
X003398Y007485D03*
X003405Y007485D03*
X003413Y007485D03*
X003420Y007485D03*
X003428Y007485D03*
X003435Y007485D03*
X003443Y007485D03*
X003450Y007485D03*
X003458Y007485D03*
X003465Y007485D03*
X003473Y007485D03*
X003480Y007485D03*
X003488Y007485D03*
X003495Y007485D03*
X003503Y007485D03*
X003510Y007485D03*
X003518Y007485D03*
X003525Y007485D03*
X003533Y007485D03*
X003540Y007485D03*
X003548Y007485D03*
X003555Y007485D03*
X003563Y007485D03*
X003570Y007485D03*
X003578Y007485D03*
X003585Y007485D03*
X003593Y007485D03*
X003600Y007485D03*
X003608Y007485D03*
X003615Y007485D03*
X003623Y007485D03*
X003630Y007485D03*
X003638Y007485D03*
X003645Y007485D03*
X003653Y007485D03*
X003660Y007485D03*
X003668Y007485D03*
X003855Y007485D03*
X003863Y007485D03*
X003870Y007485D03*
X003878Y007485D03*
X003885Y007485D03*
X003893Y007485D03*
X003900Y007485D03*
X003908Y007485D03*
X003915Y007485D03*
X003923Y007485D03*
X003930Y007485D03*
X003938Y007485D03*
X003945Y007485D03*
X003953Y007485D03*
X003960Y007485D03*
X003968Y007485D03*
X003975Y007485D03*
X003983Y007485D03*
X003990Y007485D03*
X003998Y007485D03*
X004005Y007485D03*
X004013Y007485D03*
X004020Y007485D03*
X004028Y007485D03*
X004035Y007485D03*
X004043Y007485D03*
X004050Y007485D03*
X004058Y007485D03*
X004065Y007485D03*
X004073Y007485D03*
X004080Y007485D03*
X004088Y007485D03*
X004095Y007485D03*
X004103Y007485D03*
X004110Y007485D03*
X004118Y007485D03*
X004125Y007485D03*
X004133Y007485D03*
X004140Y007485D03*
X004148Y007485D03*
X004155Y007485D03*
X004163Y007485D03*
X004170Y007485D03*
X004178Y007485D03*
X004185Y007485D03*
X004193Y007485D03*
X004200Y007485D03*
X004208Y007485D03*
X004215Y007485D03*
X004223Y007485D03*
X004230Y007485D03*
X004238Y007485D03*
X004245Y007485D03*
X004253Y007485D03*
X004260Y007485D03*
X004268Y007485D03*
X004275Y007485D03*
X004283Y007485D03*
X004290Y007485D03*
X004298Y007485D03*
X004305Y007485D03*
X004313Y007485D03*
X004320Y007485D03*
X004328Y007485D03*
X004335Y007485D03*
X004343Y007485D03*
X004350Y007485D03*
X004358Y007485D03*
X004365Y007485D03*
X004373Y007485D03*
X004380Y007485D03*
X004388Y007485D03*
X004395Y007485D03*
X004403Y007485D03*
X004410Y007485D03*
X004418Y007485D03*
X004425Y007485D03*
X004433Y007485D03*
X004440Y007485D03*
X004448Y007485D03*
X004455Y007485D03*
X004463Y007485D03*
X004470Y007485D03*
X004478Y007485D03*
X004485Y007485D03*
X004493Y007485D03*
X004500Y007485D03*
X004508Y007485D03*
X004515Y007485D03*
X004523Y007485D03*
X004530Y007485D03*
X004538Y007485D03*
X004350Y006105D03*
X004155Y005482D03*
X004148Y005482D03*
X004140Y005482D03*
X004133Y005482D03*
X004125Y005482D03*
X004118Y005482D03*
X004110Y005482D03*
X004103Y005482D03*
X004058Y005490D03*
X003375Y006150D03*
X003368Y006150D03*
X003360Y006150D03*
X003353Y006150D03*
X003345Y006150D03*
X003338Y006150D03*
X003330Y006150D03*
X003323Y006150D03*
X003315Y006150D03*
X003278Y006142D03*
X002400Y007672D03*
X002115Y007500D03*
X002108Y007507D03*
X002100Y007522D03*
X003143Y008535D03*
X003150Y008535D03*
X003645Y008347D03*
X003653Y008347D03*
X003668Y008340D03*
X003675Y008340D03*
X003690Y008332D03*
X003698Y008332D03*
X003713Y008325D03*
X003720Y008325D03*
X003728Y008317D03*
X003735Y008317D03*
X003743Y008317D03*
X003750Y008310D03*
X003758Y008310D03*
X003765Y008310D03*
X003773Y008302D03*
X003780Y008302D03*
X003795Y008295D03*
X003803Y008295D03*
X003818Y008287D03*
X003825Y008287D03*
X003840Y008280D03*
X003810Y008805D03*
X003833Y008812D03*
X003848Y008820D03*
X003855Y008820D03*
X003870Y008827D03*
X003878Y008827D03*
X003885Y008835D03*
X003893Y008835D03*
X003908Y008842D03*
X003915Y008842D03*
X003923Y008850D03*
X003930Y008850D03*
X003938Y008850D03*
X003945Y008857D03*
X003953Y008857D03*
X003968Y008865D03*
X003975Y008865D03*
X003990Y008872D03*
X004013Y008880D03*
X004013Y010252D03*
X004020Y010252D03*
X004028Y010252D03*
X004035Y010252D03*
X004043Y010252D03*
X004050Y010252D03*
X004058Y010252D03*
X004065Y010252D03*
X004073Y010252D03*
X004080Y010252D03*
X004088Y010252D03*
X004095Y010252D03*
X004103Y010252D03*
X004110Y010252D03*
X004118Y010252D03*
X004125Y010252D03*
X004133Y010252D03*
X004140Y010252D03*
X004148Y010252D03*
X004155Y010252D03*
X004163Y010252D03*
X004170Y010252D03*
X004178Y010252D03*
X004185Y010252D03*
X004193Y010252D03*
X004200Y010252D03*
X004208Y010252D03*
X004215Y010252D03*
X004223Y010252D03*
X004230Y010252D03*
X004238Y010252D03*
X004245Y010252D03*
X004253Y010252D03*
X004260Y010252D03*
X004268Y010252D03*
X004275Y010252D03*
X004283Y010252D03*
X004290Y010252D03*
X004298Y010252D03*
X004305Y010252D03*
X004313Y010252D03*
X004320Y010252D03*
X004328Y010252D03*
X004335Y010252D03*
X004343Y010252D03*
X004005Y010252D03*
X003998Y010252D03*
X003990Y010252D03*
X003983Y010252D03*
X003975Y010252D03*
X003968Y010252D03*
X003960Y010252D03*
X003953Y010252D03*
X003945Y010252D03*
X003938Y010252D03*
X003930Y010252D03*
X003923Y010252D03*
X003915Y010252D03*
X003908Y010252D03*
X003900Y010252D03*
X003893Y010252D03*
X003885Y010252D03*
X003878Y010252D03*
X003870Y010252D03*
X003863Y010252D03*
X003855Y010252D03*
X003848Y010252D03*
X003840Y010252D03*
X003833Y010252D03*
X003825Y010252D03*
X003818Y010252D03*
X003810Y010252D03*
X003803Y010252D03*
X003795Y010252D03*
X003788Y010252D03*
X003780Y010252D03*
X003593Y010252D03*
X003585Y010252D03*
X003578Y010252D03*
X003570Y010252D03*
X003563Y010252D03*
X003555Y010252D03*
X003548Y010252D03*
X003540Y010252D03*
X003533Y010252D03*
X003525Y010252D03*
X003518Y010252D03*
X003510Y010252D03*
X003503Y010252D03*
X003495Y010252D03*
X003488Y010252D03*
X003480Y010252D03*
X003473Y010252D03*
X003465Y010252D03*
X003458Y010252D03*
X003450Y010252D03*
X003443Y010252D03*
X003435Y010252D03*
X003428Y010252D03*
X003420Y010252D03*
X003413Y010252D03*
X003405Y010252D03*
X003398Y010252D03*
X003390Y010252D03*
X003383Y010252D03*
X003375Y010252D03*
X003368Y010252D03*
X003360Y010252D03*
X003353Y010252D03*
X003345Y010252D03*
X003338Y010252D03*
X003330Y010252D03*
X003323Y010252D03*
X003315Y010252D03*
X003308Y010252D03*
X003300Y010252D03*
X003293Y010252D03*
X003285Y010252D03*
X003278Y010252D03*
X003270Y010252D03*
X003263Y010252D03*
X003255Y010252D03*
X003248Y010252D03*
X003240Y010252D03*
X003233Y010252D03*
X003225Y010252D03*
X003218Y010252D03*
X003210Y010252D03*
X003203Y010252D03*
X003195Y010252D03*
X003188Y010252D03*
X003180Y010252D03*
X003173Y010252D03*
X003165Y010252D03*
X004530Y011842D03*
D29*
X004538Y009900D03*
X004065Y008550D03*
X004058Y008550D03*
D30*
X003248Y011118D03*
X003240Y011118D03*
X003233Y011118D03*
X003210Y011111D03*
X003060Y011141D03*
X003053Y011141D03*
X002985Y011291D03*
X003360Y011276D03*
X003368Y011276D03*
X003375Y011276D03*
X003383Y011276D03*
X003390Y011276D03*
X003398Y011276D03*
X003405Y011276D03*
X003413Y011276D03*
X003450Y011418D03*
X003458Y011418D03*
X003465Y011418D03*
X003473Y011418D03*
X003480Y011418D03*
X003488Y011418D03*
X003525Y011531D03*
X003533Y011531D03*
X003540Y011531D03*
X003540Y012131D03*
X003533Y012131D03*
X003525Y012131D03*
X003548Y012131D03*
X003488Y012243D03*
X003480Y012243D03*
X003473Y012243D03*
X003465Y012243D03*
X003405Y012356D03*
X003398Y012356D03*
X003390Y012356D03*
X003383Y012356D03*
X003375Y012356D03*
X003278Y012536D03*
X003255Y012543D03*
X003248Y012543D03*
X003240Y012543D03*
X003225Y012551D03*
X003218Y012551D03*
X003210Y012551D03*
X003120Y012476D03*
X003113Y012476D03*
X003105Y012476D03*
X003098Y012476D03*
X003090Y012476D03*
X003083Y012476D03*
X003075Y012476D03*
X003015Y012348D03*
X003008Y012341D03*
X004073Y012018D03*
X004080Y012018D03*
X004538Y011846D03*
X002670Y007728D03*
X002513Y007593D03*
X002685Y007053D03*
X001928Y005883D03*
D31*
X003705Y005865D03*
X003713Y005850D03*
X003750Y005790D03*
X003758Y005775D03*
X004530Y005895D03*
X004320Y011842D03*
X004313Y011842D03*
X004305Y011842D03*
X004298Y011842D03*
X004290Y011842D03*
X004283Y011842D03*
D32*
X003195Y008538D03*
X003675Y007466D03*
X003608Y006813D03*
X003600Y006806D03*
X003510Y006108D03*
X003263Y006776D03*
X003255Y006776D03*
X003248Y006783D03*
X003180Y006101D03*
X003173Y006093D03*
X003953Y005531D03*
X003960Y005523D03*
X004283Y005523D03*
X004290Y005531D03*
X004530Y006618D03*
X004515Y006626D03*
X004500Y006633D03*
X004493Y006641D03*
X004478Y006648D03*
X004470Y006656D03*
X004455Y006663D03*
X004433Y006678D03*
X004418Y006686D03*
X004410Y006693D03*
X004395Y006701D03*
X004373Y006716D03*
X004358Y006723D03*
X004335Y006738D03*
X004313Y006753D03*
X004298Y006761D03*
X004275Y006776D03*
X004253Y006791D03*
X004238Y006798D03*
X004215Y006813D03*
X004155Y006851D03*
X004095Y006888D03*
D33*
X004103Y006885D03*
X004110Y006877D03*
X004118Y006877D03*
X004125Y006870D03*
X004133Y006862D03*
X004140Y006862D03*
X004148Y006855D03*
X004163Y006847D03*
X004170Y006840D03*
X004178Y006840D03*
X004185Y006832D03*
X004193Y006825D03*
X004200Y006825D03*
X004208Y006817D03*
X004223Y006810D03*
X004230Y006802D03*
X004245Y006795D03*
X004260Y006787D03*
X004268Y006780D03*
X004283Y006772D03*
X004290Y006765D03*
X004305Y006757D03*
X004320Y006750D03*
X004328Y006742D03*
X004343Y006735D03*
X004350Y006727D03*
X004365Y006720D03*
X004380Y006712D03*
X004388Y006705D03*
X004403Y006697D03*
X004425Y006682D03*
X004440Y006675D03*
X004448Y006667D03*
X004463Y006660D03*
X004485Y006645D03*
X004508Y006630D03*
X004523Y006622D03*
X004358Y006090D03*
X004275Y005520D03*
X003983Y005512D03*
X003968Y005520D03*
X003503Y006112D03*
X003495Y006120D03*
X003488Y006120D03*
X003195Y006112D03*
X003188Y006105D03*
X003285Y006765D03*
X003293Y006765D03*
X003278Y006772D03*
X003270Y006772D03*
X003585Y006795D03*
X003593Y006802D03*
X003870Y007027D03*
X003885Y007020D03*
X003893Y007012D03*
X003900Y007012D03*
X003908Y007005D03*
X003923Y006997D03*
X003930Y006990D03*
X003938Y006990D03*
X003945Y006982D03*
X003953Y006975D03*
X003960Y006975D03*
X003968Y006967D03*
X003975Y006960D03*
X003983Y006960D03*
X003990Y006952D03*
X003998Y006952D03*
X004005Y006945D03*
X004013Y006937D03*
X004020Y006937D03*
X004028Y006930D03*
X004035Y006922D03*
X004043Y006922D03*
X004050Y006915D03*
X004058Y006915D03*
X004065Y006907D03*
X004073Y006900D03*
X004080Y006900D03*
X004088Y006892D03*
X004478Y008055D03*
X004500Y008047D03*
X004523Y008040D03*
X004455Y008062D03*
X004448Y009045D03*
X004470Y009052D03*
X004485Y009060D03*
X004493Y009060D03*
X004508Y009067D03*
X004515Y009067D03*
X004523Y009075D03*
X004530Y009075D03*
X003188Y008535D03*
X003180Y008535D03*
X003158Y007470D03*
D34*
X004350Y009896D03*
X004358Y009896D03*
X004365Y009896D03*
X004373Y009896D03*
X004380Y009896D03*
X004388Y009896D03*
X004395Y009896D03*
X004403Y009896D03*
X004410Y009896D03*
X004418Y009896D03*
X004425Y009896D03*
X004433Y009896D03*
X004440Y009896D03*
X004448Y009896D03*
X004455Y009896D03*
X004463Y009896D03*
X004470Y009896D03*
X004478Y009896D03*
X004485Y009896D03*
X004493Y009896D03*
X004500Y009896D03*
X004508Y009896D03*
X004515Y009896D03*
X004523Y009896D03*
X004530Y009896D03*
D35*
X004403Y011846D03*
X003765Y011831D03*
X004523Y005898D03*
D36*
X003900Y005572D03*
X003893Y005580D03*
X003570Y006060D03*
X003653Y006870D03*
X003135Y006045D03*
X003263Y008535D03*
X004163Y011782D03*
X004170Y011782D03*
X004523Y011835D03*
D37*
X004493Y011842D03*
X004485Y011842D03*
X004478Y011842D03*
X004470Y011842D03*
X004515Y005895D03*
D38*
X003825Y005666D03*
X003165Y006881D03*
X003953Y011846D03*
X004515Y011838D03*
D39*
X003930Y011838D03*
X004508Y005898D03*
D40*
X003780Y005737D03*
X003773Y005752D03*
X003690Y005887D03*
X003788Y011827D03*
X004245Y011842D03*
X004253Y011842D03*
X004260Y011842D03*
X004268Y011842D03*
X004275Y011842D03*
X004508Y011835D03*
D41*
X002970Y007293D03*
X003008Y005771D03*
X004500Y005898D03*
D42*
X004500Y011835D03*
X004433Y011842D03*
X004425Y011842D03*
X004418Y011842D03*
X004410Y011842D03*
D43*
X003900Y011838D03*
X002520Y009296D03*
X004493Y005898D03*
D44*
X004485Y005898D03*
X003893Y011838D03*
D45*
X003878Y011838D03*
X003848Y007256D03*
X003810Y007256D03*
X004478Y005898D03*
X003060Y005801D03*
X003053Y005793D03*
D46*
X003090Y005820D03*
X003803Y007245D03*
X004470Y005902D03*
X003863Y011835D03*
D47*
X003855Y011835D03*
X003795Y007237D03*
X004463Y005895D03*
X003120Y005835D03*
D48*
X002985Y005775D03*
X003758Y011835D03*
X003945Y011835D03*
X004440Y011842D03*
X004448Y011842D03*
X004455Y011842D03*
X004463Y011842D03*
D49*
X003848Y011838D03*
X004455Y005891D03*
D50*
X004448Y005887D03*
X004440Y005880D03*
X003788Y007230D03*
X003008Y007230D03*
X003840Y011835D03*
D51*
X003773Y009993D03*
X003765Y009993D03*
X003758Y009993D03*
X003750Y009993D03*
X003743Y009993D03*
X003735Y009993D03*
X003728Y009993D03*
X003720Y009993D03*
X003713Y009993D03*
X003705Y009993D03*
X003698Y009993D03*
X003690Y009993D03*
X003683Y009993D03*
X003675Y009993D03*
X003668Y009993D03*
X003660Y009993D03*
X003653Y009993D03*
X003645Y009993D03*
X003638Y009993D03*
X003630Y009993D03*
X003623Y009993D03*
X003615Y009993D03*
X003608Y009993D03*
X003600Y009993D03*
X004433Y005876D03*
D52*
X004425Y005872D03*
X003780Y007222D03*
X003015Y007222D03*
X003833Y011835D03*
D53*
X004418Y005861D03*
X004403Y005853D03*
D54*
X004410Y005857D03*
X004395Y005850D03*
X003773Y007215D03*
X003023Y007215D03*
D55*
X004373Y011842D03*
X004380Y011842D03*
X004388Y011842D03*
X004395Y011842D03*
D56*
X003765Y007211D03*
X004388Y005846D03*
X004380Y005838D03*
D57*
X004373Y005835D03*
X003030Y007207D03*
D58*
X003315Y006757D03*
X003323Y006757D03*
X003330Y006757D03*
X003353Y006750D03*
X003360Y006750D03*
X003368Y006750D03*
X003375Y006750D03*
X003383Y006750D03*
X003390Y006750D03*
X003398Y006750D03*
X003405Y006750D03*
X003413Y006750D03*
X003420Y006750D03*
X003428Y006750D03*
X003435Y006750D03*
X003443Y006750D03*
X003450Y006750D03*
X003465Y006757D03*
X003473Y006757D03*
X003480Y006757D03*
X003488Y006757D03*
X003495Y006757D03*
X003503Y006765D03*
X003510Y006765D03*
X003518Y006765D03*
X003533Y006772D03*
X003540Y006772D03*
X003555Y006780D03*
X003428Y006142D03*
X003420Y006142D03*
X003443Y006135D03*
X003450Y006135D03*
X003458Y006135D03*
X003248Y006135D03*
X003233Y006127D03*
X003225Y006127D03*
X002948Y005790D03*
X003953Y008242D03*
X003975Y008235D03*
X003990Y008227D03*
X003998Y008227D03*
X004013Y008220D03*
X004020Y008220D03*
X004035Y008212D03*
X004043Y008212D03*
X003930Y008250D03*
X004208Y008152D03*
X004215Y008145D03*
X004223Y008145D03*
X004238Y008137D03*
X004245Y008137D03*
X004253Y008130D03*
X004260Y008130D03*
X004268Y008130D03*
X004275Y008122D03*
X004283Y008122D03*
X004290Y008122D03*
X004298Y008115D03*
X004305Y008115D03*
X004313Y008115D03*
X004320Y008107D03*
X004328Y008107D03*
X004350Y008100D03*
X004373Y008092D03*
X004215Y008955D03*
X004208Y008955D03*
X004223Y008962D03*
X004230Y008962D03*
X004245Y008970D03*
X004253Y008970D03*
X004260Y008977D03*
X004268Y008977D03*
X004275Y008977D03*
X004283Y008985D03*
X004290Y008985D03*
X004305Y008992D03*
X004313Y008992D03*
X004328Y009000D03*
X004350Y009007D03*
X003165Y008535D03*
X004005Y005505D03*
X004013Y005505D03*
X004020Y005497D03*
X004028Y005497D03*
X004223Y005497D03*
X004230Y005497D03*
X004238Y005505D03*
X004245Y005505D03*
D59*
X004365Y005621D03*
X003848Y005636D03*
X003608Y006011D03*
X003173Y006866D03*
X003323Y008538D03*
X003330Y008538D03*
X003338Y008538D03*
X003983Y011831D03*
D60*
X004200Y011771D03*
X003233Y008538D03*
X003863Y007053D03*
X003638Y006843D03*
X003548Y006078D03*
X003218Y006806D03*
X003150Y006071D03*
X003915Y005561D03*
X004328Y005561D03*
X004335Y005568D03*
X004365Y006071D03*
D61*
X004365Y011846D03*
X003773Y011831D03*
D62*
X004095Y011816D03*
X004103Y011808D03*
X004110Y011808D03*
X004125Y011801D03*
X003300Y008538D03*
X003293Y008538D03*
X003285Y008538D03*
X003150Y007428D03*
X003660Y006881D03*
X003585Y006041D03*
X003870Y005606D03*
X003878Y005598D03*
X004358Y005606D03*
D63*
X002978Y005775D03*
X004328Y011842D03*
X004335Y011842D03*
X004343Y011842D03*
X004350Y011842D03*
X004358Y011842D03*
D64*
X004155Y011786D03*
X004148Y011793D03*
X004140Y011793D03*
X003278Y008538D03*
X003270Y008538D03*
X003195Y006828D03*
X003578Y006048D03*
X003885Y005591D03*
X004350Y005591D03*
D65*
X004343Y005576D03*
X003563Y006063D03*
X003203Y006821D03*
X003248Y008538D03*
X003255Y008538D03*
X004178Y011778D03*
X004185Y011778D03*
D66*
X003735Y011632D03*
X003728Y012037D03*
X003720Y012052D03*
X003645Y012172D03*
X003413Y008655D03*
X003390Y008647D03*
X003375Y008640D03*
X003368Y008640D03*
X003113Y008535D03*
X003105Y008535D03*
X004343Y006112D03*
D67*
X004335Y006123D03*
X003150Y005576D03*
X003660Y011508D03*
X003668Y011516D03*
X003675Y011531D03*
X003683Y011546D03*
X003690Y011553D03*
X003698Y011568D03*
X003705Y011576D03*
X003713Y011591D03*
X003705Y012086D03*
X003690Y012108D03*
X003585Y012281D03*
D68*
X003623Y012236D03*
X003510Y012386D03*
X003503Y012393D03*
X003818Y012131D03*
X003623Y011426D03*
X003615Y011418D03*
X004193Y011988D03*
X003038Y008531D03*
X002550Y007263D03*
X002468Y007466D03*
X002273Y007293D03*
X002033Y007743D03*
X002198Y007931D03*
X002220Y006108D03*
X004328Y006131D03*
D69*
X004320Y005553D03*
X004313Y005546D03*
X003938Y005538D03*
X003930Y005546D03*
X003533Y006093D03*
X003630Y006836D03*
X003233Y006791D03*
X003225Y006798D03*
X003165Y006086D03*
X003158Y006078D03*
X003210Y008538D03*
X003218Y008538D03*
D70*
X003203Y008535D03*
X003240Y006787D03*
X003518Y006105D03*
X003525Y006097D03*
X003615Y006817D03*
X003623Y006825D03*
X003128Y005617D03*
X003945Y005535D03*
X004298Y005535D03*
X004305Y005542D03*
D71*
X004305Y006150D03*
X002970Y008535D03*
X002610Y007687D03*
X002558Y007485D03*
X002430Y007552D03*
X002663Y007072D03*
X002258Y006112D03*
X002130Y007410D03*
X001920Y007935D03*
X002130Y008085D03*
X003105Y011167D03*
X003113Y011167D03*
X003473Y012435D03*
X003465Y012442D03*
X003338Y012495D03*
X003330Y012495D03*
X003323Y012495D03*
X003150Y012450D03*
D72*
X003128Y012472D03*
X003045Y012367D03*
X003030Y012360D03*
X003023Y012352D03*
X003278Y012472D03*
X003285Y012532D03*
X003293Y012532D03*
X003270Y012540D03*
X003263Y012540D03*
X003233Y012547D03*
X003413Y012360D03*
X003420Y012360D03*
X003428Y012360D03*
X003435Y012360D03*
X003443Y012360D03*
X003450Y012360D03*
X003495Y012240D03*
X003503Y012240D03*
X003510Y012240D03*
X003518Y012240D03*
X003555Y012127D03*
X003563Y012127D03*
X003570Y012127D03*
X003578Y012127D03*
X003585Y012127D03*
X003593Y012127D03*
X003585Y011542D03*
X003563Y011535D03*
X003555Y011535D03*
X003548Y011535D03*
X003533Y011422D03*
X003525Y011422D03*
X003518Y011422D03*
X003510Y011422D03*
X003503Y011422D03*
X003495Y011422D03*
X003098Y011190D03*
X003090Y011197D03*
X003083Y011197D03*
X003075Y011205D03*
X003075Y011145D03*
X003068Y011145D03*
X003083Y011145D03*
X003090Y011145D03*
X003000Y011272D03*
X002993Y011280D03*
X004088Y012015D03*
X002663Y007725D03*
X002655Y007717D03*
X002595Y007530D03*
X001928Y006337D03*
X001905Y007942D03*
X003195Y005527D03*
X004283Y006165D03*
D73*
X004275Y006172D03*
X003203Y005520D03*
X002678Y007732D03*
X003165Y011100D03*
X003195Y011107D03*
X003203Y011107D03*
X003218Y011115D03*
X003225Y011115D03*
X003345Y011280D03*
X003353Y011280D03*
X003503Y011527D03*
X003510Y011527D03*
X003518Y011527D03*
X003735Y011835D03*
X003810Y012165D03*
X003518Y012135D03*
X003510Y012135D03*
X003458Y012247D03*
X003450Y012247D03*
X003443Y012247D03*
X003368Y012352D03*
X003360Y012352D03*
X003353Y012352D03*
X003203Y012555D03*
X003195Y012555D03*
X003188Y012555D03*
X003068Y012472D03*
X003060Y012472D03*
X003053Y012472D03*
X003045Y012472D03*
X003000Y012337D03*
X002993Y012330D03*
X002978Y011295D03*
X003023Y011145D03*
X003030Y011145D03*
X003038Y011145D03*
X003045Y011145D03*
D74*
X003998Y008876D03*
X004005Y008876D03*
X004020Y008883D03*
X004028Y008883D03*
X004035Y008891D03*
X004043Y008891D03*
X003983Y008868D03*
X003960Y008861D03*
X003788Y008298D03*
X003810Y008291D03*
X003833Y008283D03*
X003848Y008276D03*
X003855Y008276D03*
X003863Y008276D03*
X003870Y008268D03*
X003878Y008268D03*
X003885Y008268D03*
X003893Y008261D03*
X003900Y008261D03*
X003908Y008261D03*
X003915Y008253D03*
X003923Y008253D03*
X003938Y008246D03*
X003945Y008246D03*
X003960Y008238D03*
X003968Y008238D03*
X003983Y008231D03*
X004005Y008223D03*
X004028Y008216D03*
X004230Y008141D03*
X004238Y008966D03*
X003458Y006753D03*
X003413Y006146D03*
X003405Y006146D03*
X003398Y006146D03*
X003390Y006146D03*
X003383Y006146D03*
X003435Y006138D03*
X003308Y006146D03*
X003300Y006146D03*
X003293Y006146D03*
X003285Y006146D03*
X003270Y006138D03*
X003263Y006138D03*
X003255Y006138D03*
X003240Y006131D03*
X003135Y005598D03*
X004035Y005493D03*
X004043Y005493D03*
X004050Y005493D03*
X004065Y005486D03*
X004073Y005486D03*
X004080Y005486D03*
X004088Y005486D03*
X004095Y005486D03*
X004163Y005486D03*
X004170Y005486D03*
X004178Y005486D03*
X004185Y005486D03*
X004193Y005486D03*
X004200Y005493D03*
X004208Y005493D03*
X004215Y005493D03*
X003158Y008538D03*
D75*
X003675Y005913D03*
X003683Y005898D03*
X003788Y005726D03*
X002970Y005778D03*
X004230Y011838D03*
X004238Y011838D03*
D76*
X004223Y011977D03*
X003593Y011392D03*
X003585Y011385D03*
X003578Y011377D03*
X003075Y008535D03*
X003068Y008535D03*
X003060Y008535D03*
D77*
X002580Y007541D03*
X002483Y007443D03*
X002490Y007436D03*
X004215Y011981D03*
X003600Y012266D03*
X003593Y012273D03*
D78*
X004208Y011842D03*
X002408Y009795D03*
X002400Y009795D03*
X002393Y009795D03*
X002385Y009795D03*
X002385Y008790D03*
X002393Y008790D03*
X002400Y008790D03*
X002408Y008790D03*
X003158Y006907D03*
X003668Y005925D03*
X003795Y005715D03*
X003855Y007132D03*
D79*
X004193Y008550D03*
X004200Y008550D03*
D80*
X003053Y008535D03*
X003045Y008535D03*
X002475Y007455D03*
X002378Y007687D03*
X001943Y007920D03*
X003158Y005565D03*
X003600Y011400D03*
X003608Y011407D03*
X003810Y011527D03*
X003638Y012210D03*
X003630Y012225D03*
X003615Y012247D03*
X003608Y012255D03*
X003495Y012397D03*
X003488Y012397D03*
X004200Y011985D03*
D81*
X004193Y011775D03*
X003240Y008535D03*
X003645Y006855D03*
X003555Y006075D03*
X003908Y005565D03*
X003210Y006810D03*
X003143Y006060D03*
D82*
X004185Y008553D03*
D83*
X004178Y008550D03*
D84*
X004170Y008553D03*
D85*
X004163Y008550D03*
X004155Y008550D03*
D86*
X004148Y008553D03*
D87*
X004140Y008550D03*
X004133Y008550D03*
D88*
X003188Y006840D03*
X002955Y005782D03*
X004133Y011797D03*
X004118Y011805D03*
D89*
X004118Y008550D03*
X004125Y008550D03*
D90*
X004110Y008553D03*
D91*
X003323Y011156D03*
X003345Y011163D03*
X003368Y011171D03*
X003383Y011178D03*
X003638Y011553D03*
X003645Y011553D03*
X004103Y012011D03*
X004110Y012011D03*
X003420Y012468D03*
X003398Y012476D03*
X003188Y012461D03*
X003180Y012461D03*
X002123Y008088D03*
X002108Y008081D03*
X002055Y008043D03*
X002025Y008021D03*
X002003Y008006D03*
X001973Y007983D03*
X001950Y007968D03*
X001913Y007938D03*
X002123Y007563D03*
X002153Y007376D03*
X002160Y007368D03*
X002168Y007361D03*
X002175Y007353D03*
X002183Y007346D03*
X002243Y007316D03*
X002453Y007518D03*
X002528Y007593D03*
X002535Y007601D03*
X002543Y007608D03*
X002520Y007691D03*
X002633Y007706D03*
X002145Y007856D03*
X003188Y005531D03*
D92*
X004095Y008550D03*
X004103Y008550D03*
D93*
X004088Y008550D03*
X004080Y008550D03*
X004073Y008550D03*
X003158Y009892D03*
X003150Y009892D03*
X003143Y009892D03*
X003135Y009892D03*
X003128Y009892D03*
X003120Y009892D03*
X003113Y009892D03*
X003105Y009892D03*
X003098Y009892D03*
X003090Y009892D03*
X003083Y009892D03*
X003075Y009892D03*
X003068Y009892D03*
X003060Y009892D03*
X003053Y009892D03*
X003045Y009892D03*
X003038Y009892D03*
X003030Y009892D03*
X003023Y009892D03*
X003015Y009892D03*
X003008Y009892D03*
X003000Y009892D03*
X002993Y009892D03*
X002985Y009892D03*
X002978Y009892D03*
X002970Y009892D03*
D94*
X004065Y011827D03*
X004073Y011827D03*
X004080Y011820D03*
X004088Y011820D03*
X003180Y006847D03*
X003128Y006030D03*
X003593Y006030D03*
D95*
X002693Y007053D03*
X002505Y007593D03*
X002685Y007736D03*
X002693Y007743D03*
X001898Y007946D03*
X001920Y006333D03*
X001920Y005883D03*
X003173Y011103D03*
X003180Y011103D03*
X003188Y011103D03*
X003338Y011283D03*
X003428Y011418D03*
X003435Y011418D03*
X003443Y011418D03*
X003503Y012138D03*
X003345Y012348D03*
X003180Y012558D03*
X003038Y012468D03*
X003030Y012468D03*
X002985Y012326D03*
X002970Y011306D03*
X003008Y011148D03*
X003015Y011148D03*
X004065Y012018D03*
D96*
X004058Y011831D03*
X003315Y008538D03*
X003308Y008538D03*
X003600Y006018D03*
X003863Y005613D03*
D97*
X004050Y008546D03*
D98*
X003615Y006000D03*
X003840Y005647D03*
X003960Y011835D03*
X003968Y011835D03*
X003975Y011835D03*
D99*
X003938Y011838D03*
X003750Y011831D03*
D100*
X003923Y011838D03*
D101*
X003915Y011842D03*
D102*
X003908Y011838D03*
D103*
X003900Y008838D03*
X003863Y008823D03*
X003840Y008816D03*
X003825Y008808D03*
X003818Y008808D03*
X003803Y008801D03*
X003795Y008801D03*
X003788Y008793D03*
X003780Y008793D03*
X003773Y008793D03*
X003765Y008786D03*
X003758Y008786D03*
X003743Y008778D03*
X003735Y008778D03*
X003728Y008771D03*
X003720Y008771D03*
X003705Y008763D03*
X003698Y008763D03*
X003683Y008756D03*
X003660Y008748D03*
X003533Y008388D03*
X003525Y008388D03*
X003510Y008396D03*
X003488Y008403D03*
X003465Y008411D03*
X003443Y008418D03*
X003555Y008381D03*
X003570Y008373D03*
X003578Y008373D03*
X003585Y008366D03*
X003593Y008366D03*
X003600Y008366D03*
X003608Y008358D03*
X003615Y008358D03*
X003623Y008358D03*
X003630Y008351D03*
X003638Y008351D03*
X003660Y008343D03*
X003683Y008336D03*
X003705Y008328D03*
X003135Y008538D03*
X002573Y007563D03*
X002565Y007556D03*
X002093Y007541D03*
D104*
X002273Y009296D03*
X002513Y009296D03*
X002985Y007263D03*
X003038Y005786D03*
X003030Y005778D03*
X003825Y007263D03*
X003885Y011838D03*
D105*
X003870Y011838D03*
X003083Y005816D03*
X003075Y005808D03*
D106*
X003045Y005790D03*
X003833Y007260D03*
X003840Y007260D03*
X002505Y009292D03*
X002498Y009292D03*
X002490Y009292D03*
X002295Y009292D03*
X002288Y009292D03*
X002280Y009292D03*
D107*
X003360Y008542D03*
X003630Y005977D03*
X003833Y005655D03*
X002963Y005782D03*
X003818Y011835D03*
D108*
X003743Y011831D03*
X003825Y011741D03*
D109*
X003810Y011835D03*
X003675Y006930D03*
X003638Y005970D03*
X003818Y005677D03*
D110*
X003818Y007267D03*
D111*
X003660Y005936D03*
X003803Y005703D03*
X002415Y008793D03*
X002415Y009791D03*
X003795Y011831D03*
D112*
X003780Y011831D03*
X002963Y007263D03*
X003720Y005838D03*
X003728Y005823D03*
X003735Y005816D03*
X003743Y005801D03*
D113*
X003765Y005763D03*
X003698Y005876D03*
D114*
X003758Y007203D03*
X003038Y007203D03*
D115*
X003750Y007200D03*
D116*
X003563Y008377D03*
X003540Y008385D03*
X003518Y008392D03*
X003503Y008400D03*
X003495Y008400D03*
X003480Y008407D03*
X003473Y008407D03*
X003458Y008415D03*
X003450Y008415D03*
X003435Y008422D03*
X003428Y008422D03*
X003413Y008430D03*
X003405Y008430D03*
X003390Y008437D03*
X003383Y008437D03*
X003368Y008445D03*
X003510Y008692D03*
X003533Y008700D03*
X003548Y008707D03*
X003555Y008707D03*
X003570Y008715D03*
X003578Y008715D03*
X003585Y008722D03*
X003593Y008722D03*
X003600Y008722D03*
X003608Y008730D03*
X003615Y008730D03*
X003623Y008737D03*
X003630Y008737D03*
X003638Y008737D03*
X003645Y008745D03*
X003653Y008745D03*
X003668Y008752D03*
X003675Y008752D03*
X003690Y008760D03*
X003713Y008767D03*
X003750Y008782D03*
X003128Y008535D03*
X003120Y008535D03*
D117*
X003045Y007196D03*
X003743Y007196D03*
D118*
X003735Y007192D03*
X003053Y007192D03*
D119*
X003420Y008426D03*
X003398Y008433D03*
X003375Y008441D03*
X003383Y008643D03*
X003398Y008651D03*
X003405Y008651D03*
X003420Y008658D03*
X003428Y008658D03*
X003435Y008666D03*
X003443Y008666D03*
X003450Y008666D03*
X003458Y008673D03*
X003465Y008673D03*
X003473Y008681D03*
X003480Y008681D03*
X003488Y008681D03*
X003495Y008688D03*
X003503Y008688D03*
X003518Y008696D03*
X003525Y008696D03*
X003540Y008703D03*
X003563Y008711D03*
X002393Y007676D03*
X003143Y005583D03*
X003735Y012026D03*
D120*
X003728Y007185D03*
X003060Y007185D03*
D121*
X003098Y008538D03*
X003653Y011501D03*
X003728Y011621D03*
X003713Y012071D03*
X003660Y012153D03*
X003653Y012161D03*
D122*
X003720Y007181D03*
X003068Y007181D03*
D123*
X003075Y007177D03*
X003713Y007177D03*
D124*
X003705Y007173D03*
X003083Y007173D03*
D125*
X003090Y007170D03*
X003690Y007170D03*
X003698Y007170D03*
D126*
X003683Y007166D03*
X003098Y007166D03*
D127*
X003653Y005947D03*
D128*
X003623Y005988D03*
X003353Y008538D03*
X003345Y008538D03*
D129*
X003143Y007147D03*
D130*
X003135Y007151D03*
D131*
X003128Y007155D03*
X003120Y007155D03*
D132*
X003000Y007241D03*
X003105Y005831D03*
X003113Y005831D03*
X003098Y005823D03*
D133*
X003113Y007158D03*
D134*
X003105Y007162D03*
D135*
X002993Y007252D03*
X003068Y005805D03*
D136*
X003023Y005775D03*
X002978Y007275D03*
X002265Y009292D03*
D137*
X003015Y005775D03*
D138*
X003000Y005775D03*
D139*
X002993Y005775D03*
M02*
