G75*
%MOIN*%
%OFA0B0*%
%FSLAX24Y24*%
%IPPOS*%
%LPD*%
%AMOC8*
5,1,8,0,0,1.08239X$1,22.5*
%
%ADD10R,0.0512X0.0591*%
%ADD11R,0.0591X0.0472*%
%ADD12R,0.0866X0.0197*%
%ADD13C,0.0600*%
%ADD14R,0.0591X0.0512*%
%ADD15R,0.0315X0.0315*%
%ADD16R,0.0787X0.0945*%
%ADD17R,0.0197X0.0909*%
%ADD18R,0.0280X0.0120*%
%ADD19R,0.0690X0.0650*%
%ADD20R,0.0394X0.0433*%
%ADD21C,0.0160*%
%ADD22OC8,0.0396*%
%ADD23C,0.0120*%
D10*
X003306Y005793D03*
X004054Y005793D03*
X004056Y009043D03*
X004804Y009043D03*
X005054Y011043D03*
X004306Y011043D03*
X002804Y011043D03*
X002056Y011043D03*
X002056Y009043D03*
X002804Y009043D03*
D11*
X003251Y009793D03*
X003984Y010168D03*
X005126Y010168D03*
X002109Y009793D03*
D12*
X002188Y008043D03*
X002188Y007547D03*
X002188Y007047D03*
X002188Y006547D03*
X004672Y006543D03*
X004672Y007043D03*
X004672Y007543D03*
X004672Y008043D03*
D13*
X005630Y007793D02*
X006230Y007793D01*
X006230Y008793D02*
X005630Y008793D01*
X005630Y006793D02*
X006230Y006793D01*
X006230Y005793D02*
X005630Y005793D01*
X004930Y003648D02*
X004930Y003048D01*
X003930Y003048D02*
X003930Y003648D01*
X002930Y003648D02*
X002930Y003048D01*
X001930Y003048D02*
X001930Y003648D01*
X001230Y005793D02*
X000630Y005793D01*
X000630Y006793D02*
X001230Y006793D01*
X001230Y007793D02*
X000630Y007793D01*
X000630Y008793D02*
X001230Y008793D01*
D14*
X001180Y009919D03*
X001180Y010667D03*
X006180Y010667D03*
X006180Y009919D03*
X006180Y013169D03*
X006180Y013917D03*
D15*
X006180Y012714D03*
X006180Y012123D03*
X002475Y005793D03*
X001885Y005793D03*
D16*
X001703Y012245D03*
X001703Y014411D03*
X005167Y014411D03*
X005167Y012245D03*
D17*
X004065Y012023D03*
X003750Y012023D03*
X003435Y012023D03*
X003120Y012023D03*
X002805Y012023D03*
D18*
X002873Y002283D03*
X002873Y002083D03*
X002873Y001883D03*
X002873Y001683D03*
X004013Y001683D03*
X004013Y001883D03*
X004013Y002083D03*
X004013Y002283D03*
D19*
X003443Y001983D03*
D20*
X003220Y004398D03*
X002607Y004406D03*
X001938Y004406D03*
X003890Y004398D03*
D21*
X001215Y003414D02*
X001215Y003348D01*
X001490Y003348D01*
X001490Y003736D01*
X001557Y003898D01*
X001681Y004021D01*
X001718Y004037D01*
X001718Y004049D01*
X001683Y004049D01*
X001601Y004131D01*
X001601Y004680D01*
X001683Y004762D01*
X001758Y004762D01*
X001839Y004843D01*
X002101Y005106D01*
X003039Y005106D01*
X003167Y004977D01*
X003390Y004755D01*
X003475Y004755D01*
X003555Y004675D01*
X003635Y004755D01*
X004144Y004755D01*
X004226Y004673D01*
X004226Y004564D01*
X004960Y005852D01*
X004960Y005884D01*
X005003Y005928D01*
X005034Y005981D01*
X005066Y005990D01*
X005089Y006013D01*
X005150Y006013D01*
X005210Y006030D01*
X005238Y006013D01*
X005245Y006013D01*
X005257Y006043D01*
X005313Y006099D01*
X005107Y006305D01*
X004181Y006305D01*
X004099Y006387D01*
X004099Y006700D01*
X004181Y006782D01*
X005163Y006782D01*
X005181Y006763D01*
X005190Y006763D01*
X005190Y006823D01*
X005181Y006823D01*
X005163Y006805D01*
X004181Y006805D01*
X004162Y006823D01*
X004146Y006823D01*
X004025Y006702D01*
X004025Y006384D01*
X004181Y006229D01*
X004368Y006229D01*
X004450Y006147D01*
X004450Y005440D01*
X004368Y005358D01*
X003740Y005358D01*
X003680Y005418D01*
X003620Y005358D01*
X002992Y005358D01*
X002910Y005440D01*
X002910Y005573D01*
X002768Y005573D01*
X002691Y005496D01*
X002260Y005496D01*
X002202Y005553D01*
X002186Y005525D01*
X002153Y005492D01*
X002112Y005468D01*
X002066Y005456D01*
X001885Y005456D01*
X001885Y005793D01*
X001885Y005793D01*
X001885Y005456D01*
X001704Y005456D01*
X001658Y005468D01*
X001617Y005492D01*
X001609Y005499D01*
X001596Y005481D01*
X001543Y005427D01*
X001482Y005383D01*
X001414Y005348D01*
X001342Y005325D01*
X001268Y005313D01*
X000950Y005313D01*
X000950Y005773D01*
X000910Y005773D01*
X000910Y005313D01*
X000592Y005313D01*
X000518Y005325D01*
X000446Y005348D01*
X000378Y005383D01*
X000340Y005411D01*
X000340Y003508D01*
X000989Y003508D01*
X000989Y003509D01*
X001055Y003508D01*
X001121Y003508D01*
X001122Y003508D01*
X001122Y003508D01*
X001168Y003461D01*
X001215Y003415D01*
X001215Y003414D01*
X001215Y003414D01*
X001138Y003492D02*
X001490Y003492D01*
X001490Y003650D02*
X000340Y003650D01*
X000340Y003809D02*
X001520Y003809D01*
X001627Y003967D02*
X000340Y003967D01*
X000340Y004126D02*
X001606Y004126D01*
X001601Y004284D02*
X000340Y004284D01*
X000340Y004443D02*
X001601Y004443D01*
X001601Y004601D02*
X000340Y004601D01*
X000340Y004760D02*
X001680Y004760D01*
X001914Y004918D02*
X000340Y004918D01*
X000340Y005077D02*
X002072Y005077D01*
X002193Y004886D02*
X001930Y004623D01*
X001930Y004414D01*
X001938Y004406D01*
X001938Y003356D01*
X001937Y003352D01*
X001934Y003349D01*
X001930Y003348D01*
X002607Y003671D02*
X002930Y003348D01*
X002607Y003671D02*
X002607Y004406D01*
X002948Y004886D02*
X002193Y004886D01*
X002202Y005552D02*
X002203Y005552D01*
X002202Y006033D02*
X002186Y006061D01*
X002153Y006095D01*
X002112Y006119D01*
X002066Y006131D01*
X001885Y006131D01*
X001885Y005793D01*
X001547Y005793D01*
X001547Y005773D01*
X000950Y005773D01*
X000950Y005813D01*
X001547Y005813D01*
X001547Y005793D01*
X001885Y005793D01*
X001885Y005793D01*
X001885Y005793D01*
X001885Y006131D01*
X001704Y006131D01*
X001658Y006119D01*
X001617Y006095D01*
X001609Y006088D01*
X001596Y006106D01*
X001543Y006159D01*
X001482Y006204D01*
X001414Y006238D01*
X001342Y006261D01*
X001268Y006273D01*
X000950Y006273D01*
X000950Y005813D01*
X000910Y005813D01*
X000910Y006273D01*
X000592Y006273D01*
X000518Y006261D01*
X000446Y006238D01*
X000378Y006204D01*
X000340Y006176D01*
X000340Y006461D01*
X000381Y006420D01*
X000542Y006353D01*
X001318Y006353D01*
X001479Y006420D01*
X001575Y006516D01*
X001575Y006425D01*
X001587Y006379D01*
X001611Y006338D01*
X001645Y006305D01*
X001686Y006281D01*
X001731Y006269D01*
X002188Y006269D01*
X002188Y006547D01*
X002188Y006547D01*
X002188Y006269D01*
X002645Y006269D01*
X002691Y006281D01*
X002732Y006305D01*
X002765Y006338D01*
X002789Y006379D01*
X002801Y006425D01*
X002801Y006547D01*
X002188Y006547D01*
X002188Y006547D01*
X002801Y006547D01*
X002801Y006669D01*
X002789Y006715D01*
X002765Y006756D01*
X002732Y006790D01*
X002691Y006813D01*
X002685Y006815D01*
X002698Y006827D01*
X002775Y006827D01*
X003521Y007573D01*
X003650Y007702D01*
X003650Y008326D01*
X003932Y008608D01*
X004370Y008608D01*
X004430Y008668D01*
X004490Y008608D01*
X005118Y008608D01*
X005198Y008688D01*
X005257Y008544D01*
X005313Y008488D01*
X005107Y008282D01*
X004181Y008282D01*
X004099Y008200D01*
X004099Y007887D01*
X004181Y007805D01*
X005163Y007805D01*
X005181Y007823D01*
X005190Y007823D01*
X005190Y007763D01*
X005181Y007763D01*
X005163Y007782D01*
X004181Y007782D01*
X004099Y007700D01*
X004099Y007387D01*
X004181Y007305D01*
X005163Y007305D01*
X005181Y007323D01*
X005771Y007323D01*
X005801Y007353D01*
X006318Y007353D01*
X006479Y007420D01*
X006515Y007456D01*
X006515Y007130D01*
X006479Y007166D01*
X006318Y007233D01*
X005801Y007233D01*
X005771Y007263D01*
X005181Y007263D01*
X005163Y007282D01*
X004181Y007282D01*
X004162Y007263D01*
X003964Y007263D01*
X003835Y007134D01*
X003585Y006884D01*
X003585Y006229D01*
X002992Y006229D01*
X002910Y006147D01*
X002910Y006013D01*
X002768Y006013D01*
X002691Y006091D01*
X002260Y006091D01*
X002202Y006033D01*
X002188Y006345D02*
X002188Y006345D01*
X002188Y006503D02*
X002188Y006503D01*
X002188Y007047D02*
X002684Y007047D01*
X003430Y007793D01*
X003430Y008417D01*
X004056Y009043D01*
X003934Y009479D02*
X003742Y009479D01*
X003660Y009397D01*
X003660Y008959D01*
X003210Y008508D01*
X003210Y007884D01*
X003150Y007824D01*
X003150Y008640D01*
X003200Y008690D01*
X003200Y009377D01*
X003213Y009377D01*
X003213Y009755D01*
X003289Y009755D01*
X003289Y009377D01*
X003570Y009377D01*
X003616Y009389D01*
X003657Y009413D01*
X003690Y009447D01*
X003714Y009488D01*
X003726Y009533D01*
X003726Y009755D01*
X003289Y009755D01*
X003289Y009831D01*
X003592Y009831D01*
X003631Y009792D01*
X003764Y009792D01*
X003764Y009648D01*
X003934Y009479D01*
X003897Y009515D02*
X003721Y009515D01*
X003726Y009673D02*
X003764Y009673D01*
X003660Y009356D02*
X003200Y009356D01*
X003200Y009198D02*
X003660Y009198D01*
X003660Y009039D02*
X003200Y009039D01*
X003200Y008881D02*
X003582Y008881D01*
X003424Y008722D02*
X003200Y008722D01*
X003150Y008564D02*
X003265Y008564D01*
X003210Y008405D02*
X003150Y008405D01*
X003150Y008247D02*
X003210Y008247D01*
X003210Y008088D02*
X003150Y008088D01*
X003150Y007930D02*
X003210Y007930D01*
X003402Y007454D02*
X004099Y007454D01*
X004099Y007613D02*
X003561Y007613D01*
X003650Y007771D02*
X004170Y007771D01*
X004099Y007930D02*
X003650Y007930D01*
X003650Y008088D02*
X004099Y008088D01*
X004146Y008247D02*
X003650Y008247D01*
X003729Y008405D02*
X005231Y008405D01*
X005249Y008564D02*
X003888Y008564D01*
X004180Y009543D02*
X004430Y009543D01*
X004680Y009293D01*
X004680Y009167D01*
X004804Y009043D01*
X004806Y009479D02*
X004521Y009763D01*
X004271Y009763D01*
X004242Y009792D01*
X004337Y009792D01*
X004419Y009874D01*
X004419Y010463D01*
X004337Y010545D01*
X004082Y010545D01*
X004118Y010581D01*
X004118Y010608D01*
X004620Y010608D01*
X004652Y010641D01*
X004654Y010638D01*
X004688Y010604D01*
X004729Y010580D01*
X004760Y010572D01*
X004720Y010549D01*
X004687Y010515D01*
X004663Y010474D01*
X004651Y010428D01*
X004651Y010206D01*
X005088Y010206D01*
X005088Y010130D01*
X004651Y010130D01*
X004651Y009908D01*
X004663Y009863D01*
X004687Y009822D01*
X004720Y009788D01*
X004761Y009764D01*
X004807Y009752D01*
X005036Y009752D01*
X004967Y009683D01*
X004967Y009479D01*
X004806Y009479D01*
X004770Y009515D02*
X004967Y009515D01*
X004967Y009673D02*
X004611Y009673D01*
X004681Y009832D02*
X004377Y009832D01*
X004419Y009990D02*
X004651Y009990D01*
X004651Y010307D02*
X004419Y010307D01*
X004419Y010149D02*
X005088Y010149D01*
X005088Y010206D02*
X005088Y010585D01*
X005006Y010585D01*
X005006Y010995D01*
X005102Y010995D01*
X005102Y010568D01*
X005164Y010568D01*
X005164Y010206D01*
X005601Y010206D01*
X005601Y010428D01*
X005589Y010474D01*
X005565Y010515D01*
X005532Y010549D01*
X005491Y010572D01*
X005445Y010585D01*
X005387Y010585D01*
X005420Y010604D01*
X005454Y010638D01*
X005478Y010679D01*
X005490Y010724D01*
X005490Y010995D01*
X005102Y010995D01*
X005102Y011091D01*
X005490Y011091D01*
X005490Y011163D01*
X005530Y011123D01*
X005697Y011123D01*
X005792Y011028D01*
X005745Y010981D01*
X005745Y010353D01*
X005805Y010293D01*
X005745Y010233D01*
X005745Y010148D01*
X005733Y010139D01*
X005715Y010139D01*
X005661Y010086D01*
X005601Y010041D01*
X005601Y010130D01*
X005164Y010130D01*
X005164Y010206D01*
X005088Y010206D01*
X005164Y010149D02*
X005745Y010149D01*
X005791Y010307D02*
X005601Y010307D01*
X005591Y010466D02*
X005745Y010466D01*
X005745Y010624D02*
X005441Y010624D01*
X005490Y010783D02*
X005745Y010783D01*
X005745Y010941D02*
X005490Y010941D01*
X005490Y011100D02*
X005720Y011100D01*
X005670Y011461D02*
X006180Y010951D01*
X006180Y010667D01*
X006379Y011063D02*
X006008Y011434D01*
X006008Y011601D01*
X005810Y011799D01*
X005701Y011799D01*
X005701Y012776D01*
X005619Y012858D01*
X004806Y012858D01*
X005021Y013073D01*
X005521Y013073D01*
X005650Y013202D01*
X005745Y013297D01*
X005745Y012855D01*
X005827Y012773D01*
X005883Y012773D01*
X005883Y012498D01*
X005940Y012441D01*
X005912Y012425D01*
X005878Y012391D01*
X005855Y012350D01*
X005843Y012304D01*
X005843Y012123D01*
X005843Y011942D01*
X005855Y011896D01*
X005878Y011855D01*
X005912Y011822D01*
X005953Y011798D01*
X005999Y011786D01*
X006180Y011786D01*
X006361Y011786D01*
X006407Y011798D01*
X006448Y011822D01*
X006482Y011855D01*
X006505Y011896D01*
X006515Y011933D01*
X006515Y011063D01*
X006379Y011063D01*
X006342Y011100D02*
X006515Y011100D01*
X006515Y011258D02*
X006184Y011258D01*
X006025Y011417D02*
X006515Y011417D01*
X006515Y011575D02*
X006008Y011575D01*
X005875Y011734D02*
X006515Y011734D01*
X006503Y011892D02*
X006515Y011892D01*
X006180Y011892D02*
X006180Y011892D01*
X006180Y011786D02*
X006180Y012123D01*
X006180Y012123D01*
X006180Y011786D01*
X006180Y012051D02*
X006180Y012051D01*
X006180Y012123D02*
X005843Y012123D01*
X006180Y012123D01*
X006180Y012123D01*
X006180Y012714D02*
X006180Y013169D01*
X005883Y012685D02*
X005701Y012685D01*
X005701Y012526D02*
X005883Y012526D01*
X005865Y012368D02*
X005701Y012368D01*
X005701Y012209D02*
X005843Y012209D01*
X005843Y012051D02*
X005701Y012051D01*
X005701Y011892D02*
X005857Y011892D01*
X005588Y011543D02*
X005670Y011461D01*
X005588Y011543D02*
X004430Y011543D01*
X004306Y011419D01*
X004306Y011043D01*
X004065Y011284D01*
X004065Y012023D01*
X004065Y012418D01*
X004060Y012423D01*
X004930Y013293D01*
X004533Y013691D01*
X001830Y013691D01*
X001683Y013543D01*
X001680Y013543D01*
X000930Y012793D01*
X000930Y011543D01*
X001180Y011293D01*
X001806Y011293D01*
X002056Y011043D01*
X001932Y011479D02*
X001897Y011513D01*
X001271Y011513D01*
X001150Y011634D01*
X001150Y012702D01*
X001169Y012721D01*
X001169Y011715D01*
X001251Y011633D01*
X002154Y011633D01*
X002236Y011715D01*
X002236Y012776D01*
X002154Y012858D01*
X001306Y012858D01*
X001771Y013323D01*
X001774Y013323D01*
X001921Y013471D01*
X002305Y013471D01*
X002266Y013432D01*
X002212Y013301D01*
X002212Y013159D01*
X002266Y013027D01*
X002367Y012927D01*
X002498Y012873D01*
X002640Y012873D01*
X002771Y012927D01*
X002871Y013027D01*
X002926Y013159D01*
X002926Y013301D01*
X002871Y013432D01*
X002832Y013471D01*
X004038Y013471D01*
X003999Y013432D01*
X003944Y013301D01*
X003944Y013159D01*
X003999Y013027D01*
X004099Y012927D01*
X004208Y012882D01*
X003969Y012643D01*
X003969Y012643D01*
X003943Y012618D01*
X003909Y012618D01*
X003907Y012617D01*
X003906Y012618D01*
X003594Y012618D01*
X003592Y012617D01*
X003591Y012618D01*
X003279Y012618D01*
X003278Y012617D01*
X003276Y012618D01*
X003018Y012618D01*
X003014Y012622D01*
X002973Y012645D01*
X002927Y012658D01*
X002805Y012658D01*
X002683Y012658D01*
X002637Y012645D01*
X002596Y012622D01*
X002563Y012588D01*
X002539Y012547D01*
X002527Y012501D01*
X002527Y012023D01*
X002527Y011545D01*
X002534Y011519D01*
X002524Y011519D01*
X002479Y011506D01*
X002438Y011483D01*
X002404Y011449D01*
X002402Y011446D01*
X002370Y011479D01*
X001932Y011479D01*
X002236Y011734D02*
X002527Y011734D01*
X002527Y011892D02*
X002236Y011892D01*
X002236Y012051D02*
X002527Y012051D01*
X002527Y012023D02*
X002805Y012023D01*
X002805Y012023D01*
X002805Y011389D01*
X002756Y011389D01*
X002756Y011091D01*
X002852Y011091D01*
X002852Y011389D01*
X002805Y011389D01*
X002805Y012023D01*
X002527Y012023D01*
X002527Y012209D02*
X002236Y012209D01*
X002236Y012368D02*
X002527Y012368D01*
X002533Y012526D02*
X002236Y012526D01*
X002236Y012685D02*
X004010Y012685D01*
X004169Y012843D02*
X002169Y012843D01*
X002292Y013002D02*
X001450Y013002D01*
X001608Y013160D02*
X002212Y013160D01*
X002220Y013319D02*
X001767Y013319D01*
X001169Y012685D02*
X001150Y012685D01*
X001150Y012526D02*
X001169Y012526D01*
X001169Y012368D02*
X001150Y012368D01*
X001150Y012209D02*
X001169Y012209D01*
X001169Y012051D02*
X001150Y012051D01*
X001150Y011892D02*
X001169Y011892D01*
X001169Y011734D02*
X001150Y011734D01*
X001209Y011575D02*
X002527Y011575D01*
X002805Y011575D02*
X002805Y011575D01*
X002805Y011417D02*
X002805Y011417D01*
X002852Y011258D02*
X002756Y011258D01*
X002756Y011100D02*
X002852Y011100D01*
X002805Y011044D02*
X002804Y011043D01*
X002805Y011044D02*
X002805Y012023D01*
X002805Y012023D01*
X002805Y012658D01*
X002805Y012023D01*
X002805Y012023D01*
X002805Y012051D02*
X002805Y012051D01*
X002805Y012209D02*
X002805Y012209D01*
X002805Y012368D02*
X002805Y012368D01*
X002805Y012526D02*
X002805Y012526D01*
X002846Y013002D02*
X004024Y013002D01*
X003944Y013160D02*
X002926Y013160D01*
X002918Y013319D02*
X003952Y013319D01*
X003750Y012023D02*
X003750Y010818D01*
X003780Y010721D01*
X003957Y010196D02*
X003984Y010168D01*
X003984Y009739D01*
X004180Y009543D01*
X003957Y010196D02*
X003443Y010196D01*
X003435Y010203D01*
X003435Y012023D01*
X004060Y011289D02*
X004065Y011284D01*
X004416Y010466D02*
X004661Y010466D01*
X004667Y010624D02*
X004636Y010624D01*
X005006Y010624D02*
X005102Y010624D01*
X005088Y010466D02*
X005164Y010466D01*
X005164Y010307D02*
X005088Y010307D01*
X005102Y010783D02*
X005006Y010783D01*
X005006Y010941D02*
X005102Y010941D01*
X005806Y009919D02*
X005305Y009543D01*
X005806Y009919D02*
X006180Y009919D01*
X005930Y008793D02*
X005180Y008043D01*
X004672Y008043D01*
X004672Y007543D02*
X005680Y007543D01*
X005930Y007793D01*
X005680Y007043D02*
X005930Y006793D01*
X005680Y007043D02*
X004672Y007043D01*
X004055Y007043D01*
X003805Y006793D01*
X003805Y006293D01*
X004054Y006044D01*
X004054Y005793D01*
X004065Y006345D02*
X004141Y006345D01*
X004099Y006503D02*
X004025Y006503D01*
X004025Y006662D02*
X004099Y006662D01*
X004143Y006820D02*
X004165Y006820D01*
X004410Y006186D02*
X005226Y006186D01*
X005213Y006028D02*
X005251Y006028D01*
X005203Y006028D02*
X004450Y006028D01*
X004450Y005869D02*
X004960Y005869D01*
X004880Y005711D02*
X004450Y005711D01*
X004450Y005552D02*
X004790Y005552D01*
X004699Y005394D02*
X004404Y005394D01*
X004519Y005077D02*
X003068Y005077D01*
X002948Y004886D02*
X003220Y004613D01*
X003220Y004398D01*
X003385Y004760D02*
X004338Y004760D01*
X004429Y004918D02*
X003226Y004918D01*
X002956Y005394D02*
X001497Y005394D01*
X001506Y006186D02*
X002950Y006186D01*
X002910Y006028D02*
X002754Y006028D01*
X002769Y006345D02*
X003585Y006345D01*
X003585Y006503D02*
X002801Y006503D01*
X002801Y006662D02*
X003585Y006662D01*
X003585Y006820D02*
X002691Y006820D01*
X002927Y006979D02*
X003679Y006979D01*
X003838Y007137D02*
X003085Y007137D01*
X003244Y007296D02*
X006515Y007296D01*
X006513Y007454D02*
X006515Y007454D01*
X006508Y007137D02*
X006515Y007137D01*
X005180Y006543D02*
X005930Y005793D01*
X005180Y005793D01*
X004258Y004175D01*
X003890Y004398D01*
X004226Y004601D02*
X004248Y004601D01*
X004258Y004175D02*
X003930Y003598D01*
X003930Y003348D01*
X004370Y003348D02*
X004370Y003736D01*
X004324Y003846D01*
X004404Y003987D01*
X004404Y003987D01*
X004448Y004064D01*
X004494Y004139D01*
X004493Y004142D01*
X005279Y005522D01*
X005381Y005420D01*
X005542Y005353D01*
X006318Y005353D01*
X006479Y005420D01*
X006515Y005456D01*
X006515Y003508D01*
X005869Y003508D01*
X005867Y003510D01*
X005803Y003508D01*
X005739Y003508D01*
X005737Y003507D01*
X005735Y003507D01*
X005690Y003460D01*
X005645Y003415D01*
X005645Y003412D01*
X005643Y003410D01*
X005645Y003348D01*
X004950Y003348D01*
X004950Y003368D01*
X005410Y003368D01*
X005410Y003686D01*
X005398Y003761D01*
X005375Y003833D01*
X005341Y003900D01*
X005296Y003961D01*
X005243Y004014D01*
X005182Y004059D01*
X005114Y004093D01*
X005042Y004116D01*
X004968Y004128D01*
X004950Y004128D01*
X004950Y003368D01*
X004910Y003368D01*
X004910Y003348D01*
X004370Y003348D01*
X004450Y003368D02*
X004910Y003368D01*
X004910Y004128D01*
X004892Y004128D01*
X004818Y004116D01*
X004746Y004093D01*
X004678Y004059D01*
X004617Y004014D01*
X004564Y003961D01*
X004519Y003900D01*
X004485Y003833D01*
X004462Y003761D01*
X004450Y003686D01*
X004450Y003368D01*
X004450Y003492D02*
X004370Y003492D01*
X004370Y003650D02*
X004450Y003650D01*
X004477Y003809D02*
X004340Y003809D01*
X004393Y003967D02*
X004570Y003967D01*
X004486Y004126D02*
X004876Y004126D01*
X004910Y004126D02*
X004950Y004126D01*
X004984Y004126D02*
X006515Y004126D01*
X006515Y004284D02*
X004574Y004284D01*
X004664Y004443D02*
X006515Y004443D01*
X006515Y004601D02*
X004754Y004601D01*
X004845Y004760D02*
X006515Y004760D01*
X006515Y004918D02*
X004935Y004918D01*
X005025Y005077D02*
X006515Y005077D01*
X006515Y005235D02*
X005115Y005235D01*
X005206Y005394D02*
X005445Y005394D01*
X005180Y006543D02*
X004672Y006543D01*
X005178Y006820D02*
X005190Y006820D01*
X005173Y007771D02*
X005190Y007771D01*
X004609Y005235D02*
X000340Y005235D01*
X000340Y005394D02*
X000363Y005394D01*
X000340Y006186D02*
X000354Y006186D01*
X000340Y006345D02*
X001607Y006345D01*
X001575Y006503D02*
X001562Y006503D01*
X001885Y006028D02*
X001885Y006028D01*
X001885Y005869D02*
X001885Y005869D01*
X001885Y005711D02*
X001885Y005711D01*
X001885Y005552D02*
X001885Y005552D01*
X002475Y005793D02*
X003306Y005793D01*
X003656Y005394D02*
X003704Y005394D01*
X002910Y005552D02*
X002747Y005552D01*
X002188Y007047D02*
X001184Y007047D01*
X000930Y006793D01*
X000910Y006186D02*
X000950Y006186D01*
X000950Y006028D02*
X000910Y006028D01*
X000910Y005869D02*
X000950Y005869D01*
X000950Y005711D02*
X000910Y005711D01*
X000910Y005552D02*
X000950Y005552D01*
X000950Y005394D02*
X000910Y005394D01*
X001430Y007543D02*
X002184Y007543D01*
X002188Y007547D01*
X002684Y007547D01*
X002930Y007793D01*
X002930Y008919D01*
X002804Y009043D01*
X002793Y009479D02*
X002524Y009479D01*
X002544Y009499D01*
X002544Y009894D01*
X002746Y010096D01*
X002787Y010096D01*
X002776Y010053D01*
X002776Y009831D01*
X003213Y009831D01*
X003213Y009755D01*
X002776Y009755D01*
X002776Y009533D01*
X002788Y009488D01*
X002793Y009479D01*
X002781Y009515D02*
X002544Y009515D01*
X002544Y009673D02*
X002776Y009673D01*
X002776Y009832D02*
X002544Y009832D01*
X002641Y009990D02*
X002776Y009990D01*
X002655Y010316D02*
X003083Y010316D01*
X002857Y010568D02*
X002824Y010536D01*
X002564Y010536D01*
X002435Y010407D01*
X002198Y010170D01*
X001756Y010170D01*
X001674Y010088D01*
X001674Y010013D01*
X001615Y010013D01*
X001615Y010233D01*
X001555Y010293D01*
X001615Y010353D01*
X001615Y010981D01*
X001533Y011063D01*
X001400Y011063D01*
X001400Y011073D01*
X001660Y011073D01*
X001660Y010690D01*
X001742Y010608D01*
X002370Y010608D01*
X002402Y010641D01*
X002404Y010638D01*
X002438Y010604D01*
X002479Y010580D01*
X002524Y010568D01*
X002756Y010568D01*
X002756Y010995D01*
X002852Y010995D01*
X002852Y010568D01*
X002857Y010568D01*
X002852Y010624D02*
X002756Y010624D01*
X002756Y010783D02*
X002852Y010783D01*
X002852Y010941D02*
X002756Y010941D01*
X002494Y010466D02*
X001615Y010466D01*
X001615Y010624D02*
X001726Y010624D01*
X001660Y010783D02*
X001615Y010783D01*
X001615Y010941D02*
X001660Y010941D01*
X001569Y010307D02*
X002335Y010307D01*
X002386Y010624D02*
X002417Y010624D01*
X002655Y010316D02*
X002133Y009793D01*
X002109Y009793D01*
X001306Y009793D01*
X001180Y009919D01*
X001180Y010667D02*
X001180Y011293D01*
X001615Y010149D02*
X001735Y010149D01*
X002109Y009793D02*
X002109Y009240D01*
X002056Y009043D01*
X002180Y008418D02*
X002180Y008052D01*
X002188Y008043D01*
X001680Y008043D01*
X000930Y008793D01*
X000930Y007793D02*
X001180Y007793D01*
X001430Y007543D01*
X003213Y009515D02*
X003289Y009515D01*
X003289Y009673D02*
X003213Y009673D01*
X002805Y011734D02*
X002805Y011734D01*
X002805Y011892D02*
X002805Y011892D01*
X004930Y013293D02*
X005430Y013293D01*
X006054Y013917D01*
X006180Y013917D01*
X005745Y013160D02*
X005608Y013160D01*
X005745Y013002D02*
X004950Y013002D01*
X005633Y012843D02*
X005757Y012843D01*
X006415Y005394D02*
X006515Y005394D01*
X006515Y003967D02*
X005290Y003967D01*
X005383Y003809D02*
X006515Y003809D01*
X006515Y003650D02*
X005410Y003650D01*
X005410Y003492D02*
X005721Y003492D01*
X004950Y003492D02*
X004910Y003492D01*
X004910Y003650D02*
X004950Y003650D01*
X004950Y003809D02*
X004910Y003809D01*
X004910Y003967D02*
X004950Y003967D01*
D22*
X005715Y004486D03*
X003430Y005043D03*
X002490Y005298D03*
X002180Y008418D03*
X002055Y010418D03*
X003083Y010316D03*
X003430Y009168D03*
X003780Y010721D03*
X005305Y009543D03*
X005555Y010668D03*
X005670Y011461D03*
X006180Y011543D03*
D23*
X004930Y003348D02*
X004930Y002293D01*
X004695Y002231D02*
X004695Y002583D01*
X003930Y003348D01*
X003930Y003311D01*
X003688Y002591D02*
X002930Y003348D01*
X001935Y002598D02*
X001937Y002540D01*
X001942Y002482D01*
X001951Y002425D01*
X001964Y002368D01*
X001980Y002313D01*
X002000Y002258D01*
X002023Y002205D01*
X002049Y002153D01*
X002079Y002103D01*
X002111Y002055D01*
X002147Y002010D01*
X002185Y001966D01*
X002226Y001925D01*
X002270Y001887D01*
X002315Y001851D01*
X002363Y001819D01*
X002413Y001789D01*
X002465Y001763D01*
X002518Y001740D01*
X002573Y001720D01*
X002628Y001704D01*
X002685Y001691D01*
X002742Y001682D01*
X002800Y001677D01*
X002858Y001675D01*
X002873Y001883D02*
X002873Y002083D01*
X002873Y002283D01*
X002873Y001883D02*
X003343Y001883D01*
X003443Y001983D01*
X003743Y002283D01*
X004013Y002283D01*
X004148Y001683D02*
X004193Y001685D01*
X004238Y001690D01*
X004283Y001700D01*
X004326Y001713D01*
X004368Y001729D01*
X004409Y001749D01*
X004448Y001772D01*
X004485Y001799D01*
X004519Y001828D01*
X004551Y001860D01*
X004580Y001894D01*
X004607Y001931D01*
X004630Y001970D01*
X004650Y002011D01*
X004666Y002053D01*
X004679Y002096D01*
X004689Y002141D01*
X004694Y002186D01*
X004696Y002231D01*
X004448Y002186D02*
X004448Y002486D01*
X004343Y002591D01*
X003688Y002591D01*
X004930Y002293D02*
X004928Y002230D01*
X004923Y002168D01*
X004914Y002106D01*
X004901Y002045D01*
X004885Y001985D01*
X004865Y001925D01*
X004842Y001867D01*
X004816Y001811D01*
X004786Y001756D01*
X004753Y001702D01*
X004717Y001651D01*
X004678Y001602D01*
X004637Y001555D01*
X004593Y001511D01*
X004546Y001470D01*
X004497Y001431D01*
X004446Y001395D01*
X004393Y001362D01*
X004337Y001332D01*
X004281Y001306D01*
X004223Y001283D01*
X004163Y001263D01*
X004103Y001247D01*
X004042Y001234D01*
X003980Y001225D01*
X003918Y001220D01*
X003855Y001218D01*
X003720Y001218D01*
X003443Y001496D01*
X003443Y001983D01*
X004013Y001883D02*
X004145Y001883D01*
X004148Y001683D02*
X004013Y001683D01*
X004145Y001883D02*
X004179Y001885D01*
X004212Y001891D01*
X004245Y001900D01*
X004276Y001913D01*
X004306Y001929D01*
X004334Y001949D01*
X004359Y001972D01*
X004382Y001997D01*
X004402Y002025D01*
X004418Y002055D01*
X004431Y002086D01*
X004440Y002119D01*
X004446Y002152D01*
X004448Y002186D01*
X001935Y002598D02*
X001935Y003326D01*
M02*
