%
M48
M72
T01C0.0236
T02C0.0394
T03C0.0400
%
T01
X2430Y4106
X3430Y4098
X2180Y7473
X2055Y9473
X3083Y9371
X3430Y8223
X3780Y9776
X5305Y8598
X5555Y9723
X5670Y10516
X6180Y10598
X6180Y3848
T02
X4301Y12285
X2569Y12285
T03
X1930Y3348
X2930Y3348
X3930Y3348
X4930Y3348
X5930Y4848
X5930Y5848
X5930Y6848
X5930Y7848
X930Y7848
X930Y6848
X930Y5848
X930Y4848
M30
