G75*
%MOIN*%
%OFA0B0*%
%FSLAX24Y24*%
%IPPOS*%
%LPD*%
%AMOC8*
5,1,8,0,0,1.08239X$1,22.5*
%
%ADD10C,0.0600*%
%ADD11OC8,0.0396*%
%ADD12C,0.0160*%
D10*
X001930Y003048D02*
X001930Y003648D01*
X001230Y004848D02*
X000630Y004848D01*
X000630Y005848D02*
X001230Y005848D01*
X001230Y006848D02*
X000630Y006848D01*
X000630Y007848D02*
X001230Y007848D01*
X002930Y003648D02*
X002930Y003048D01*
X003930Y003048D02*
X003930Y003648D01*
X004930Y003648D02*
X004930Y003048D01*
X005630Y004848D02*
X006230Y004848D01*
X006230Y005848D02*
X005630Y005848D01*
X005630Y006848D02*
X006230Y006848D01*
X006230Y007848D02*
X005630Y007848D01*
D11*
X005305Y008598D03*
X005555Y009723D03*
X005670Y010516D03*
X006180Y010598D03*
X003780Y009776D03*
X003430Y008223D03*
X003083Y009371D03*
X002180Y007473D03*
X002055Y009473D03*
X002430Y004106D03*
X003430Y004098D03*
X006180Y003848D03*
D12*
X001215Y003414D02*
X001215Y003348D01*
X001490Y003348D01*
X001490Y003736D01*
X001557Y003898D01*
X001681Y004021D01*
X001710Y004033D01*
X001710Y004885D01*
X001710Y004885D01*
X001710Y004868D01*
X000950Y004868D01*
X000950Y004828D01*
X000950Y004368D01*
X001268Y004368D01*
X001342Y004380D01*
X001414Y004403D01*
X001482Y004438D01*
X001543Y004482D01*
X001596Y004536D01*
X001641Y004597D01*
X001675Y004664D01*
X001698Y004736D01*
X001710Y004811D01*
X001710Y004828D01*
X000950Y004828D01*
X000910Y004828D01*
X000910Y004368D01*
X000592Y004368D01*
X000518Y004380D01*
X000446Y004403D01*
X000378Y004438D01*
X000340Y004466D01*
X000340Y003508D01*
X000989Y003508D01*
X000989Y003509D01*
X001055Y003508D01*
X001121Y003508D01*
X001122Y003508D01*
X001122Y003508D01*
X001168Y003461D01*
X001215Y003415D01*
X001215Y003414D01*
X001215Y003414D01*
X001132Y003498D02*
X001490Y003498D01*
X001490Y003656D02*
X000340Y003656D01*
X000340Y003815D02*
X001523Y003815D01*
X001633Y003973D02*
X000340Y003973D01*
X000340Y004132D02*
X001710Y004132D01*
X001710Y004290D02*
X000340Y004290D01*
X000340Y004449D02*
X000363Y004449D01*
X000340Y005231D02*
X000340Y005516D01*
X000381Y005475D01*
X000542Y005408D01*
X001318Y005408D01*
X001479Y005475D01*
X001603Y005599D01*
X001670Y005761D01*
X001670Y005936D01*
X001603Y006098D01*
X001479Y006221D01*
X001318Y006288D01*
X000542Y006288D01*
X000381Y006221D01*
X000340Y006181D01*
X000340Y006516D01*
X000381Y006475D01*
X000542Y006408D01*
X001318Y006408D01*
X001479Y006475D01*
X001603Y006599D01*
X001670Y006761D01*
X001670Y006936D01*
X001603Y007098D01*
X001479Y007221D01*
X001318Y007288D01*
X000542Y007288D01*
X000381Y007221D01*
X000340Y007181D01*
X000340Y007516D01*
X000381Y007475D01*
X000542Y007408D01*
X001318Y007408D01*
X001479Y007475D01*
X001603Y007599D01*
X001670Y007761D01*
X001670Y007936D01*
X001603Y008098D01*
X001479Y008221D01*
X001318Y008288D01*
X000542Y008288D01*
X000381Y008221D01*
X000340Y008181D01*
X000340Y013934D01*
X006515Y013934D01*
X006515Y008185D01*
X006479Y008221D01*
X006318Y008288D01*
X006150Y008288D01*
X006150Y010347D01*
X006008Y010489D01*
X006008Y010656D01*
X005810Y010854D01*
X005530Y010854D01*
X005332Y010656D01*
X005332Y010376D01*
X005530Y010178D01*
X005697Y010178D01*
X005710Y010165D01*
X005710Y008288D01*
X005542Y008288D01*
X005381Y008221D01*
X005257Y008098D01*
X005245Y008068D01*
X004961Y008068D01*
X005159Y008266D01*
X005165Y008260D01*
X005445Y008260D01*
X005643Y008458D01*
X005643Y008738D01*
X005445Y008936D01*
X005165Y008936D01*
X004967Y008738D01*
X004967Y008693D01*
X004964Y008693D01*
X004925Y008654D01*
X004875Y008629D01*
X004863Y008592D01*
X003589Y007318D01*
X002503Y007318D01*
X002518Y007333D01*
X002518Y007613D01*
X002320Y007811D01*
X002040Y007811D01*
X001842Y007613D01*
X001842Y007333D01*
X001968Y007207D01*
X001968Y007007D01*
X002097Y006878D01*
X003600Y006878D01*
X001842Y005193D01*
X001839Y005193D01*
X001776Y005131D01*
X001712Y005069D01*
X001712Y005066D01*
X001710Y005064D01*
X001710Y004976D01*
X001708Y004897D01*
X001698Y004961D01*
X001675Y005033D01*
X001641Y005100D01*
X001596Y005161D01*
X001543Y005214D01*
X001482Y005259D01*
X001414Y005293D01*
X001342Y005316D01*
X001268Y005328D01*
X000950Y005328D01*
X000950Y004868D01*
X000910Y004868D01*
X000910Y005328D01*
X000592Y005328D01*
X000518Y005316D01*
X000446Y005293D01*
X000378Y005259D01*
X000340Y005231D01*
X000340Y005241D02*
X000354Y005241D01*
X000340Y005400D02*
X002057Y005400D01*
X001892Y005241D02*
X001506Y005241D01*
X001649Y005083D02*
X001726Y005083D01*
X001709Y004924D02*
X001704Y004924D01*
X001703Y004766D02*
X001710Y004766D01*
X001710Y004607D02*
X001646Y004607D01*
X001710Y004449D02*
X001497Y004449D01*
X001930Y004973D02*
X004930Y007848D01*
X005930Y007848D01*
X005930Y010256D01*
X005670Y010516D01*
X005710Y010155D02*
X000340Y010155D01*
X000340Y010313D02*
X005394Y010313D01*
X005332Y010472D02*
X000340Y010472D01*
X000340Y010630D02*
X005332Y010630D01*
X005465Y010789D02*
X000340Y010789D01*
X000340Y010947D02*
X006515Y010947D01*
X006515Y010789D02*
X005875Y010789D01*
X006008Y010630D02*
X006515Y010630D01*
X006515Y010472D02*
X006025Y010472D01*
X006150Y010313D02*
X006515Y010313D01*
X006515Y010155D02*
X006150Y010155D01*
X006150Y009996D02*
X006515Y009996D01*
X006515Y009838D02*
X006150Y009838D01*
X006150Y009679D02*
X006515Y009679D01*
X006515Y009521D02*
X006150Y009521D01*
X006150Y009362D02*
X006515Y009362D01*
X006515Y009204D02*
X006150Y009204D01*
X006150Y009045D02*
X006515Y009045D01*
X006515Y008887D02*
X006150Y008887D01*
X006150Y008728D02*
X006515Y008728D01*
X006515Y008570D02*
X006150Y008570D01*
X006150Y008411D02*
X006515Y008411D01*
X006515Y008253D02*
X006403Y008253D01*
X006515Y007511D02*
X006515Y007185D01*
X006479Y007221D01*
X006318Y007288D01*
X005542Y007288D01*
X005381Y007221D01*
X005257Y007098D01*
X005190Y006936D01*
X005190Y006818D01*
X004339Y006818D01*
X004210Y006689D01*
X002710Y005189D01*
X002710Y004033D01*
X002681Y004021D01*
X002557Y003898D01*
X002490Y003736D01*
X002490Y003348D01*
X002370Y003348D01*
X002370Y003736D01*
X002303Y003898D01*
X002179Y004021D01*
X002150Y004033D01*
X002150Y004879D01*
X005018Y007628D01*
X005245Y007628D01*
X005257Y007599D01*
X005381Y007475D01*
X005542Y007408D01*
X006318Y007408D01*
X006479Y007475D01*
X006515Y007511D01*
X006515Y007460D02*
X006443Y007460D01*
X006515Y007302D02*
X004678Y007302D01*
X004843Y007460D02*
X005417Y007460D01*
X005249Y007619D02*
X005008Y007619D01*
X004987Y008094D02*
X005256Y008094D01*
X005146Y008253D02*
X005457Y008253D01*
X005596Y008411D02*
X005710Y008411D01*
X005710Y008570D02*
X005643Y008570D01*
X005643Y008728D02*
X005710Y008728D01*
X005710Y008887D02*
X005495Y008887D01*
X005710Y009045D02*
X003235Y009045D01*
X003223Y009033D02*
X003421Y009231D01*
X003421Y009398D01*
X003550Y009527D01*
X003640Y009438D01*
X003920Y009438D01*
X004118Y009636D01*
X004118Y009916D01*
X003920Y010114D01*
X003640Y010114D01*
X003522Y009996D01*
X003396Y009996D01*
X003109Y009709D01*
X002942Y009709D01*
X002744Y009511D01*
X002744Y009231D01*
X002942Y009033D01*
X003223Y009033D01*
X003394Y009204D02*
X005710Y009204D01*
X005710Y009362D02*
X003421Y009362D01*
X003544Y009521D02*
X003557Y009521D01*
X003488Y009776D02*
X003083Y009371D01*
X002913Y009679D02*
X000340Y009679D01*
X000340Y009521D02*
X002754Y009521D01*
X002744Y009362D02*
X000340Y009362D01*
X000340Y009204D02*
X002771Y009204D01*
X002930Y009045D02*
X000340Y009045D01*
X000340Y008887D02*
X005115Y008887D01*
X004967Y008728D02*
X000340Y008728D01*
X000340Y008570D02*
X004840Y008570D01*
X004682Y008411D02*
X000340Y008411D01*
X000340Y008253D02*
X000457Y008253D01*
X000417Y007460D02*
X000340Y007460D01*
X000340Y007302D02*
X001873Y007302D01*
X001968Y007143D02*
X001557Y007143D01*
X001650Y006985D02*
X001991Y006985D01*
X002188Y007098D02*
X002188Y007465D01*
X002180Y007473D01*
X002006Y007777D02*
X001670Y007777D01*
X001670Y007936D02*
X004206Y007936D01*
X004048Y007777D02*
X002354Y007777D01*
X002513Y007619D02*
X003889Y007619D01*
X003731Y007460D02*
X002518Y007460D01*
X002188Y007098D02*
X003680Y007098D01*
X005055Y008473D01*
X005305Y008598D01*
X005710Y009521D02*
X004003Y009521D01*
X004118Y009679D02*
X005710Y009679D01*
X005710Y009838D02*
X004118Y009838D01*
X004038Y009996D02*
X005710Y009996D01*
X006515Y011106D02*
X000340Y011106D01*
X000340Y011264D02*
X006515Y011264D01*
X006515Y011423D02*
X000340Y011423D01*
X000340Y011581D02*
X006515Y011581D01*
X006515Y011740D02*
X000340Y011740D01*
X000340Y011898D02*
X006515Y011898D01*
X006515Y012057D02*
X004578Y012057D01*
X004604Y012082D02*
X004503Y011982D01*
X004372Y011928D01*
X004230Y011928D01*
X004099Y011982D01*
X003999Y012082D01*
X003944Y012214D01*
X003944Y012356D01*
X003999Y012487D01*
X004099Y012587D01*
X004230Y012641D01*
X004372Y012641D01*
X004503Y012587D01*
X004604Y012487D01*
X004658Y012356D01*
X004658Y012214D01*
X004604Y012082D01*
X004658Y012215D02*
X006515Y012215D01*
X006515Y012374D02*
X004650Y012374D01*
X004558Y012532D02*
X006515Y012532D01*
X006515Y012691D02*
X000340Y012691D01*
X000340Y012849D02*
X006515Y012849D01*
X006515Y013008D02*
X000340Y013008D01*
X000340Y013166D02*
X006515Y013166D01*
X006515Y013325D02*
X000340Y013325D01*
X000340Y013483D02*
X006515Y013483D01*
X006515Y013642D02*
X000340Y013642D01*
X000340Y013800D02*
X006515Y013800D01*
X004044Y012532D02*
X002826Y012532D01*
X002871Y012487D02*
X002771Y012587D01*
X002640Y012641D01*
X002498Y012641D01*
X002367Y012587D01*
X002266Y012487D01*
X002212Y012356D01*
X002212Y012214D01*
X002266Y012082D01*
X002367Y011982D01*
X002498Y011928D01*
X002640Y011928D01*
X002771Y011982D01*
X002871Y012082D01*
X002926Y012214D01*
X002926Y012356D01*
X002871Y012487D01*
X002918Y012374D02*
X003952Y012374D01*
X003944Y012215D02*
X002926Y012215D01*
X002846Y012057D02*
X004024Y012057D01*
X003522Y009996D02*
X000340Y009996D01*
X000340Y009838D02*
X003238Y009838D01*
X003488Y009776D02*
X003780Y009776D01*
X004523Y008253D02*
X001403Y008253D01*
X001604Y008094D02*
X004365Y008094D01*
X004512Y007143D02*
X005303Y007143D01*
X005210Y006985D02*
X004347Y006985D01*
X004188Y006668D02*
X004016Y006668D01*
X004030Y006509D02*
X003851Y006509D01*
X003871Y006351D02*
X003685Y006351D01*
X003713Y006192D02*
X003520Y006192D01*
X003554Y006034D02*
X003355Y006034D01*
X003396Y005875D02*
X003189Y005875D01*
X003237Y005717D02*
X003024Y005717D01*
X003079Y005558D02*
X002858Y005558D01*
X002920Y005400D02*
X002693Y005400D01*
X002762Y005241D02*
X002528Y005241D01*
X002362Y005083D02*
X002710Y005083D01*
X002710Y004924D02*
X002197Y004924D01*
X002150Y004766D02*
X002710Y004766D01*
X002710Y004607D02*
X002150Y004607D01*
X002150Y004449D02*
X002710Y004449D01*
X002710Y004290D02*
X002150Y004290D01*
X002150Y004132D02*
X002710Y004132D01*
X002633Y003973D02*
X002227Y003973D01*
X002337Y003815D02*
X002523Y003815D01*
X002490Y003656D02*
X002370Y003656D01*
X002370Y003498D02*
X002490Y003498D01*
X002930Y003348D02*
X002930Y005098D01*
X004430Y006598D01*
X005680Y006598D01*
X005930Y006848D01*
X005801Y006408D02*
X006318Y006408D01*
X006479Y006475D01*
X006515Y006511D01*
X006515Y006185D01*
X006479Y006221D01*
X006318Y006288D01*
X005542Y006288D01*
X005381Y006221D01*
X005257Y006098D01*
X005190Y005936D01*
X005190Y005761D01*
X005257Y005599D01*
X005381Y005475D01*
X005542Y005408D01*
X006318Y005408D01*
X006479Y005475D01*
X006515Y005511D01*
X006515Y005185D01*
X006479Y005221D01*
X006318Y005288D01*
X005542Y005288D01*
X005381Y005221D01*
X005257Y005098D01*
X005190Y004936D01*
X005190Y004761D01*
X005257Y004599D01*
X005381Y004475D01*
X005542Y004408D01*
X006318Y004408D01*
X006479Y004475D01*
X006515Y004511D01*
X006515Y003508D01*
X005869Y003508D01*
X005867Y003510D01*
X005803Y003508D01*
X005739Y003508D01*
X005737Y003507D01*
X005735Y003507D01*
X005690Y003460D01*
X005645Y003415D01*
X005645Y003412D01*
X005643Y003410D01*
X005645Y003348D01*
X004950Y003348D01*
X004950Y003368D01*
X005410Y003368D01*
X005410Y003686D01*
X005398Y003761D01*
X005375Y003833D01*
X005341Y003900D01*
X005296Y003961D01*
X005243Y004014D01*
X005182Y004059D01*
X005114Y004093D01*
X005042Y004116D01*
X004968Y004128D01*
X004950Y004128D01*
X004950Y003368D01*
X004910Y003368D01*
X004910Y003348D01*
X004370Y003348D01*
X004370Y003736D01*
X004303Y003898D01*
X004179Y004021D01*
X004018Y004088D01*
X003842Y004088D01*
X003681Y004021D01*
X003557Y003898D01*
X003490Y003736D01*
X003490Y003508D01*
X003370Y003508D01*
X003370Y003736D01*
X003303Y003898D01*
X003179Y004021D01*
X003150Y004033D01*
X003150Y005007D01*
X004521Y006378D01*
X005771Y006378D01*
X005801Y006408D01*
X005352Y006192D02*
X004335Y006192D01*
X004494Y006351D02*
X006515Y006351D01*
X006513Y006509D02*
X006515Y006509D01*
X006508Y006192D02*
X006515Y006192D01*
X006515Y005400D02*
X003543Y005400D01*
X003701Y005558D02*
X005298Y005558D01*
X005208Y005717D02*
X003860Y005717D01*
X004018Y005875D02*
X005190Y005875D01*
X005231Y006034D02*
X004177Y006034D01*
X004182Y006826D02*
X005190Y006826D01*
X005429Y005241D02*
X003384Y005241D01*
X003226Y005083D02*
X005251Y005083D01*
X005190Y004924D02*
X003150Y004924D01*
X003150Y004766D02*
X005190Y004766D01*
X005254Y004607D02*
X003150Y004607D01*
X003150Y004449D02*
X005445Y004449D01*
X005284Y003973D02*
X006515Y003973D01*
X006515Y003815D02*
X005381Y003815D01*
X005410Y003656D02*
X006515Y003656D01*
X006515Y004132D02*
X003150Y004132D01*
X003150Y004290D02*
X006515Y004290D01*
X006515Y004449D02*
X006415Y004449D01*
X006431Y005241D02*
X006515Y005241D01*
X005726Y003498D02*
X005410Y003498D01*
X004950Y003498D02*
X004910Y003498D01*
X004910Y003368D02*
X004910Y004128D01*
X004892Y004128D01*
X004818Y004116D01*
X004746Y004093D01*
X004678Y004059D01*
X004617Y004014D01*
X004564Y003961D01*
X004519Y003900D01*
X004485Y003833D01*
X004462Y003761D01*
X004450Y003686D01*
X004450Y003368D01*
X004910Y003368D01*
X004910Y003656D02*
X004950Y003656D01*
X004950Y003815D02*
X004910Y003815D01*
X004910Y003973D02*
X004950Y003973D01*
X004576Y003973D02*
X004227Y003973D01*
X004337Y003815D02*
X004479Y003815D01*
X004450Y003656D02*
X004370Y003656D01*
X004370Y003498D02*
X004450Y003498D01*
X003633Y003973D02*
X003227Y003973D01*
X003337Y003815D02*
X003523Y003815D01*
X003490Y003656D02*
X003370Y003656D01*
X002388Y005717D02*
X001652Y005717D01*
X001670Y005875D02*
X002553Y005875D01*
X002719Y006034D02*
X001629Y006034D01*
X001508Y006192D02*
X002884Y006192D01*
X003049Y006351D02*
X000340Y006351D01*
X000340Y006509D02*
X000347Y006509D01*
X000340Y006192D02*
X000352Y006192D01*
X000910Y005241D02*
X000950Y005241D01*
X000950Y005083D02*
X000910Y005083D01*
X000910Y004924D02*
X000950Y004924D01*
X000950Y004766D02*
X000910Y004766D01*
X000910Y004607D02*
X000950Y004607D01*
X000950Y004449D02*
X000910Y004449D01*
X001562Y005558D02*
X002222Y005558D01*
X001930Y004973D02*
X001930Y003348D01*
X001513Y006509D02*
X003215Y006509D01*
X003380Y006668D02*
X001631Y006668D01*
X001670Y006826D02*
X003546Y006826D01*
X001842Y007460D02*
X001443Y007460D01*
X001611Y007619D02*
X001847Y007619D01*
X002292Y012057D02*
X000340Y012057D01*
X000340Y012215D02*
X002212Y012215D01*
X002220Y012374D02*
X000340Y012374D01*
X000340Y012532D02*
X002312Y012532D01*
M02*
