G75*
%MOIN*%
%OFA0B0*%
%FSLAX24Y24*%
%IPPOS*%
%LPD*%
%AMOC8*
5,1,8,0,0,1.08239X$1,22.5*
%
%ADD10C,0.0000*%
D10*
X000743Y001523D02*
X001318Y002198D01*
X001055Y003348D02*
X000180Y003348D01*
X000180Y015039D01*
X006675Y015039D01*
X006675Y003348D01*
X006680Y003348D02*
X005805Y003348D01*
X005555Y002223D02*
X006118Y001523D01*
X005218Y000636D02*
X004568Y001198D01*
X004143Y001023D02*
X004055Y000161D01*
X002805Y000161D02*
X002743Y001011D01*
X002293Y001198D02*
X001655Y000623D01*
X005555Y002224D02*
X005594Y002304D01*
X005629Y002387D01*
X005661Y002470D01*
X005691Y002555D01*
X005717Y002641D01*
X005739Y002727D01*
X005759Y002815D01*
X005775Y002903D01*
X005788Y002991D01*
X005797Y003080D01*
X005803Y003170D01*
X005806Y003259D01*
X005805Y003349D01*
X001318Y002198D02*
X001276Y002288D01*
X001238Y002380D01*
X001203Y002472D01*
X001172Y002567D01*
X001144Y002662D01*
X001120Y002758D01*
X001100Y002855D01*
X001083Y002953D01*
X001071Y003051D01*
X001062Y003150D01*
X001056Y003249D01*
X001055Y003348D01*
X003430Y003348D02*
X003430Y003336D01*
X002805Y000161D02*
X002908Y000142D01*
X003012Y000127D01*
X003116Y000115D01*
X003221Y000107D01*
X003325Y000102D01*
X003430Y000100D01*
X003535Y000102D01*
X003639Y000107D01*
X003744Y000115D01*
X003848Y000127D01*
X003952Y000142D01*
X004055Y000161D01*
X004143Y001023D02*
X004231Y001052D01*
X004317Y001083D01*
X004402Y001118D01*
X004486Y001157D01*
X004568Y001198D01*
X001655Y000623D02*
X001566Y000683D01*
X001480Y000747D01*
X001395Y000813D01*
X001312Y000882D01*
X001232Y000953D01*
X001154Y001028D01*
X001079Y001104D01*
X001006Y001183D01*
X000936Y001265D01*
X000869Y001349D01*
X000804Y001435D01*
X000743Y001523D01*
X005217Y000636D02*
X005305Y000695D01*
X005390Y000758D01*
X005474Y000823D01*
X005555Y000891D01*
X005634Y000962D01*
X005711Y001035D01*
X005785Y001111D01*
X005857Y001189D01*
X005926Y001269D01*
X005992Y001352D01*
X006056Y001436D01*
X006117Y001523D01*
X002742Y001011D02*
X002649Y001041D01*
X002558Y001075D01*
X002468Y001112D01*
X002379Y001153D01*
X002292Y001198D01*
X002372Y013230D02*
X002374Y013257D01*
X002380Y013284D01*
X002389Y013310D01*
X002402Y013334D01*
X002418Y013357D01*
X002437Y013376D01*
X002459Y013393D01*
X002483Y013407D01*
X002508Y013417D01*
X002535Y013424D01*
X002562Y013427D01*
X002590Y013426D01*
X002617Y013421D01*
X002643Y013413D01*
X002667Y013401D01*
X002690Y013385D01*
X002711Y013367D01*
X002728Y013346D01*
X002743Y013322D01*
X002754Y013297D01*
X002762Y013271D01*
X002766Y013244D01*
X002766Y013216D01*
X002762Y013189D01*
X002754Y013163D01*
X002743Y013138D01*
X002728Y013114D01*
X002711Y013093D01*
X002690Y013075D01*
X002668Y013059D01*
X002643Y013047D01*
X002617Y013039D01*
X002590Y013034D01*
X002562Y013033D01*
X002535Y013036D01*
X002508Y013043D01*
X002483Y013053D01*
X002459Y013067D01*
X002437Y013084D01*
X002418Y013103D01*
X002402Y013126D01*
X002389Y013150D01*
X002380Y013176D01*
X002374Y013203D01*
X002372Y013230D01*
X004104Y013230D02*
X004106Y013257D01*
X004112Y013284D01*
X004121Y013310D01*
X004134Y013334D01*
X004150Y013357D01*
X004169Y013376D01*
X004191Y013393D01*
X004215Y013407D01*
X004240Y013417D01*
X004267Y013424D01*
X004294Y013427D01*
X004322Y013426D01*
X004349Y013421D01*
X004375Y013413D01*
X004399Y013401D01*
X004422Y013385D01*
X004443Y013367D01*
X004460Y013346D01*
X004475Y013322D01*
X004486Y013297D01*
X004494Y013271D01*
X004498Y013244D01*
X004498Y013216D01*
X004494Y013189D01*
X004486Y013163D01*
X004475Y013138D01*
X004460Y013114D01*
X004443Y013093D01*
X004422Y013075D01*
X004400Y013059D01*
X004375Y013047D01*
X004349Y013039D01*
X004322Y013034D01*
X004294Y013033D01*
X004267Y013036D01*
X004240Y013043D01*
X004215Y013053D01*
X004191Y013067D01*
X004169Y013084D01*
X004150Y013103D01*
X004134Y013126D01*
X004121Y013150D01*
X004112Y013176D01*
X004106Y013203D01*
X004104Y013230D01*
M02*
