G75*
%MOIN*%
%OFA0B0*%
%FSLAX24Y24*%
%IPPOS*%
%LPD*%
%AMOC8*
5,1,8,0,0,1.08239X$1,22.5*
%
%ADD10R,0.0592X0.0671*%
%ADD11R,0.0671X0.0552*%
%ADD12R,0.0946X0.0277*%
%ADD13C,0.0680*%
%ADD14R,0.0671X0.0592*%
%ADD15R,0.0395X0.0395*%
%ADD16R,0.0867X0.1025*%
%ADD17R,0.0277X0.0989*%
%ADD18C,0.0474*%
%ADD19R,0.0360X0.0200*%
%ADD20R,0.0770X0.0730*%
%ADD21OC8,0.0476*%
D10*
X003306Y004848D03*
X004054Y004848D03*
X004056Y008098D03*
X004804Y008098D03*
X005054Y010098D03*
X004306Y010098D03*
X002804Y010098D03*
X002056Y010098D03*
X002056Y008098D03*
X002804Y008098D03*
D11*
X003251Y008848D03*
X003984Y009223D03*
X005126Y009223D03*
X002109Y008848D03*
D12*
X002188Y007098D03*
X002188Y006602D03*
X002188Y006102D03*
X002188Y005602D03*
X004672Y005598D03*
X004672Y006098D03*
X004672Y006598D03*
X004672Y007098D03*
D13*
X001930Y003648D02*
X001930Y003048D01*
X001230Y004848D02*
X000630Y004848D01*
X000630Y005848D02*
X001230Y005848D01*
X001230Y006848D02*
X000630Y006848D01*
X000630Y007848D02*
X001230Y007848D01*
X002930Y003648D02*
X002930Y003048D01*
X003930Y003048D02*
X003930Y003648D01*
X004930Y003648D02*
X004930Y003048D01*
X005630Y004848D02*
X006230Y004848D01*
X006230Y005848D02*
X005630Y005848D01*
X005630Y006848D02*
X006230Y006848D01*
X006230Y007848D02*
X005630Y007848D01*
D14*
X006180Y008974D03*
X006180Y009722D03*
X006180Y012224D03*
X006180Y012972D03*
X001180Y009722D03*
X001180Y008974D03*
D15*
X001885Y004848D03*
X002475Y004848D03*
X006180Y011178D03*
X006180Y011769D03*
D16*
X005167Y011300D03*
X005167Y013466D03*
X001703Y013466D03*
X001703Y011300D03*
D17*
X002805Y011078D03*
X003120Y011078D03*
X003435Y011078D03*
X003750Y011078D03*
X004065Y011078D03*
D18*
X004301Y012285D03*
X002569Y012285D03*
D19*
X002865Y002246D03*
X002865Y002046D03*
X002865Y001846D03*
X002865Y001646D03*
X004005Y001646D03*
X004005Y001846D03*
X004005Y002046D03*
X004005Y002246D03*
D20*
X003435Y001946D03*
D21*
X003430Y004098D03*
X002430Y004106D03*
X002180Y007473D03*
X002055Y009473D03*
X003083Y009371D03*
X003430Y008223D03*
X003780Y009776D03*
X005305Y008598D03*
X005555Y009723D03*
X005670Y010516D03*
X006180Y010598D03*
X006180Y003848D03*
M02*
